<svg xmlns="http://www.w3.org/2000/svg" xmlns:xlink="http://www.w3.org/1999/xlink" width="500" zoomAndPan="magnify" viewBox="0 0 375 374.999991" height="500" preserveAspectRatio="xMidYMid meet" version="1.0"><defs><g/><clipPath id="2da3f62051"><path d="M 39 25 L 360 25 L 360 343 L 39 343 Z M 39 25 " clip-rule="nonzero"/></clipPath><clipPath id="8bc96dd1c9"><path d="M 187.480469 58.203125 C 224.472656 133.179688 360.109375 152.972656 359.324219 217.140625 C 358.460938 287.613281 302.621094 355.628906 170.28125 339.972656 C 84.230469 329.816406 40.796875 296.988281 39.097656 167.398438 C 37.394531 37.808594 151.984375 -13.789062 187.480469 58.203125 Z M 187.480469 58.203125 " clip-rule="nonzero"/></clipPath><linearGradient x1="1475.597571" gradientTransform="matrix(0, 2.617948, -2.617948, 0, -1368.939903, -3863.037027)" y1="-598.99701" x2="1611.440006" gradientUnits="userSpaceOnUse" y2="-598.99701" id="d67600634e"><stop stop-opacity="1" stop-color="rgb(91.799927%, 95.298767%, 99.598694%)" offset="0"/><stop stop-opacity="1" stop-color="rgb(91.799927%, 95.298767%, 99.598694%)" offset="0.0625"/><stop stop-opacity="1" stop-color="rgb(91.799927%, 95.298767%, 99.598694%)" offset="0.0703125"/><stop stop-opacity="1" stop-color="rgb(91.558838%, 95.162964%, 99.589539%)" offset="0.0742188"/><stop stop-opacity="1" stop-color="rgb(91.319275%, 95.027161%, 99.580383%)" offset="0.078125"/><stop stop-opacity="1" stop-color="rgb(91.023254%, 94.859314%, 99.568176%)" offset="0.0820312"/><stop stop-opacity="1" stop-color="rgb(90.72876%, 94.691467%, 99.555969%)" offset="0.0859375"/><stop stop-opacity="1" stop-color="rgb(90.432739%, 94.523621%, 99.543762%)" offset="0.0898438"/><stop stop-opacity="1" stop-color="rgb(90.136719%, 94.355774%, 99.531555%)" offset="0.09375"/><stop stop-opacity="1" stop-color="rgb(89.840698%, 94.187927%, 99.519348%)" offset="0.0976562"/><stop stop-opacity="1" stop-color="rgb(89.546204%, 94.021606%, 99.508667%)" offset="0.101563"/><stop stop-opacity="1" stop-color="rgb(89.250183%, 93.85376%, 99.49646%)" offset="0.105469"/><stop stop-opacity="1" stop-color="rgb(88.954163%, 93.685913%, 99.484253%)" offset="0.109375"/><stop stop-opacity="1" stop-color="rgb(88.658142%, 93.518066%, 99.472046%)" offset="0.113281"/><stop stop-opacity="1" stop-color="rgb(88.362122%, 93.35022%, 99.461365%)" offset="0.117187"/><stop stop-opacity="1" stop-color="rgb(88.066101%, 93.182373%, 99.449158%)" offset="0.121094"/><stop stop-opacity="1" stop-color="rgb(87.771606%, 93.014526%, 99.436951%)" offset="0.125"/><stop stop-opacity="1" stop-color="rgb(87.475586%, 92.84668%, 99.424744%)" offset="0.128906"/><stop stop-opacity="1" stop-color="rgb(87.179565%, 92.678833%, 99.412537%)" offset="0.132812"/><stop stop-opacity="1" stop-color="rgb(86.883545%, 92.510986%, 99.40033%)" offset="0.136719"/><stop stop-opacity="1" stop-color="rgb(86.587524%, 92.344666%, 99.389648%)" offset="0.140625"/><stop stop-opacity="1" stop-color="rgb(86.291504%, 92.176819%, 99.377441%)" offset="0.144531"/><stop stop-opacity="1" stop-color="rgb(85.997009%, 92.008972%, 99.365234%)" offset="0.148438"/><stop stop-opacity="1" stop-color="rgb(85.700989%, 91.841125%, 99.353027%)" offset="0.152344"/><stop stop-opacity="1" stop-color="rgb(85.404968%, 91.673279%, 99.342346%)" offset="0.15625"/><stop stop-opacity="1" stop-color="rgb(85.108948%, 91.505432%, 99.330139%)" offset="0.160156"/><stop stop-opacity="1" stop-color="rgb(84.814453%, 91.337585%, 99.317932%)" offset="0.164062"/><stop stop-opacity="1" stop-color="rgb(84.518433%, 91.169739%, 99.305725%)" offset="0.167969"/><stop stop-opacity="1" stop-color="rgb(84.222412%, 91.001892%, 99.293518%)" offset="0.171875"/><stop stop-opacity="1" stop-color="rgb(83.926392%, 90.834045%, 99.281311%)" offset="0.175781"/><stop stop-opacity="1" stop-color="rgb(83.630371%, 90.666199%, 99.27063%)" offset="0.179688"/><stop stop-opacity="1" stop-color="rgb(83.334351%, 90.498352%, 99.258423%)" offset="0.183594"/><stop stop-opacity="1" stop-color="rgb(83.039856%, 90.332031%, 99.246216%)" offset="0.1875"/><stop stop-opacity="1" stop-color="rgb(82.743835%, 90.164185%, 99.234009%)" offset="0.191406"/><stop stop-opacity="1" stop-color="rgb(82.447815%, 89.996338%, 99.223328%)" offset="0.195313"/><stop stop-opacity="1" stop-color="rgb(82.151794%, 89.828491%, 99.211121%)" offset="0.199219"/><stop stop-opacity="1" stop-color="rgb(81.8573%, 89.660645%, 99.198914%)" offset="0.203125"/><stop stop-opacity="1" stop-color="rgb(81.561279%, 89.492798%, 99.186707%)" offset="0.207031"/><stop stop-opacity="1" stop-color="rgb(81.265259%, 89.324951%, 99.1745%)" offset="0.210938"/><stop stop-opacity="1" stop-color="rgb(80.969238%, 89.157104%, 99.162292%)" offset="0.214844"/><stop stop-opacity="1" stop-color="rgb(80.673218%, 88.989258%, 99.151611%)" offset="0.21875"/><stop stop-opacity="1" stop-color="rgb(80.377197%, 88.821411%, 99.139404%)" offset="0.222656"/><stop stop-opacity="1" stop-color="rgb(80.082703%, 88.65509%, 99.127197%)" offset="0.226563"/><stop stop-opacity="1" stop-color="rgb(79.786682%, 88.487244%, 99.11499%)" offset="0.230469"/><stop stop-opacity="1" stop-color="rgb(79.490662%, 88.319397%, 99.104309%)" offset="0.234375"/><stop stop-opacity="1" stop-color="rgb(79.194641%, 88.15155%, 99.092102%)" offset="0.238281"/><stop stop-opacity="1" stop-color="rgb(78.900146%, 87.983704%, 99.079895%)" offset="0.242188"/><stop stop-opacity="1" stop-color="rgb(78.604126%, 87.815857%, 99.067688%)" offset="0.246094"/><stop stop-opacity="1" stop-color="rgb(78.308105%, 87.64801%, 99.055481%)" offset="0.25"/><stop stop-opacity="1" stop-color="rgb(78.012085%, 87.480164%, 99.043274%)" offset="0.253906"/><stop stop-opacity="1" stop-color="rgb(77.716064%, 87.312317%, 99.032593%)" offset="0.257812"/><stop stop-opacity="1" stop-color="rgb(77.420044%, 87.14447%, 99.020386%)" offset="0.261719"/><stop stop-opacity="1" stop-color="rgb(77.125549%, 86.976624%, 99.008179%)" offset="0.265625"/><stop stop-opacity="1" stop-color="rgb(76.829529%, 86.808777%, 98.995972%)" offset="0.269531"/><stop stop-opacity="1" stop-color="rgb(76.533508%, 86.642456%, 98.983765%)" offset="0.273438"/><stop stop-opacity="1" stop-color="rgb(76.237488%, 86.474609%, 98.971558%)" offset="0.277344"/><stop stop-opacity="1" stop-color="rgb(75.942993%, 86.306763%, 98.960876%)" offset="0.28125"/><stop stop-opacity="1" stop-color="rgb(75.646973%, 86.138916%, 98.948669%)" offset="0.285156"/><stop stop-opacity="1" stop-color="rgb(75.350952%, 85.971069%, 98.936462%)" offset="0.289063"/><stop stop-opacity="1" stop-color="rgb(75.054932%, 85.803223%, 98.924255%)" offset="0.292969"/><stop stop-opacity="1" stop-color="rgb(74.758911%, 85.635376%, 98.913574%)" offset="0.296875"/><stop stop-opacity="1" stop-color="rgb(74.462891%, 85.467529%, 98.901367%)" offset="0.300781"/><stop stop-opacity="1" stop-color="rgb(74.168396%, 85.299683%, 98.88916%)" offset="0.304688"/><stop stop-opacity="1" stop-color="rgb(73.872375%, 85.131836%, 98.876953%)" offset="0.308594"/><stop stop-opacity="1" stop-color="rgb(73.576355%, 84.965515%, 98.864746%)" offset="0.3125"/><stop stop-opacity="1" stop-color="rgb(73.280334%, 84.797668%, 98.852539%)" offset="0.316406"/><stop stop-opacity="1" stop-color="rgb(72.984314%, 84.629822%, 98.841858%)" offset="0.320313"/><stop stop-opacity="1" stop-color="rgb(72.688293%, 84.461975%, 98.829651%)" offset="0.324219"/><stop stop-opacity="1" stop-color="rgb(72.393799%, 84.294128%, 98.817444%)" offset="0.328125"/><stop stop-opacity="1" stop-color="rgb(72.097778%, 84.126282%, 98.805237%)" offset="0.332031"/><stop stop-opacity="1" stop-color="rgb(71.801758%, 83.958435%, 98.794556%)" offset="0.335938"/><stop stop-opacity="1" stop-color="rgb(71.505737%, 83.790588%, 98.782349%)" offset="0.339844"/><stop stop-opacity="1" stop-color="rgb(71.211243%, 83.622742%, 98.770142%)" offset="0.34375"/><stop stop-opacity="1" stop-color="rgb(70.915222%, 83.454895%, 98.757935%)" offset="0.347656"/><stop stop-opacity="1" stop-color="rgb(70.619202%, 83.287048%, 98.745728%)" offset="0.351562"/><stop stop-opacity="1" stop-color="rgb(70.323181%, 83.119202%, 98.733521%)" offset="0.355469"/><stop stop-opacity="1" stop-color="rgb(70.027161%, 82.952881%, 98.722839%)" offset="0.359375"/><stop stop-opacity="1" stop-color="rgb(69.73114%, 82.785034%, 98.710632%)" offset="0.363281"/><stop stop-opacity="1" stop-color="rgb(69.436646%, 82.617188%, 98.698425%)" offset="0.367188"/><stop stop-opacity="1" stop-color="rgb(69.140625%, 82.449341%, 98.686218%)" offset="0.371094"/><stop stop-opacity="1" stop-color="rgb(68.844604%, 82.281494%, 98.675537%)" offset="0.375"/><stop stop-opacity="1" stop-color="rgb(68.548584%, 82.113647%, 98.66333%)" offset="0.378906"/><stop stop-opacity="1" stop-color="rgb(68.254089%, 81.945801%, 98.651123%)" offset="0.382813"/><stop stop-opacity="1" stop-color="rgb(67.958069%, 81.777954%, 98.638916%)" offset="0.386719"/><stop stop-opacity="1" stop-color="rgb(67.662048%, 81.610107%, 98.626709%)" offset="0.390625"/><stop stop-opacity="1" stop-color="rgb(67.366028%, 81.442261%, 98.614502%)" offset="0.394531"/><stop stop-opacity="1" stop-color="rgb(67.070007%, 81.27594%, 98.603821%)" offset="0.398438"/><stop stop-opacity="1" stop-color="rgb(66.773987%, 81.108093%, 98.591614%)" offset="0.402344"/><stop stop-opacity="1" stop-color="rgb(66.479492%, 80.940247%, 98.579407%)" offset="0.40625"/><stop stop-opacity="1" stop-color="rgb(66.183472%, 80.7724%, 98.5672%)" offset="0.410156"/><stop stop-opacity="1" stop-color="rgb(65.887451%, 80.604553%, 98.556519%)" offset="0.414063"/><stop stop-opacity="1" stop-color="rgb(65.591431%, 80.436707%, 98.544312%)" offset="0.417969"/><stop stop-opacity="1" stop-color="rgb(65.296936%, 80.26886%, 98.532104%)" offset="0.421875"/><stop stop-opacity="1" stop-color="rgb(65.000916%, 80.101013%, 98.519897%)" offset="0.425781"/><stop stop-opacity="1" stop-color="rgb(64.704895%, 79.933167%, 98.50769%)" offset="0.429688"/><stop stop-opacity="1" stop-color="rgb(64.408875%, 79.76532%, 98.495483%)" offset="0.433594"/><stop stop-opacity="1" stop-color="rgb(64.112854%, 79.597473%, 98.484802%)" offset="0.4375"/><stop stop-opacity="1" stop-color="rgb(63.816833%, 79.429626%, 98.472595%)" offset="0.441406"/><stop stop-opacity="1" stop-color="rgb(63.522339%, 79.263306%, 98.460388%)" offset="0.445312"/><stop stop-opacity="1" stop-color="rgb(63.226318%, 79.095459%, 98.448181%)" offset="0.449219"/><stop stop-opacity="1" stop-color="rgb(62.930298%, 78.927612%, 98.4375%)" offset="0.453125"/><stop stop-opacity="1" stop-color="rgb(62.634277%, 78.759766%, 98.425293%)" offset="0.457031"/><stop stop-opacity="1" stop-color="rgb(62.339783%, 78.591919%, 98.413086%)" offset="0.460938"/><stop stop-opacity="1" stop-color="rgb(61.962891%, 78.373718%, 98.358154%)" offset="0.464844"/><stop stop-opacity="1" stop-color="rgb(61.587524%, 78.155518%, 98.304749%)" offset="0.46875"/><stop stop-opacity="1" stop-color="rgb(61.102295%, 77.868652%, 98.193359%)" offset="0.472656"/><stop stop-opacity="1" stop-color="rgb(60.618591%, 77.583313%, 98.083496%)" offset="0.476562"/><stop stop-opacity="1" stop-color="rgb(60.134888%, 77.296448%, 97.972107%)" offset="0.480469"/><stop stop-opacity="1" stop-color="rgb(59.651184%, 77.011108%, 97.862244%)" offset="0.484375"/><stop stop-opacity="1" stop-color="rgb(59.165955%, 76.724243%, 97.750854%)" offset="0.488281"/><stop stop-opacity="1" stop-color="rgb(58.682251%, 76.438904%, 97.639465%)" offset="0.492188"/><stop stop-opacity="1" stop-color="rgb(58.197021%, 76.152039%, 97.528076%)" offset="0.496094"/><stop stop-opacity="1" stop-color="rgb(57.713318%, 75.866699%, 97.418213%)" offset="0.5"/><stop stop-opacity="1" stop-color="rgb(57.229614%, 75.579834%, 97.306824%)" offset="0.503906"/><stop stop-opacity="1" stop-color="rgb(56.745911%, 75.294495%, 97.19696%)" offset="0.507813"/><stop stop-opacity="1" stop-color="rgb(56.260681%, 75.007629%, 97.085571%)" offset="0.511719"/><stop stop-opacity="1" stop-color="rgb(55.776978%, 74.72229%, 96.974182%)" offset="0.515625"/><stop stop-opacity="1" stop-color="rgb(55.291748%, 74.435425%, 96.862793%)" offset="0.519531"/><stop stop-opacity="1" stop-color="rgb(54.808044%, 74.150085%, 96.75293%)" offset="0.523438"/><stop stop-opacity="1" stop-color="rgb(54.324341%, 73.86322%, 96.641541%)" offset="0.527344"/><stop stop-opacity="1" stop-color="rgb(53.840637%, 73.577881%, 96.531677%)" offset="0.53125"/><stop stop-opacity="1" stop-color="rgb(53.355408%, 73.291016%, 96.420288%)" offset="0.535156"/><stop stop-opacity="1" stop-color="rgb(52.871704%, 73.005676%, 96.310425%)" offset="0.539063"/><stop stop-opacity="1" stop-color="rgb(52.386475%, 72.718811%, 96.199036%)" offset="0.542969"/><stop stop-opacity="1" stop-color="rgb(51.902771%, 72.433472%, 96.087646%)" offset="0.546875"/><stop stop-opacity="1" stop-color="rgb(51.419067%, 72.146606%, 95.976257%)" offset="0.550781"/><stop stop-opacity="1" stop-color="rgb(50.935364%, 71.861267%, 95.866394%)" offset="0.554688"/><stop stop-opacity="1" stop-color="rgb(50.450134%, 71.574402%, 95.755005%)" offset="0.558594"/><stop stop-opacity="1" stop-color="rgb(49.966431%, 71.289062%, 95.645142%)" offset="0.5625"/><stop stop-opacity="1" stop-color="rgb(49.481201%, 71.002197%, 95.533752%)" offset="0.566406"/><stop stop-opacity="1" stop-color="rgb(48.997498%, 70.716858%, 95.423889%)" offset="0.570313"/><stop stop-opacity="1" stop-color="rgb(48.513794%, 70.429993%, 95.3125%)" offset="0.574219"/><stop stop-opacity="1" stop-color="rgb(48.03009%, 70.144653%, 95.201111%)" offset="0.578125"/><stop stop-opacity="1" stop-color="rgb(47.544861%, 69.857788%, 95.089722%)" offset="0.582031"/><stop stop-opacity="1" stop-color="rgb(47.061157%, 69.572449%, 94.979858%)" offset="0.585938"/><stop stop-opacity="1" stop-color="rgb(46.575928%, 69.285583%, 94.868469%)" offset="0.589844"/><stop stop-opacity="1" stop-color="rgb(46.092224%, 69.000244%, 94.758606%)" offset="0.59375"/><stop stop-opacity="1" stop-color="rgb(45.608521%, 68.713379%, 94.647217%)" offset="0.597656"/><stop stop-opacity="1" stop-color="rgb(45.124817%, 68.42804%, 94.535828%)" offset="0.601562"/><stop stop-opacity="1" stop-color="rgb(44.639587%, 68.141174%, 94.424438%)" offset="0.605469"/><stop stop-opacity="1" stop-color="rgb(44.155884%, 67.855835%, 94.314575%)" offset="0.609375"/><stop stop-opacity="1" stop-color="rgb(43.670654%, 67.56897%, 94.203186%)" offset="0.613281"/><stop stop-opacity="1" stop-color="rgb(43.186951%, 67.28363%, 94.093323%)" offset="0.617188"/><stop stop-opacity="1" stop-color="rgb(42.703247%, 66.996765%, 93.981934%)" offset="0.621094"/><stop stop-opacity="1" stop-color="rgb(42.219543%, 66.711426%, 93.87207%)" offset="0.625"/><stop stop-opacity="1" stop-color="rgb(41.734314%, 66.424561%, 93.760681%)" offset="0.628906"/><stop stop-opacity="1" stop-color="rgb(41.25061%, 66.139221%, 93.649292%)" offset="0.632812"/><stop stop-opacity="1" stop-color="rgb(40.765381%, 65.852356%, 93.537903%)" offset="0.636719"/><stop stop-opacity="1" stop-color="rgb(40.281677%, 65.567017%, 93.42804%)" offset="0.640625"/><stop stop-opacity="1" stop-color="rgb(39.797974%, 65.280151%, 93.31665%)" offset="0.644531"/><stop stop-opacity="1" stop-color="rgb(39.31427%, 64.993286%, 93.206787%)" offset="0.648438"/><stop stop-opacity="1" stop-color="rgb(38.829041%, 64.706421%, 93.095398%)" offset="0.652344"/><stop stop-opacity="1" stop-color="rgb(38.345337%, 64.421082%, 92.985535%)" offset="0.65625"/><stop stop-opacity="1" stop-color="rgb(37.860107%, 64.134216%, 92.874146%)" offset="0.660156"/><stop stop-opacity="1" stop-color="rgb(37.376404%, 63.848877%, 92.762756%)" offset="0.664062"/><stop stop-opacity="1" stop-color="rgb(36.8927%, 63.562012%, 92.651367%)" offset="0.667969"/><stop stop-opacity="1" stop-color="rgb(36.408997%, 63.276672%, 92.541504%)" offset="0.671875"/><stop stop-opacity="1" stop-color="rgb(35.923767%, 62.989807%, 92.430115%)" offset="0.675781"/><stop stop-opacity="1" stop-color="rgb(35.440063%, 62.704468%, 92.320251%)" offset="0.679688"/><stop stop-opacity="1" stop-color="rgb(34.954834%, 62.417603%, 92.208862%)" offset="0.683594"/><stop stop-opacity="1" stop-color="rgb(34.47113%, 62.132263%, 92.097473%)" offset="0.6875"/><stop stop-opacity="1" stop-color="rgb(33.987427%, 61.845398%, 91.986084%)" offset="0.691406"/><stop stop-opacity="1" stop-color="rgb(33.503723%, 61.560059%, 91.876221%)" offset="0.695313"/><stop stop-opacity="1" stop-color="rgb(33.018494%, 61.273193%, 91.764832%)" offset="0.699219"/><stop stop-opacity="1" stop-color="rgb(32.53479%, 60.987854%, 91.654968%)" offset="0.703125"/><stop stop-opacity="1" stop-color="rgb(32.049561%, 60.700989%, 91.543579%)" offset="0.707031"/><stop stop-opacity="1" stop-color="rgb(31.565857%, 60.415649%, 91.433716%)" offset="0.710938"/><stop stop-opacity="1" stop-color="rgb(31.082153%, 60.128784%, 91.322327%)" offset="0.714844"/><stop stop-opacity="1" stop-color="rgb(30.59845%, 59.843445%, 91.210938%)" offset="0.71875"/><stop stop-opacity="1" stop-color="rgb(30.11322%, 59.55658%, 91.099548%)" offset="0.722656"/><stop stop-opacity="1" stop-color="rgb(29.629517%, 59.27124%, 90.989685%)" offset="0.726563"/><stop stop-opacity="1" stop-color="rgb(29.144287%, 58.984375%, 90.878296%)" offset="0.730469"/><stop stop-opacity="1" stop-color="rgb(28.660583%, 58.699036%, 90.768433%)" offset="0.734375"/><stop stop-opacity="1" stop-color="rgb(28.17688%, 58.41217%, 90.657043%)" offset="0.738281"/><stop stop-opacity="1" stop-color="rgb(27.693176%, 58.126831%, 90.54718%)" offset="0.742188"/><stop stop-opacity="1" stop-color="rgb(27.207947%, 57.839966%, 90.435791%)" offset="0.746094"/><stop stop-opacity="1" stop-color="rgb(26.724243%, 57.554626%, 90.324402%)" offset="0.75"/><stop stop-opacity="1" stop-color="rgb(26.239014%, 57.267761%, 90.213013%)" offset="0.753906"/><stop stop-opacity="1" stop-color="rgb(25.75531%, 56.982422%, 90.103149%)" offset="0.757813"/><stop stop-opacity="1" stop-color="rgb(25.271606%, 56.695557%, 89.99176%)" offset="0.761719"/><stop stop-opacity="1" stop-color="rgb(24.787903%, 56.410217%, 89.881897%)" offset="0.765625"/><stop stop-opacity="1" stop-color="rgb(24.302673%, 56.123352%, 89.770508%)" offset="0.769531"/><stop stop-opacity="1" stop-color="rgb(23.81897%, 55.838013%, 89.659119%)" offset="0.773438"/><stop stop-opacity="1" stop-color="rgb(23.33374%, 55.551147%, 89.547729%)" offset="0.777344"/><stop stop-opacity="1" stop-color="rgb(22.850037%, 55.265808%, 89.437866%)" offset="0.78125"/><stop stop-opacity="1" stop-color="rgb(22.366333%, 54.978943%, 89.326477%)" offset="0.785156"/><stop stop-opacity="1" stop-color="rgb(21.882629%, 54.693604%, 89.216614%)" offset="0.789062"/><stop stop-opacity="1" stop-color="rgb(21.3974%, 54.406738%, 89.105225%)" offset="0.792969"/><stop stop-opacity="1" stop-color="rgb(20.913696%, 54.121399%, 88.995361%)" offset="0.796875"/><stop stop-opacity="1" stop-color="rgb(20.428467%, 53.834534%, 88.883972%)" offset="0.800781"/><stop stop-opacity="1" stop-color="rgb(19.944763%, 53.549194%, 88.772583%)" offset="0.804688"/><stop stop-opacity="1" stop-color="rgb(19.46106%, 53.262329%, 88.661194%)" offset="0.808594"/><stop stop-opacity="1" stop-color="rgb(18.977356%, 52.97699%, 88.551331%)" offset="0.8125"/><stop stop-opacity="1" stop-color="rgb(18.492126%, 52.690125%, 88.439941%)" offset="0.816406"/><stop stop-opacity="1" stop-color="rgb(18.008423%, 52.404785%, 88.330078%)" offset="0.820312"/><stop stop-opacity="1" stop-color="rgb(17.523193%, 52.11792%, 88.218689%)" offset="0.824219"/><stop stop-opacity="1" stop-color="rgb(17.03949%, 51.832581%, 88.108826%)" offset="0.828125"/><stop stop-opacity="1" stop-color="rgb(16.555786%, 51.545715%, 87.997437%)" offset="0.832031"/><stop stop-opacity="1" stop-color="rgb(16.072083%, 51.260376%, 87.886047%)" offset="0.835938"/><stop stop-opacity="1" stop-color="rgb(15.586853%, 50.973511%, 87.774658%)" offset="0.839844"/><stop stop-opacity="1" stop-color="rgb(15.103149%, 50.688171%, 87.664795%)" offset="0.84375"/><stop stop-opacity="1" stop-color="rgb(14.61792%, 50.401306%, 87.553406%)" offset="0.847656"/><stop stop-opacity="1" stop-color="rgb(14.134216%, 50.115967%, 87.443542%)" offset="0.851563"/><stop stop-opacity="1" stop-color="rgb(13.650513%, 49.829102%, 87.332153%)" offset="0.855469"/><stop stop-opacity="1" stop-color="rgb(13.166809%, 49.543762%, 87.220764%)" offset="0.859375"/><stop stop-opacity="1" stop-color="rgb(12.68158%, 49.256897%, 87.109375%)" offset="0.863281"/><stop stop-opacity="1" stop-color="rgb(12.197876%, 48.971558%, 86.999512%)" offset="0.867188"/><stop stop-opacity="1" stop-color="rgb(11.712646%, 48.684692%, 86.888123%)" offset="0.871094"/><stop stop-opacity="1" stop-color="rgb(11.228943%, 48.399353%, 86.778259%)" offset="0.875"/><stop stop-opacity="1" stop-color="rgb(10.745239%, 48.112488%, 86.66687%)" offset="0.878906"/><stop stop-opacity="1" stop-color="rgb(10.261536%, 47.827148%, 86.557007%)" offset="0.882813"/><stop stop-opacity="1" stop-color="rgb(9.776306%, 47.540283%, 86.445618%)" offset="0.886719"/><stop stop-opacity="1" stop-color="rgb(9.292603%, 47.254944%, 86.334229%)" offset="0.890625"/><stop stop-opacity="1" stop-color="rgb(8.807373%, 46.968079%, 86.222839%)" offset="0.894531"/><stop stop-opacity="1" stop-color="rgb(8.323669%, 46.682739%, 86.112976%)" offset="0.898438"/><stop stop-opacity="1" stop-color="rgb(7.839966%, 46.395874%, 86.001587%)" offset="0.902344"/><stop stop-opacity="1" stop-color="rgb(7.356262%, 46.110535%, 85.891724%)" offset="0.90625"/><stop stop-opacity="1" stop-color="rgb(6.871033%, 45.823669%, 85.780334%)" offset="0.910156"/><stop stop-opacity="1" stop-color="rgb(6.387329%, 45.536804%, 85.670471%)" offset="0.914062"/><stop stop-opacity="1" stop-color="rgb(5.9021%, 45.249939%, 85.559082%)" offset="0.917969"/><stop stop-opacity="1" stop-color="rgb(5.418396%, 44.9646%, 85.447693%)" offset="0.921875"/><stop stop-opacity="1" stop-color="rgb(4.934692%, 44.677734%, 85.336304%)" offset="0.925781"/><stop stop-opacity="1" stop-color="rgb(4.450989%, 44.392395%, 85.22644%)" offset="0.929688"/><stop stop-opacity="1" stop-color="rgb(3.965759%, 44.10553%, 85.115051%)" offset="0.933594"/><stop stop-opacity="1" stop-color="rgb(3.482056%, 43.82019%, 85.005188%)" offset="0.9375"/><stop stop-opacity="1" stop-color="rgb(2.996826%, 43.533325%, 84.893799%)" offset="0.941406"/><stop stop-opacity="1" stop-color="rgb(2.513123%, 43.247986%, 84.78241%)" offset="0.945313"/><stop stop-opacity="1" stop-color="rgb(2.029419%, 42.961121%, 84.671021%)" offset="0.949219"/><stop stop-opacity="1" stop-color="rgb(1.545715%, 42.675781%, 84.561157%)" offset="0.953125"/><stop stop-opacity="1" stop-color="rgb(1.060486%, 42.388916%, 84.449768%)" offset="0.957031"/><stop stop-opacity="1" stop-color="rgb(0.576782%, 42.103577%, 84.339905%)" offset="0.960938"/><stop stop-opacity="1" stop-color="rgb(0.488281%, 42.051697%, 84.318542%)" offset="0.96875"/><stop stop-opacity="1" stop-color="rgb(0.39978%, 41.999817%, 84.298706%)" offset="1"/></linearGradient><clipPath id="3c11b6c62a"><path d="M 134.457031 161.558594 L 211.707031 161.558594 L 211.707031 261.308594 L 134.457031 261.308594 Z M 134.457031 161.558594 " clip-rule="nonzero"/></clipPath><clipPath id="97ca8fe1d7"><path d="M 253 240 L 269 240 L 269 255.851562 L 253 255.851562 Z M 253 240 " clip-rule="nonzero"/></clipPath><clipPath id="c2df96bd9b"><path d="M 217.402344 163 L 234 163 L 234 180 L 217.402344 180 Z M 217.402344 163 " clip-rule="nonzero"/></clipPath><clipPath id="ae12a52245"><path d="M 217.402344 240 L 233 240 L 233 255.851562 L 217.402344 255.851562 Z M 217.402344 240 " clip-rule="nonzero"/></clipPath><clipPath id="53d3322c42"><path d="M 37.5 44.816406 L 211.5 44.816406 L 211.5 170.816406 L 37.5 170.816406 Z M 37.5 44.816406 " clip-rule="nonzero"/></clipPath></defs><g clip-path="url(#2da3f62051)"><g clip-path="url(#8bc96dd1c9)"><path fill="url(#d67600634e)" d="M 360 0 L 37.5 0 L 37.5 355.628906 L 360 355.628906 Z M 360 0 " fill-rule="nonzero"/></g></g><g clip-path="url(#3c11b6c62a)"><path fill="#eaf3fe" d="M 211.339844 177.367188 C 211.632812 176.972656 211.789062 176.496094 211.789062 176.007812 L 211.789062 163.84375 C 211.789062 162.585938 210.769531 161.570312 209.515625 161.570312 L 139.007812 161.570312 C 137.75 161.570312 136.730469 162.585938 136.730469 163.84375 L 136.730469 177.492188 C 136.730469 178.75 137.75 179.765625 139.007812 179.765625 L 186.769531 179.765625 L 134.90625 245.851562 C 134.613281 246.242188 134.457031 246.71875 134.457031 247.207031 L 134.457031 259.371094 C 134.457031 260.628906 135.476562 261.644531 136.730469 261.644531 L 209.515625 261.644531 C 210.769531 261.644531 211.789062 260.628906 211.789062 259.371094 L 211.789062 245.722656 C 211.789062 244.464844 210.769531 243.449219 209.515625 243.449219 L 161.75 243.449219 Z M 211.339844 177.367188 " fill-opacity="1" fill-rule="nonzero"/></g><g clip-path="url(#97ca8fe1d7)"><path fill="#eaf3fe" d="M 261.046875 240.390625 C 265.234375 240.445312 268.65625 244.125 268.570312 248.457031 C 268.511719 252.648438 264.894531 256.125 260.675781 256.066406 C 256.425781 256.011719 252.949219 252.390625 253.007812 248.085938 C 253.089844 243.867188 256.769531 240.359375 261.046875 240.390625 Z M 261.046875 240.390625 " fill-opacity="1" fill-rule="nonzero"/></g><path fill="#eaf3fe" d="M 268.941406 210.03125 C 268.941406 214.335938 265.433594 217.871094 261.160156 217.871094 C 256.941406 217.871094 253.433594 214.277344 253.433594 210.085938 C 253.433594 205.78125 257.027344 202.191406 261.359375 202.191406 C 265.40625 202.132812 268.941406 205.78125 268.941406 210.03125 Z M 268.941406 210.03125 " fill-opacity="1" fill-rule="nonzero"/><g clip-path="url(#c2df96bd9b)"><path fill="#eaf3fe" d="M 225.726562 163.507812 C 229.917969 163.566406 233.335938 167.242188 233.25 171.574219 C 233.195312 175.765625 229.574219 179.242188 225.355469 179.1875 C 221.109375 179.128906 217.628906 175.507812 217.6875 171.207031 C 217.800781 166.984375 221.476562 163.421875 225.726562 163.507812 Z M 225.726562 163.507812 " fill-opacity="1" fill-rule="nonzero"/></g><g clip-path="url(#ae12a52245)"><path fill="#eaf3fe" d="M 225.496094 240.390625 C 229.6875 240.445312 233.109375 244.152344 232.996094 248.515625 C 232.9375 252.703125 229.316406 256.183594 225.097656 256.097656 C 220.851562 256.039062 217.402344 252.417969 217.460938 248.113281 C 217.542969 243.867188 221.222656 240.332031 225.496094 240.390625 Z M 225.496094 240.390625 " fill-opacity="1" fill-rule="nonzero"/></g><g clip-path="url(#53d3322c42)"><path fill="#eaf3fe" d="M 200.15625 44.910156 C 193.753906 44.910156 188.527344 50.136719 188.527344 56.535156 C 188.527344 59.765625 189.878906 62.703125 191.992188 64.816406 L 153.765625 125.121094 C 152.53125 124.652344 151.183594 124.417969 149.773438 124.417969 C 145.484375 124.417969 141.726562 126.765625 139.730469 130.230469 L 111.015625 121.011719 C 111.078125 120.660156 111.078125 120.304688 111.078125 119.894531 C 111.078125 113.496094 105.851562 108.269531 99.449219 108.269531 C 93.050781 108.269531 87.824219 113.496094 87.824219 119.894531 C 87.824219 121.714844 88.234375 123.417969 88.996094 124.945312 L 56.523438 150.3125 C 54.527344 148.609375 51.945312 147.609375 49.125 147.609375 C 42.726562 147.609375 37.5 152.835938 37.5 159.238281 C 37.5 165.636719 42.726562 170.863281 49.125 170.863281 C 55.527344 170.863281 60.753906 165.636719 60.753906 159.238281 C 60.753906 157.417969 60.34375 155.714844 59.578125 154.1875 L 92.050781 128.820312 C 94.046875 130.523438 96.632812 131.523438 99.449219 131.523438 C 103.734375 131.523438 107.496094 129.171875 109.492188 125.707031 L 138.203125 134.925781 C 138.144531 135.28125 138.144531 135.632812 138.144531 136.042969 C 138.144531 142.445312 143.371094 147.667969 149.773438 147.667969 C 156.171875 147.667969 161.398438 142.445312 161.398438 136.042969 C 161.398438 132.8125 160.050781 129.878906 157.933594 127.765625 L 196.160156 67.457031 C 197.394531 67.929688 198.746094 68.164062 200.15625 68.164062 C 206.554688 68.164062 211.78125 62.9375 211.78125 56.535156 C 211.78125 50.078125 206.554688 44.910156 200.15625 44.910156 Z M 200.15625 44.910156 " fill-opacity="1" fill-rule="nonzero"/></g><g fill="#ffffff" fill-opacity="1"><g transform="translate(134.456933, 279.714181)"><g><path d="M 0.796875 0 L 0.796875 -0.71875 C 1.304688 -0.769531 1.6875 -0.835938 1.9375 -0.921875 C 2.1875 -1.015625 2.347656 -1.191406 2.421875 -1.453125 C 2.492188 -1.710938 2.53125 -2.113281 2.53125 -2.65625 L 2.53125 -10.5 C 2.53125 -11.082031 2.492188 -11.5 2.421875 -11.75 C 2.347656 -12.007812 2.195312 -12.179688 1.96875 -12.265625 C 1.738281 -12.359375 1.390625 -12.421875 0.921875 -12.453125 L 0.921875 -13.203125 L 6.1875 -13.203125 C 6.957031 -13.203125 7.625 -13.140625 8.1875 -13.015625 C 8.757812 -12.890625 9.25 -12.679688 9.65625 -12.390625 C 10.082031 -12.097656 10.421875 -11.695312 10.671875 -11.1875 C 10.929688 -10.675781 11.0625 -10.09375 11.0625 -9.4375 C 11.0625 -8.539062 10.867188 -7.796875 10.484375 -7.203125 C 10.097656 -6.609375 9.59375 -6.15625 8.96875 -5.84375 C 8.351562 -5.53125 7.703125 -5.328125 7.015625 -5.234375 C 6.867188 -5.222656 6.71875 -5.210938 6.5625 -5.203125 C 6.414062 -5.191406 6.28125 -5.1875 6.15625 -5.1875 L 4.75 -5.5625 L 4.75 -2.65625 C 4.75 -2.101562 4.789062 -1.691406 4.875 -1.421875 C 4.957031 -1.160156 5.132812 -0.988281 5.40625 -0.90625 C 5.6875 -0.832031 6.117188 -0.769531 6.703125 -0.71875 L 6.703125 0 Z M 6.03125 -6.15625 C 6.351562 -6.15625 6.710938 -6.242188 7.109375 -6.421875 C 7.503906 -6.597656 7.847656 -6.914062 8.140625 -7.375 C 8.429688 -7.84375 8.578125 -8.5 8.578125 -9.34375 C 8.578125 -10.09375 8.441406 -10.6875 8.171875 -11.125 C 7.910156 -11.570312 7.570312 -11.894531 7.15625 -12.09375 C 6.738281 -12.289062 6.304688 -12.390625 5.859375 -12.390625 C 5.378906 -12.390625 5.082031 -12.320312 4.96875 -12.1875 C 4.820312 -12.050781 4.75 -11.796875 4.75 -11.421875 L 4.75 -6.375 C 4.882812 -6.320312 5.0625 -6.269531 5.28125 -6.21875 C 5.507812 -6.175781 5.757812 -6.15625 6.03125 -6.15625 Z M 6.03125 -6.15625 "/></g></g></g><g fill="#ffffff" fill-opacity="1"><g transform="translate(146.24683, 279.714181)"><g><path d="M 5.28125 0.234375 C 4.28125 0.234375 3.4375 0.015625 2.75 -0.421875 C 2.070312 -0.867188 1.554688 -1.4375 1.203125 -2.125 C 0.859375 -2.820312 0.6875 -3.546875 0.6875 -4.296875 C 0.6875 -5.140625 0.828125 -5.875 1.109375 -6.5 C 1.398438 -7.125 1.773438 -7.640625 2.234375 -8.046875 C 2.691406 -8.460938 3.1875 -8.769531 3.71875 -8.96875 C 4.257812 -9.164062 4.785156 -9.265625 5.296875 -9.265625 C 6.191406 -9.265625 6.976562 -9.054688 7.65625 -8.640625 C 8.332031 -8.222656 8.859375 -7.664062 9.234375 -6.96875 C 9.609375 -6.269531 9.796875 -5.5 9.796875 -4.65625 C 9.796875 -3.5625 9.570312 -2.648438 9.125 -1.921875 C 8.675781 -1.203125 8.101562 -0.660156 7.40625 -0.296875 C 6.71875 0.0546875 6.007812 0.234375 5.28125 0.234375 Z M 5.484375 -0.578125 C 5.804688 -0.578125 6.101562 -0.675781 6.375 -0.875 C 6.65625 -1.070312 6.882812 -1.429688 7.0625 -1.953125 C 7.238281 -2.472656 7.328125 -3.203125 7.328125 -4.140625 C 7.328125 -5.429688 7.128906 -6.472656 6.734375 -7.265625 C 6.347656 -8.054688 5.789062 -8.453125 5.0625 -8.453125 C 4.5625 -8.453125 4.113281 -8.160156 3.71875 -7.578125 C 3.320312 -6.992188 3.125 -6.132812 3.125 -5 C 3.125 -4.15625 3.21875 -3.398438 3.40625 -2.734375 C 3.601562 -2.066406 3.878906 -1.539062 4.234375 -1.15625 C 4.597656 -0.769531 5.015625 -0.578125 5.484375 -0.578125 Z M 5.484375 -0.578125 "/></g></g></g><g fill="#ffffff" fill-opacity="1"><g transform="translate(156.694965, 279.714181)"><g><path d="M 0.265625 0 L 0.265625 -0.6875 C 0.671875 -0.738281 0.972656 -0.800781 1.171875 -0.875 C 1.367188 -0.945312 1.5 -1.082031 1.5625 -1.28125 C 1.625 -1.476562 1.65625 -1.789062 1.65625 -2.21875 L 1.65625 -11.53125 C 1.65625 -11.957031 1.628906 -12.257812 1.578125 -12.4375 C 1.523438 -12.625 1.40625 -12.742188 1.21875 -12.796875 C 1.039062 -12.859375 0.753906 -12.910156 0.359375 -12.953125 L 0.359375 -13.59375 C 0.921875 -13.664062 1.519531 -13.765625 2.15625 -13.890625 C 2.789062 -14.015625 3.34375 -14.148438 3.8125 -14.296875 L 3.8125 -2.21875 C 3.8125 -1.789062 3.835938 -1.472656 3.890625 -1.265625 C 3.953125 -1.066406 4.082031 -0.929688 4.28125 -0.859375 C 4.476562 -0.785156 4.789062 -0.726562 5.21875 -0.6875 L 5.21875 0 Z M 0.265625 0 "/></g></g></g><g fill="#ffffff" fill-opacity="1"><g transform="translate(162.171993, 279.714181)"><g><path d="M 0.640625 0 L 0.640625 -0.6875 C 1.035156 -0.738281 1.328125 -0.800781 1.515625 -0.875 C 1.703125 -0.945312 1.828125 -1.085938 1.890625 -1.296875 C 1.953125 -1.515625 1.984375 -1.851562 1.984375 -2.3125 L 1.984375 -6.34375 C 1.984375 -6.78125 1.957031 -7.09375 1.90625 -7.28125 C 1.851562 -7.46875 1.738281 -7.597656 1.5625 -7.671875 C 1.394531 -7.742188 1.128906 -7.8125 0.765625 -7.875 L 0.765625 -8.515625 C 1.953125 -8.660156 3.078125 -8.910156 4.140625 -9.265625 L 4.140625 -2.3125 C 4.140625 -1.851562 4.164062 -1.515625 4.21875 -1.296875 C 4.269531 -1.085938 4.394531 -0.945312 4.59375 -0.875 C 4.789062 -0.800781 5.09375 -0.738281 5.5 -0.6875 L 5.5 0 Z M 2.90625 -10.640625 C 2.5625 -10.640625 2.257812 -10.769531 2 -11.03125 C 1.738281 -11.289062 1.609375 -11.585938 1.609375 -11.921875 C 1.609375 -12.304688 1.738281 -12.625 2 -12.875 C 2.257812 -13.125 2.566406 -13.25 2.921875 -13.25 C 3.285156 -13.25 3.585938 -13.125 3.828125 -12.875 C 4.078125 -12.625 4.203125 -12.304688 4.203125 -11.921875 C 4.203125 -11.585938 4.078125 -11.289062 3.828125 -11.03125 C 3.585938 -10.769531 3.28125 -10.640625 2.90625 -10.640625 Z M 2.90625 -10.640625 "/></g></g></g><g fill="#ffffff" fill-opacity="1"><g transform="translate(167.956958, 279.714181)"><g><path d="M 4 0.234375 C 3.300781 0.234375 2.753906 0.0351562 2.359375 -0.359375 C 1.960938 -0.765625 1.765625 -1.40625 1.765625 -2.28125 L 1.765625 -8.015625 L 0.4375 -8.015625 L 0.359375 -8.265625 L 0.921875 -9.015625 L 1.765625 -9.015625 L 1.765625 -10.421875 L 3.625 -11.921875 L 3.9375 -11.8125 L 3.9375 -9.015625 L 6.078125 -9.015625 C 6.171875 -8.910156 6.207031 -8.738281 6.1875 -8.5 C 6.164062 -8.257812 6.078125 -8.097656 5.921875 -8.015625 L 3.9375 -8.015625 L 3.9375 -2.984375 C 3.9375 -2.460938 4 -2.070312 4.125 -1.8125 C 4.25 -1.5625 4.398438 -1.390625 4.578125 -1.296875 C 4.765625 -1.210938 4.929688 -1.171875 5.078125 -1.171875 C 5.285156 -1.171875 5.488281 -1.195312 5.6875 -1.25 C 5.882812 -1.3125 6.054688 -1.378906 6.203125 -1.453125 L 6.40625 -0.71875 L 4.890625 0 C 4.492188 0.15625 4.195312 0.234375 4 0.234375 Z M 4 0.234375 "/></g></g></g><g fill="#ffffff" fill-opacity="1"><g transform="translate(174.555781, 279.714181)"><g><path d="M 0.640625 0 L 0.640625 -0.6875 C 1.035156 -0.738281 1.328125 -0.800781 1.515625 -0.875 C 1.703125 -0.945312 1.828125 -1.085938 1.890625 -1.296875 C 1.953125 -1.515625 1.984375 -1.851562 1.984375 -2.3125 L 1.984375 -6.34375 C 1.984375 -6.78125 1.957031 -7.09375 1.90625 -7.28125 C 1.851562 -7.46875 1.738281 -7.597656 1.5625 -7.671875 C 1.394531 -7.742188 1.128906 -7.8125 0.765625 -7.875 L 0.765625 -8.515625 C 1.953125 -8.660156 3.078125 -8.910156 4.140625 -9.265625 L 4.140625 -2.3125 C 4.140625 -1.851562 4.164062 -1.515625 4.21875 -1.296875 C 4.269531 -1.085938 4.394531 -0.945312 4.59375 -0.875 C 4.789062 -0.800781 5.09375 -0.738281 5.5 -0.6875 L 5.5 0 Z M 2.90625 -10.640625 C 2.5625 -10.640625 2.257812 -10.769531 2 -11.03125 C 1.738281 -11.289062 1.609375 -11.585938 1.609375 -11.921875 C 1.609375 -12.304688 1.738281 -12.625 2 -12.875 C 2.257812 -13.125 2.566406 -13.25 2.921875 -13.25 C 3.285156 -13.25 3.585938 -13.125 3.828125 -12.875 C 4.078125 -12.625 4.203125 -12.304688 4.203125 -11.921875 C 4.203125 -11.585938 4.078125 -11.289062 3.828125 -11.03125 C 3.585938 -10.769531 3.28125 -10.640625 2.90625 -10.640625 Z M 2.90625 -10.640625 "/></g></g></g><g fill="#ffffff" fill-opacity="1"><g transform="translate(180.340746, 279.714181)"><g><path d="M 4.921875 0.234375 C 4.046875 0.234375 3.285156 0.03125 2.640625 -0.375 C 2.003906 -0.78125 1.519531 -1.3125 1.1875 -1.96875 C 0.851562 -2.632812 0.6875 -3.34375 0.6875 -4.09375 C 0.6875 -4.851562 0.863281 -5.570312 1.21875 -6.25 C 1.582031 -6.9375 2.085938 -7.53125 2.734375 -8.03125 C 3.328125 -8.46875 3.914062 -8.78125 4.5 -8.96875 C 5.09375 -9.164062 5.585938 -9.265625 5.984375 -9.265625 C 6.367188 -9.265625 6.71875 -9.210938 7.03125 -9.109375 C 7.34375 -9.003906 7.582031 -8.882812 7.75 -8.75 C 7.894531 -8.65625 7.988281 -8.546875 8.03125 -8.421875 C 8.070312 -8.296875 8.09375 -8.164062 8.09375 -8.03125 C 8.09375 -7.75 8 -7.5 7.8125 -7.28125 C 7.625 -7.070312 7.453125 -6.96875 7.296875 -6.96875 C 7.179688 -6.96875 7.046875 -7.039062 6.890625 -7.1875 C 6.523438 -7.53125 6.175781 -7.773438 5.84375 -7.921875 C 5.507812 -8.078125 5.191406 -8.15625 4.890625 -8.15625 C 4.359375 -8.15625 3.882812 -7.898438 3.46875 -7.390625 C 3.0625 -6.878906 2.859375 -6.101562 2.859375 -5.0625 C 2.859375 -4.375 2.957031 -3.796875 3.15625 -3.328125 C 3.351562 -2.867188 3.601562 -2.5 3.90625 -2.21875 C 4.207031 -1.9375 4.519531 -1.738281 4.84375 -1.625 C 5.164062 -1.507812 5.453125 -1.453125 5.703125 -1.453125 C 6.128906 -1.453125 6.507812 -1.515625 6.84375 -1.640625 C 7.175781 -1.773438 7.550781 -2.023438 7.96875 -2.390625 L 8.375 -1.875 C 7.925781 -1.257812 7.390625 -0.753906 6.765625 -0.359375 C 6.140625 0.0351562 5.523438 0.234375 4.921875 0.234375 Z M 4.921875 0.234375 "/></g></g></g><g fill="#ffffff" fill-opacity="1"><g transform="translate(188.919214, 279.714181)"><g><path d="M 3.34375 0.234375 C 2.8125 0.234375 2.347656 0.113281 1.953125 -0.125 C 1.554688 -0.375 1.25 -0.695312 1.03125 -1.09375 C 0.8125 -1.488281 0.703125 -1.898438 0.703125 -2.328125 C 0.703125 -2.859375 0.832031 -3.28125 1.09375 -3.59375 C 1.363281 -3.90625 1.769531 -4.164062 2.3125 -4.375 C 2.707031 -4.507812 3.117188 -4.65625 3.546875 -4.8125 C 3.984375 -4.976562 4.382812 -5.140625 4.75 -5.296875 C 5.113281 -5.460938 5.367188 -5.609375 5.515625 -5.734375 L 5.515625 -6.1875 C 5.515625 -6.832031 5.382812 -7.335938 5.125 -7.703125 C 4.875 -8.066406 4.53125 -8.25 4.09375 -8.25 C 3.78125 -8.25 3.515625 -8.125 3.296875 -7.875 C 3.078125 -7.59375 2.890625 -7.140625 2.734375 -6.515625 C 2.671875 -6.296875 2.570312 -6.140625 2.4375 -6.046875 C 2.3125 -5.960938 2.160156 -5.921875 1.984375 -5.921875 C 1.742188 -5.921875 1.492188 -6.015625 1.234375 -6.203125 C 0.984375 -6.390625 0.859375 -6.625 0.859375 -6.90625 C 0.859375 -7.070312 0.914062 -7.222656 1.03125 -7.359375 C 1.144531 -7.492188 1.316406 -7.644531 1.546875 -7.8125 C 1.878906 -8.039062 2.347656 -8.3125 2.953125 -8.625 C 3.566406 -8.9375 4.164062 -9.148438 4.75 -9.265625 C 5.507812 -9.265625 6.140625 -9.054688 6.640625 -8.640625 C 7.035156 -8.316406 7.300781 -7.945312 7.4375 -7.53125 C 7.570312 -7.113281 7.640625 -6.632812 7.640625 -6.09375 L 7.640625 -2.578125 C 7.640625 -2.109375 7.707031 -1.785156 7.84375 -1.609375 C 7.976562 -1.429688 8.117188 -1.34375 8.265625 -1.34375 C 8.398438 -1.34375 8.53125 -1.363281 8.65625 -1.40625 C 8.78125 -1.445312 8.894531 -1.492188 9 -1.546875 L 9.21875 -0.859375 L 7.1875 0.234375 C 6.96875 0.234375 6.765625 0.191406 6.578125 0.109375 C 6.390625 0.0351562 6.226562 -0.0507812 6.09375 -0.15625 C 5.957031 -0.289062 5.851562 -0.425781 5.78125 -0.5625 C 5.707031 -0.695312 5.644531 -0.832031 5.59375 -0.96875 C 5.195312 -0.707031 4.785156 -0.441406 4.359375 -0.171875 C 3.929688 0.0976562 3.59375 0.234375 3.34375 0.234375 Z M 4.3125 -1.203125 C 4.519531 -1.203125 4.726562 -1.253906 4.9375 -1.359375 C 5.15625 -1.460938 5.347656 -1.585938 5.515625 -1.734375 L 5.546875 -4.890625 C 5.328125 -4.785156 5.070312 -4.660156 4.78125 -4.515625 C 4.5 -4.378906 4.253906 -4.253906 4.046875 -4.140625 C 3.710938 -3.972656 3.453125 -3.78125 3.265625 -3.5625 C 3.078125 -3.351562 2.984375 -3.078125 2.984375 -2.734375 C 2.984375 -2.203125 3.132812 -1.8125 3.4375 -1.5625 C 3.738281 -1.320312 4.03125 -1.203125 4.3125 -1.203125 Z M 4.3125 -1.203125 "/></g></g></g><g fill="#ffffff" fill-opacity="1"><g transform="translate(198.201562, 279.714181)"><g><path d="M 0.265625 0 L 0.265625 -0.6875 C 0.671875 -0.738281 0.972656 -0.800781 1.171875 -0.875 C 1.367188 -0.945312 1.5 -1.082031 1.5625 -1.28125 C 1.625 -1.476562 1.65625 -1.789062 1.65625 -2.21875 L 1.65625 -11.53125 C 1.65625 -11.957031 1.628906 -12.257812 1.578125 -12.4375 C 1.523438 -12.625 1.40625 -12.742188 1.21875 -12.796875 C 1.039062 -12.859375 0.753906 -12.910156 0.359375 -12.953125 L 0.359375 -13.59375 C 0.921875 -13.664062 1.519531 -13.765625 2.15625 -13.890625 C 2.789062 -14.015625 3.34375 -14.148438 3.8125 -14.296875 L 3.8125 -2.21875 C 3.8125 -1.789062 3.835938 -1.472656 3.890625 -1.265625 C 3.953125 -1.066406 4.082031 -0.929688 4.28125 -0.859375 C 4.476562 -0.785156 4.789062 -0.726562 5.21875 -0.6875 L 5.21875 0 Z M 0.265625 0 "/></g></g></g><g fill="#ffffff" fill-opacity="1"><g transform="translate(203.67859, 279.714181)"><g/></g></g><g fill="#ffffff" fill-opacity="1"><g transform="translate(208.077801, 279.714181)"><g><path d="M 0.6875 0 L 0.6875 -0.75 C 1.226562 -0.789062 1.625 -0.851562 1.875 -0.9375 C 2.132812 -1.019531 2.304688 -1.191406 2.390625 -1.453125 C 2.472656 -1.710938 2.515625 -2.125 2.515625 -2.6875 L 2.515625 -10.515625 C 2.515625 -11.085938 2.472656 -11.5 2.390625 -11.75 C 2.316406 -12.007812 2.164062 -12.179688 1.9375 -12.265625 C 1.71875 -12.359375 1.359375 -12.421875 0.859375 -12.453125 L 0.859375 -13.203125 L 6.59375 -13.203125 C 7.851562 -13.203125 8.960938 -13.066406 9.921875 -12.796875 C 10.878906 -12.535156 11.675781 -12.09375 12.3125 -11.46875 C 12.800781 -11 13.207031 -10.390625 13.53125 -9.640625 C 13.851562 -8.898438 14.015625 -8.054688 14.015625 -7.109375 C 14.015625 -5.878906 13.796875 -4.816406 13.359375 -3.921875 C 12.929688 -3.023438 12.328125 -2.28125 11.546875 -1.6875 C 10.828125 -1.101562 9.960938 -0.675781 8.953125 -0.40625 C 7.953125 -0.132812 6.832031 0 5.59375 0 Z M 6.640625 -0.90625 C 7.648438 -0.90625 8.507812 -1.148438 9.21875 -1.640625 C 9.9375 -2.128906 10.484375 -2.816406 10.859375 -3.703125 C 11.242188 -4.585938 11.4375 -5.613281 11.4375 -6.78125 C 11.4375 -7.757812 11.28125 -8.644531 10.96875 -9.4375 C 10.65625 -10.226562 10.203125 -10.851562 9.609375 -11.3125 C 8.765625 -12.007812 7.6875 -12.359375 6.375 -12.359375 C 6 -12.359375 5.695312 -12.332031 5.46875 -12.28125 C 5.25 -12.226562 5.097656 -12.164062 5.015625 -12.09375 C 4.910156 -12.019531 4.847656 -11.898438 4.828125 -11.734375 C 4.804688 -11.566406 4.796875 -11.320312 4.796875 -11 L 4.796875 -2.796875 C 4.796875 -2.078125 4.925781 -1.582031 5.1875 -1.3125 C 5.457031 -1.039062 5.941406 -0.90625 6.640625 -0.90625 Z M 6.640625 -0.90625 "/></g></g></g><g fill="#ffffff" fill-opacity="1"><g transform="translate(223.013141, 279.714181)"><g><path d="M 3.34375 0.234375 C 2.8125 0.234375 2.347656 0.113281 1.953125 -0.125 C 1.554688 -0.375 1.25 -0.695312 1.03125 -1.09375 C 0.8125 -1.488281 0.703125 -1.898438 0.703125 -2.328125 C 0.703125 -2.859375 0.832031 -3.28125 1.09375 -3.59375 C 1.363281 -3.90625 1.769531 -4.164062 2.3125 -4.375 C 2.707031 -4.507812 3.117188 -4.65625 3.546875 -4.8125 C 3.984375 -4.976562 4.382812 -5.140625 4.75 -5.296875 C 5.113281 -5.460938 5.367188 -5.609375 5.515625 -5.734375 L 5.515625 -6.1875 C 5.515625 -6.832031 5.382812 -7.335938 5.125 -7.703125 C 4.875 -8.066406 4.53125 -8.25 4.09375 -8.25 C 3.78125 -8.25 3.515625 -8.125 3.296875 -7.875 C 3.078125 -7.59375 2.890625 -7.140625 2.734375 -6.515625 C 2.671875 -6.296875 2.570312 -6.140625 2.4375 -6.046875 C 2.3125 -5.960938 2.160156 -5.921875 1.984375 -5.921875 C 1.742188 -5.921875 1.492188 -6.015625 1.234375 -6.203125 C 0.984375 -6.390625 0.859375 -6.625 0.859375 -6.90625 C 0.859375 -7.070312 0.914062 -7.222656 1.03125 -7.359375 C 1.144531 -7.492188 1.316406 -7.644531 1.546875 -7.8125 C 1.878906 -8.039062 2.347656 -8.3125 2.953125 -8.625 C 3.566406 -8.9375 4.164062 -9.148438 4.75 -9.265625 C 5.507812 -9.265625 6.140625 -9.054688 6.640625 -8.640625 C 7.035156 -8.316406 7.300781 -7.945312 7.4375 -7.53125 C 7.570312 -7.113281 7.640625 -6.632812 7.640625 -6.09375 L 7.640625 -2.578125 C 7.640625 -2.109375 7.707031 -1.785156 7.84375 -1.609375 C 7.976562 -1.429688 8.117188 -1.34375 8.265625 -1.34375 C 8.398438 -1.34375 8.53125 -1.363281 8.65625 -1.40625 C 8.78125 -1.445312 8.894531 -1.492188 9 -1.546875 L 9.21875 -0.859375 L 7.1875 0.234375 C 6.96875 0.234375 6.765625 0.191406 6.578125 0.109375 C 6.390625 0.0351562 6.226562 -0.0507812 6.09375 -0.15625 C 5.957031 -0.289062 5.851562 -0.425781 5.78125 -0.5625 C 5.707031 -0.695312 5.644531 -0.832031 5.59375 -0.96875 C 5.195312 -0.707031 4.785156 -0.441406 4.359375 -0.171875 C 3.929688 0.0976562 3.59375 0.234375 3.34375 0.234375 Z M 4.3125 -1.203125 C 4.519531 -1.203125 4.726562 -1.253906 4.9375 -1.359375 C 5.15625 -1.460938 5.347656 -1.585938 5.515625 -1.734375 L 5.546875 -4.890625 C 5.328125 -4.785156 5.070312 -4.660156 4.78125 -4.515625 C 4.5 -4.378906 4.253906 -4.253906 4.046875 -4.140625 C 3.710938 -3.972656 3.453125 -3.78125 3.265625 -3.5625 C 3.078125 -3.351562 2.984375 -3.078125 2.984375 -2.734375 C 2.984375 -2.203125 3.132812 -1.8125 3.4375 -1.5625 C 3.738281 -1.320312 4.03125 -1.203125 4.3125 -1.203125 Z M 4.3125 -1.203125 "/></g></g></g><g fill="#ffffff" fill-opacity="1"><g transform="translate(232.295489, 279.714181)"><g><path d="M 4 0.234375 C 3.300781 0.234375 2.753906 0.0351562 2.359375 -0.359375 C 1.960938 -0.765625 1.765625 -1.40625 1.765625 -2.28125 L 1.765625 -8.015625 L 0.4375 -8.015625 L 0.359375 -8.265625 L 0.921875 -9.015625 L 1.765625 -9.015625 L 1.765625 -10.421875 L 3.625 -11.921875 L 3.9375 -11.8125 L 3.9375 -9.015625 L 6.078125 -9.015625 C 6.171875 -8.910156 6.207031 -8.738281 6.1875 -8.5 C 6.164062 -8.257812 6.078125 -8.097656 5.921875 -8.015625 L 3.9375 -8.015625 L 3.9375 -2.984375 C 3.9375 -2.460938 4 -2.070312 4.125 -1.8125 C 4.25 -1.5625 4.398438 -1.390625 4.578125 -1.296875 C 4.765625 -1.210938 4.929688 -1.171875 5.078125 -1.171875 C 5.285156 -1.171875 5.488281 -1.195312 5.6875 -1.25 C 5.882812 -1.3125 6.054688 -1.378906 6.203125 -1.453125 L 6.40625 -0.71875 L 4.890625 0 C 4.492188 0.15625 4.195312 0.234375 4 0.234375 Z M 4 0.234375 "/></g></g></g><g fill="#ffffff" fill-opacity="1"><g transform="translate(238.894312, 279.714181)"><g><path d="M 3.34375 0.234375 C 2.8125 0.234375 2.347656 0.113281 1.953125 -0.125 C 1.554688 -0.375 1.25 -0.695312 1.03125 -1.09375 C 0.8125 -1.488281 0.703125 -1.898438 0.703125 -2.328125 C 0.703125 -2.859375 0.832031 -3.28125 1.09375 -3.59375 C 1.363281 -3.90625 1.769531 -4.164062 2.3125 -4.375 C 2.707031 -4.507812 3.117188 -4.65625 3.546875 -4.8125 C 3.984375 -4.976562 4.382812 -5.140625 4.75 -5.296875 C 5.113281 -5.460938 5.367188 -5.609375 5.515625 -5.734375 L 5.515625 -6.1875 C 5.515625 -6.832031 5.382812 -7.335938 5.125 -7.703125 C 4.875 -8.066406 4.53125 -8.25 4.09375 -8.25 C 3.78125 -8.25 3.515625 -8.125 3.296875 -7.875 C 3.078125 -7.59375 2.890625 -7.140625 2.734375 -6.515625 C 2.671875 -6.296875 2.570312 -6.140625 2.4375 -6.046875 C 2.3125 -5.960938 2.160156 -5.921875 1.984375 -5.921875 C 1.742188 -5.921875 1.492188 -6.015625 1.234375 -6.203125 C 0.984375 -6.390625 0.859375 -6.625 0.859375 -6.90625 C 0.859375 -7.070312 0.914062 -7.222656 1.03125 -7.359375 C 1.144531 -7.492188 1.316406 -7.644531 1.546875 -7.8125 C 1.878906 -8.039062 2.347656 -8.3125 2.953125 -8.625 C 3.566406 -8.9375 4.164062 -9.148438 4.75 -9.265625 C 5.507812 -9.265625 6.140625 -9.054688 6.640625 -8.640625 C 7.035156 -8.316406 7.300781 -7.945312 7.4375 -7.53125 C 7.570312 -7.113281 7.640625 -6.632812 7.640625 -6.09375 L 7.640625 -2.578125 C 7.640625 -2.109375 7.707031 -1.785156 7.84375 -1.609375 C 7.976562 -1.429688 8.117188 -1.34375 8.265625 -1.34375 C 8.398438 -1.34375 8.53125 -1.363281 8.65625 -1.40625 C 8.78125 -1.445312 8.894531 -1.492188 9 -1.546875 L 9.21875 -0.859375 L 7.1875 0.234375 C 6.96875 0.234375 6.765625 0.191406 6.578125 0.109375 C 6.390625 0.0351562 6.226562 -0.0507812 6.09375 -0.15625 C 5.957031 -0.289062 5.851562 -0.425781 5.78125 -0.5625 C 5.707031 -0.695312 5.644531 -0.832031 5.59375 -0.96875 C 5.195312 -0.707031 4.785156 -0.441406 4.359375 -0.171875 C 3.929688 0.0976562 3.59375 0.234375 3.34375 0.234375 Z M 4.3125 -1.203125 C 4.519531 -1.203125 4.726562 -1.253906 4.9375 -1.359375 C 5.15625 -1.460938 5.347656 -1.585938 5.515625 -1.734375 L 5.546875 -4.890625 C 5.328125 -4.785156 5.070312 -4.660156 4.78125 -4.515625 C 4.5 -4.378906 4.253906 -4.253906 4.046875 -4.140625 C 3.710938 -3.972656 3.453125 -3.78125 3.265625 -3.5625 C 3.078125 -3.351562 2.984375 -3.078125 2.984375 -2.734375 C 2.984375 -2.203125 3.132812 -1.8125 3.4375 -1.5625 C 3.738281 -1.320312 4.03125 -1.203125 4.3125 -1.203125 Z M 4.3125 -1.203125 "/></g></g></g><g fill="#ffffff" fill-opacity="1"><g transform="translate(248.17666, 279.714181)"><g/></g></g><g fill="#ffffff" fill-opacity="1"><g transform="translate(252.575872, 279.714181)"><g><path d="M 0.796875 0 L 0.796875 -0.71875 C 1.304688 -0.769531 1.6875 -0.835938 1.9375 -0.921875 C 2.1875 -1.015625 2.347656 -1.191406 2.421875 -1.453125 C 2.492188 -1.710938 2.53125 -2.113281 2.53125 -2.65625 L 2.53125 -10.5 C 2.53125 -11.082031 2.492188 -11.5 2.421875 -11.75 C 2.347656 -12.007812 2.195312 -12.179688 1.96875 -12.265625 C 1.738281 -12.359375 1.390625 -12.421875 0.921875 -12.453125 L 0.921875 -13.203125 L 6.1875 -13.203125 C 6.957031 -13.203125 7.625 -13.140625 8.1875 -13.015625 C 8.757812 -12.890625 9.25 -12.679688 9.65625 -12.390625 C 10.082031 -12.097656 10.421875 -11.695312 10.671875 -11.1875 C 10.929688 -10.675781 11.0625 -10.09375 11.0625 -9.4375 C 11.0625 -8.539062 10.867188 -7.796875 10.484375 -7.203125 C 10.097656 -6.609375 9.59375 -6.15625 8.96875 -5.84375 C 8.351562 -5.53125 7.703125 -5.328125 7.015625 -5.234375 C 6.867188 -5.222656 6.71875 -5.210938 6.5625 -5.203125 C 6.414062 -5.191406 6.28125 -5.1875 6.15625 -5.1875 L 4.75 -5.5625 L 4.75 -2.65625 C 4.75 -2.101562 4.789062 -1.691406 4.875 -1.421875 C 4.957031 -1.160156 5.132812 -0.988281 5.40625 -0.90625 C 5.6875 -0.832031 6.117188 -0.769531 6.703125 -0.71875 L 6.703125 0 Z M 6.03125 -6.15625 C 6.351562 -6.15625 6.710938 -6.242188 7.109375 -6.421875 C 7.503906 -6.597656 7.847656 -6.914062 8.140625 -7.375 C 8.429688 -7.84375 8.578125 -8.5 8.578125 -9.34375 C 8.578125 -10.09375 8.441406 -10.6875 8.171875 -11.125 C 7.910156 -11.570312 7.570312 -11.894531 7.15625 -12.09375 C 6.738281 -12.289062 6.304688 -12.390625 5.859375 -12.390625 C 5.378906 -12.390625 5.082031 -12.320312 4.96875 -12.1875 C 4.820312 -12.050781 4.75 -11.796875 4.75 -11.421875 L 4.75 -6.375 C 4.882812 -6.320312 5.0625 -6.269531 5.28125 -6.21875 C 5.507812 -6.175781 5.757812 -6.15625 6.03125 -6.15625 Z M 6.03125 -6.15625 "/></g></g></g><g fill="#ffffff" fill-opacity="1"><g transform="translate(264.365769, 279.714181)"><g><path d="M 0.640625 0 L 0.640625 -0.6875 C 1.035156 -0.726562 1.328125 -0.785156 1.515625 -0.859375 C 1.703125 -0.929688 1.828125 -1.0625 1.890625 -1.25 C 1.953125 -1.445312 1.984375 -1.75 1.984375 -2.15625 L 1.984375 -6.453125 C 1.984375 -6.847656 1.957031 -7.128906 1.90625 -7.296875 C 1.851562 -7.472656 1.742188 -7.597656 1.578125 -7.671875 C 1.421875 -7.742188 1.164062 -7.8125 0.8125 -7.875 L 0.8125 -8.484375 C 1.394531 -8.566406 1.957031 -8.671875 2.5 -8.796875 C 3.050781 -8.929688 3.597656 -9.09375 4.140625 -9.28125 L 4.140625 -7.125 L 4.1875 -7.125 C 4.53125 -7.726562 4.90625 -8.234375 5.3125 -8.640625 C 5.71875 -9.054688 6.125 -9.265625 6.53125 -9.265625 C 6.914062 -9.265625 7.222656 -9.140625 7.453125 -8.890625 C 7.691406 -8.640625 7.8125 -8.359375 7.8125 -8.046875 C 7.8125 -7.753906 7.726562 -7.488281 7.5625 -7.25 C 7.40625 -7.019531 7.203125 -6.851562 6.953125 -6.75 C 6.816406 -6.695312 6.703125 -6.679688 6.609375 -6.703125 C 6.523438 -6.734375 6.445312 -6.78125 6.375 -6.84375 C 6.226562 -6.976562 6.082031 -7.078125 5.9375 -7.140625 C 5.800781 -7.203125 5.648438 -7.234375 5.484375 -7.234375 C 5.242188 -7.234375 5.003906 -7.128906 4.765625 -6.921875 C 4.535156 -6.722656 4.328125 -6.375 4.140625 -5.875 L 4.140625 -2.171875 C 4.140625 -1.765625 4.164062 -1.460938 4.21875 -1.265625 C 4.28125 -1.066406 4.425781 -0.929688 4.65625 -0.859375 C 4.894531 -0.785156 5.28125 -0.726562 5.8125 -0.6875 L 5.8125 0 Z M 0.640625 0 "/></g></g></g><g fill="#ffffff" fill-opacity="1"><g transform="translate(272.32835, 279.714181)"><g><path d="M 5.28125 0.234375 C 4.28125 0.234375 3.4375 0.015625 2.75 -0.421875 C 2.070312 -0.867188 1.554688 -1.4375 1.203125 -2.125 C 0.859375 -2.820312 0.6875 -3.546875 0.6875 -4.296875 C 0.6875 -5.140625 0.828125 -5.875 1.109375 -6.5 C 1.398438 -7.125 1.773438 -7.640625 2.234375 -8.046875 C 2.691406 -8.460938 3.1875 -8.769531 3.71875 -8.96875 C 4.257812 -9.164062 4.785156 -9.265625 5.296875 -9.265625 C 6.191406 -9.265625 6.976562 -9.054688 7.65625 -8.640625 C 8.332031 -8.222656 8.859375 -7.664062 9.234375 -6.96875 C 9.609375 -6.269531 9.796875 -5.5 9.796875 -4.65625 C 9.796875 -3.5625 9.570312 -2.648438 9.125 -1.921875 C 8.675781 -1.203125 8.101562 -0.660156 7.40625 -0.296875 C 6.71875 0.0546875 6.007812 0.234375 5.28125 0.234375 Z M 5.484375 -0.578125 C 5.804688 -0.578125 6.101562 -0.675781 6.375 -0.875 C 6.65625 -1.070312 6.882812 -1.429688 7.0625 -1.953125 C 7.238281 -2.472656 7.328125 -3.203125 7.328125 -4.140625 C 7.328125 -5.429688 7.128906 -6.472656 6.734375 -7.265625 C 6.347656 -8.054688 5.789062 -8.453125 5.0625 -8.453125 C 4.5625 -8.453125 4.113281 -8.160156 3.71875 -7.578125 C 3.320312 -6.992188 3.125 -6.132812 3.125 -5 C 3.125 -4.15625 3.21875 -3.398438 3.40625 -2.734375 C 3.601562 -2.066406 3.878906 -1.539062 4.234375 -1.15625 C 4.597656 -0.769531 5.015625 -0.578125 5.484375 -0.578125 Z M 5.484375 -0.578125 "/></g></g></g><g fill="#ffffff" fill-opacity="1"><g transform="translate(282.776485, 279.714181)"><g><path d="M 0.375 4.890625 C 0.226562 4.890625 0.0546875 4.789062 -0.140625 4.59375 C -0.335938 4.394531 -0.4375 4.140625 -0.4375 3.828125 C -0.4375 3.503906 -0.285156 3.320312 0.015625 3.28125 C 0.367188 3.21875 0.675781 3.144531 0.9375 3.0625 C 1.207031 2.988281 1.394531 2.878906 1.5 2.734375 C 1.65625 2.492188 1.769531 2.050781 1.84375 1.40625 C 1.90625 0.875 1.945312 0.300781 1.96875 -0.3125 C 1.988281 -0.9375 2 -1.628906 2 -2.390625 L 2 -6.25 C 2 -6.71875 1.972656 -7.050781 1.921875 -7.25 C 1.867188 -7.457031 1.75 -7.597656 1.5625 -7.671875 C 1.375 -7.742188 1.082031 -7.8125 0.6875 -7.875 L 0.6875 -8.515625 C 1.269531 -8.585938 1.859375 -8.6875 2.453125 -8.8125 C 3.046875 -8.945312 3.613281 -9.097656 4.15625 -9.265625 L 4.15625 -2.640625 C 4.15625 -1.910156 4.117188 -1.304688 4.046875 -0.828125 C 3.972656 -0.347656 3.832031 0.144531 3.625 0.65625 C 3.375 1.300781 3.070312 1.898438 2.71875 2.453125 C 2.375 3.015625 2.039062 3.484375 1.71875 3.859375 C 1.40625 4.234375 1.160156 4.488281 0.984375 4.625 C 0.859375 4.707031 0.753906 4.769531 0.671875 4.8125 C 0.585938 4.863281 0.488281 4.890625 0.375 4.890625 Z M 2.921875 -10.640625 C 2.585938 -10.640625 2.285156 -10.769531 2.015625 -11.03125 C 1.753906 -11.289062 1.625 -11.585938 1.625 -11.921875 C 1.625 -12.304688 1.753906 -12.625 2.015625 -12.875 C 2.285156 -13.125 2.597656 -13.25 2.953125 -13.25 C 3.296875 -13.25 3.59375 -13.125 3.84375 -12.875 C 4.09375 -12.625 4.21875 -12.304688 4.21875 -11.921875 C 4.21875 -11.585938 4.09375 -11.289062 3.84375 -11.03125 C 3.59375 -10.769531 3.285156 -10.640625 2.921875 -10.640625 Z M 2.921875 -10.640625 "/></g></g></g><g fill="#ffffff" fill-opacity="1"><g transform="translate(288.385485, 279.714181)"><g><path d="M 4.78125 0.234375 C 3.90625 0.234375 3.164062 0.0351562 2.5625 -0.359375 C 1.957031 -0.765625 1.492188 -1.296875 1.171875 -1.953125 C 0.847656 -2.617188 0.6875 -3.347656 0.6875 -4.140625 C 0.6875 -4.910156 0.820312 -5.609375 1.09375 -6.234375 C 1.375 -6.867188 1.722656 -7.394531 2.140625 -7.8125 C 2.554688 -8.25 3.03125 -8.597656 3.5625 -8.859375 C 4.09375 -9.128906 4.628906 -9.265625 5.171875 -9.265625 C 5.773438 -9.265625 6.316406 -9.109375 6.796875 -8.796875 C 7.285156 -8.492188 7.671875 -8.09375 7.953125 -7.59375 C 8.234375 -7.09375 8.367188 -6.5625 8.359375 -6 C 8.359375 -5.78125 8.320312 -5.609375 8.25 -5.484375 C 8.1875 -5.359375 8.046875 -5.285156 7.828125 -5.265625 C 7.710938 -5.242188 7.390625 -5.207031 6.859375 -5.15625 C 6.335938 -5.101562 5.710938 -5.054688 4.984375 -5.015625 C 4.253906 -4.972656 3.53125 -4.9375 2.8125 -4.90625 C 2.832031 -4.125 2.976562 -3.476562 3.25 -2.96875 C 3.519531 -2.457031 3.863281 -2.078125 4.28125 -1.828125 C 4.707031 -1.578125 5.15625 -1.453125 5.625 -1.453125 C 6.46875 -1.453125 7.222656 -1.757812 7.890625 -2.375 L 8.265625 -1.828125 C 7.859375 -1.265625 7.4375 -0.832031 7 -0.53125 C 6.5625 -0.238281 6.144531 -0.0390625 5.75 0.0625 C 5.363281 0.175781 5.039062 0.234375 4.78125 0.234375 Z M 2.90625 -5.890625 C 3.382812 -5.890625 3.851562 -5.894531 4.3125 -5.90625 C 4.78125 -5.925781 5.265625 -5.945312 5.765625 -5.96875 C 5.921875 -5.96875 6.03125 -5.992188 6.09375 -6.046875 C 6.164062 -6.109375 6.203125 -6.21875 6.203125 -6.375 C 6.210938 -6.894531 6.085938 -7.363281 5.828125 -7.78125 C 5.566406 -8.195312 5.207031 -8.40625 4.75 -8.40625 C 4.320312 -8.40625 3.9375 -8.179688 3.59375 -7.734375 C 3.25 -7.285156 3.019531 -6.671875 2.90625 -5.890625 Z M 2.90625 -5.890625 "/></g></g></g><g fill="#ffffff" fill-opacity="1"><g transform="translate(297.205916, 279.714181)"><g><path d="M 4.921875 0.234375 C 4.046875 0.234375 3.285156 0.03125 2.640625 -0.375 C 2.003906 -0.78125 1.519531 -1.3125 1.1875 -1.96875 C 0.851562 -2.632812 0.6875 -3.34375 0.6875 -4.09375 C 0.6875 -4.851562 0.863281 -5.570312 1.21875 -6.25 C 1.582031 -6.9375 2.085938 -7.53125 2.734375 -8.03125 C 3.328125 -8.46875 3.914062 -8.78125 4.5 -8.96875 C 5.09375 -9.164062 5.585938 -9.265625 5.984375 -9.265625 C 6.367188 -9.265625 6.71875 -9.210938 7.03125 -9.109375 C 7.34375 -9.003906 7.582031 -8.882812 7.75 -8.75 C 7.894531 -8.65625 7.988281 -8.546875 8.03125 -8.421875 C 8.070312 -8.296875 8.09375 -8.164062 8.09375 -8.03125 C 8.09375 -7.75 8 -7.5 7.8125 -7.28125 C 7.625 -7.070312 7.453125 -6.96875 7.296875 -6.96875 C 7.179688 -6.96875 7.046875 -7.039062 6.890625 -7.1875 C 6.523438 -7.53125 6.175781 -7.773438 5.84375 -7.921875 C 5.507812 -8.078125 5.191406 -8.15625 4.890625 -8.15625 C 4.359375 -8.15625 3.882812 -7.898438 3.46875 -7.390625 C 3.0625 -6.878906 2.859375 -6.101562 2.859375 -5.0625 C 2.859375 -4.375 2.957031 -3.796875 3.15625 -3.328125 C 3.351562 -2.867188 3.601562 -2.5 3.90625 -2.21875 C 4.207031 -1.9375 4.519531 -1.738281 4.84375 -1.625 C 5.164062 -1.507812 5.453125 -1.453125 5.703125 -1.453125 C 6.128906 -1.453125 6.507812 -1.515625 6.84375 -1.640625 C 7.175781 -1.773438 7.550781 -2.023438 7.96875 -2.390625 L 8.375 -1.875 C 7.925781 -1.257812 7.390625 -0.753906 6.765625 -0.359375 C 6.140625 0.0351562 5.523438 0.234375 4.921875 0.234375 Z M 4.921875 0.234375 "/></g></g></g><g fill="#ffffff" fill-opacity="1"><g transform="translate(305.784383, 279.714181)"><g><path d="M 4 0.234375 C 3.300781 0.234375 2.753906 0.0351562 2.359375 -0.359375 C 1.960938 -0.765625 1.765625 -1.40625 1.765625 -2.28125 L 1.765625 -8.015625 L 0.4375 -8.015625 L 0.359375 -8.265625 L 0.921875 -9.015625 L 1.765625 -9.015625 L 1.765625 -10.421875 L 3.625 -11.921875 L 3.9375 -11.8125 L 3.9375 -9.015625 L 6.078125 -9.015625 C 6.171875 -8.910156 6.207031 -8.738281 6.1875 -8.5 C 6.164062 -8.257812 6.078125 -8.097656 5.921875 -8.015625 L 3.9375 -8.015625 L 3.9375 -2.984375 C 3.9375 -2.460938 4 -2.070312 4.125 -1.8125 C 4.25 -1.5625 4.398438 -1.390625 4.578125 -1.296875 C 4.765625 -1.210938 4.929688 -1.171875 5.078125 -1.171875 C 5.285156 -1.171875 5.488281 -1.195312 5.6875 -1.25 C 5.882812 -1.3125 6.054688 -1.378906 6.203125 -1.453125 L 6.40625 -0.71875 L 4.890625 0 C 4.492188 0.15625 4.195312 0.234375 4 0.234375 Z M 4 0.234375 "/></g></g></g><g fill="#ffffff" fill-opacity="1"><g transform="translate(312.394422, 279.714181)"><g/></g></g></svg>