<svg xmlns="http://www.w3.org/2000/svg" xmlns:xlink="http://www.w3.org/1999/xlink" width="388" zoomAndPan="magnify" viewBox="0 0 291 56.249996" height="75" preserveAspectRatio="xMidYMid meet" version="1.0"><defs><g/><clipPath id="39de3d22a3"><path d="M 211.882812 34.992188 L 223.722656 34.992188 L 223.722656 46.832031 L 211.882812 46.832031 Z M 211.882812 34.992188 " clip-rule="nonzero"/></clipPath><clipPath id="d3203ad2e9"><path d="M 217 34.992188 L 223.722656 34.992188 L 223.722656 45 L 217 45 Z M 217 34.992188 " clip-rule="nonzero"/></clipPath><clipPath id="163070609e"><path d="M 72.832031 5.550781 L 121.683594 5.550781 L 121.683594 41 L 72.832031 41 Z M 72.832031 5.550781 " clip-rule="nonzero"/></clipPath></defs><g fill="#00694e" fill-opacity="1"><g transform="translate(54.070484, 46.402628)"><g><path d="M 20.953125 -9.5 L 39.78125 -9.5 L 39.78125 0 L 1.375 0 L 1.375 -4.09375 L 19.75 -30.109375 L 2.765625 -30.109375 L 2.765625 -39.609375 L 39.328125 -39.609375 L 39.328125 -35.53125 Z M 20.953125 -9.5 "/></g></g></g><g fill="#00694e" fill-opacity="1"><g transform="translate(95.63715, 46.402628)"><g><path d="M 26.484375 -39.609375 C 28.941406 -39.609375 31.128906 -39.039062 33.046875 -37.90625 C 34.960938 -36.78125 36.457031 -35.226562 37.53125 -33.25 C 38.613281 -31.269531 39.15625 -29.050781 39.15625 -26.59375 L 39.15625 -25.859375 C 39.15625 -23.398438 38.613281 -21.171875 37.53125 -19.171875 C 36.457031 -17.171875 34.960938 -15.601562 33.046875 -14.46875 C 31.128906 -13.34375 28.941406 -12.78125 26.484375 -12.78125 L 16.984375 -12.78125 L 16.984375 0 L 4.265625 0 L 4.265625 -39.609375 Z M 16.984375 -22.046875 L 22.21875 -22.046875 C 23.5625 -22.046875 24.566406 -22.390625 25.234375 -23.078125 C 25.910156 -23.773438 26.25 -24.71875 26.25 -25.90625 L 26.25 -26.375 C 26.25 -27.601562 25.910156 -28.550781 25.234375 -29.21875 C 24.566406 -29.894531 23.5625 -30.234375 22.21875 -30.234375 L 16.984375 -30.234375 Z M 16.984375 -22.046875 "/></g></g></g><g fill="#00694e" fill-opacity="1"><g transform="translate(137.203817, 46.402628)"><g><path d="M 21.421875 -39.609375 C 35.273438 -39.609375 42.203125 -33.007812 42.203125 -19.8125 C 42.203125 -6.601562 35.273438 0 21.421875 0 L 4.265625 0 L 4.265625 -39.609375 Z M 16.984375 -9.5 L 21.1875 -9.5 C 26.519531 -9.5 29.1875 -12.359375 29.1875 -18.078125 L 29.1875 -21.53125 C 29.1875 -27.25 26.519531 -30.109375 21.1875 -30.109375 L 16.984375 -30.109375 Z M 16.984375 -9.5 "/></g></g></g><g fill="#00694e" fill-opacity="1"><g transform="translate(181.994487, 46.402628)"><g><path d="M 26.484375 -39.609375 C 28.941406 -39.609375 31.128906 -39.039062 33.046875 -37.90625 C 34.960938 -36.78125 36.457031 -35.226562 37.53125 -33.25 C 38.613281 -31.269531 39.15625 -29.050781 39.15625 -26.59375 L 39.15625 -25.859375 C 39.15625 -23.398438 38.613281 -21.171875 37.53125 -19.171875 C 36.457031 -17.171875 34.960938 -15.601562 33.046875 -14.46875 C 31.128906 -13.34375 28.941406 -12.78125 26.484375 -12.78125 L 16.984375 -12.78125 L 16.984375 0 L 4.265625 0 L 4.265625 -39.609375 Z M 16.984375 -22.046875 L 22.21875 -22.046875 C 23.5625 -22.046875 24.566406 -22.390625 25.234375 -23.078125 C 25.910156 -23.773438 26.25 -24.71875 26.25 -25.90625 L 26.25 -26.375 C 26.25 -27.601562 25.910156 -28.550781 25.234375 -29.21875 C 24.566406 -29.894531 23.5625 -30.234375 22.21875 -30.234375 L 16.984375 -30.234375 Z M 16.984375 -22.046875 "/></g></g></g><g clip-path="url(#39de3d22a3)"><path fill="#00694e" d="M 223.574219 40.835938 C 223.574219 41.21875 223.535156 41.601562 223.460938 41.976562 C 223.386719 42.351562 223.273438 42.71875 223.128906 43.074219 C 222.980469 43.429688 222.800781 43.765625 222.585938 44.085938 C 222.375 44.402344 222.132812 44.699219 221.859375 44.96875 C 221.589844 45.242188 221.292969 45.484375 220.976562 45.695312 C 220.65625 45.910156 220.320312 46.089844 219.964844 46.238281 C 219.609375 46.382812 219.242188 46.496094 218.867188 46.570312 C 218.492188 46.644531 218.109375 46.683594 217.726562 46.683594 C 217.34375 46.683594 216.960938 46.644531 216.585938 46.570312 C 216.210938 46.496094 215.84375 46.382812 215.488281 46.238281 C 215.136719 46.089844 214.796875 45.910156 214.480469 45.695312 C 214.160156 45.484375 213.863281 45.242188 213.59375 44.96875 C 213.320312 44.699219 213.078125 44.402344 212.867188 44.085938 C 212.652344 43.765625 212.472656 43.429688 212.324219 43.074219 C 212.179688 42.71875 212.066406 42.351562 211.992188 41.976562 C 211.917969 41.601562 211.882812 41.21875 211.882812 40.835938 C 211.882812 40.453125 211.917969 40.074219 211.992188 39.695312 C 212.066406 39.320312 212.179688 38.953125 212.324219 38.597656 C 212.472656 38.246094 212.652344 37.90625 212.867188 37.589844 C 213.078125 37.269531 213.320312 36.972656 213.59375 36.703125 C 213.863281 36.429688 214.160156 36.1875 214.480469 35.976562 C 214.796875 35.761719 215.136719 35.582031 215.488281 35.4375 C 215.84375 35.289062 216.210938 35.179688 216.585938 35.101562 C 216.960938 35.027344 217.34375 34.992188 217.726562 34.992188 C 218.109375 34.992188 218.492188 35.027344 218.867188 35.101562 C 219.242188 35.179688 219.609375 35.289062 219.964844 35.4375 C 220.320312 35.582031 220.65625 35.761719 220.976562 35.976562 C 221.292969 36.1875 221.589844 36.429688 221.859375 36.703125 C 222.132812 36.972656 222.375 37.269531 222.585938 37.589844 C 222.800781 37.90625 222.980469 38.246094 223.128906 38.597656 C 223.273438 38.953125 223.386719 39.320312 223.460938 39.695312 C 223.535156 40.074219 223.574219 40.453125 223.574219 40.835938 Z M 223.574219 40.835938 " fill-opacity="1" fill-rule="nonzero"/></g><g clip-path="url(#d3203ad2e9)"><path fill="#ff3131" d="M 223.574219 40.835938 C 223.574219 40.453125 223.535156 40.074219 223.460938 39.695312 C 223.382812 39.320312 223.273438 38.953125 223.125 38.601562 C 222.980469 38.246094 222.796875 37.910156 222.585938 37.589844 C 222.371094 37.269531 222.128906 36.976562 221.859375 36.703125 C 221.585938 36.433594 221.292969 36.191406 220.972656 35.976562 C 220.652344 35.765625 220.316406 35.585938 219.964844 35.4375 C 219.609375 35.289062 219.242188 35.179688 218.867188 35.105469 C 218.492188 35.027344 218.109375 34.992188 217.726562 34.992188 L 217.726562 40.835938 L 221.855469 44.96875 C 222.40625 44.421875 222.828125 43.789062 223.128906 43.074219 C 223.425781 42.355469 223.574219 41.613281 223.574219 40.835938 Z M 223.574219 40.835938 " fill-opacity="1" fill-rule="nonzero"/></g><g clip-path="url(#163070609e)"><path fill="#ff3131" d="M 118.335938 5.574219 C 116.546875 5.574219 115.085938 7.035156 115.085938 8.828125 C 115.085938 9.730469 115.460938 10.550781 116.054688 11.144531 L 105.359375 28.015625 C 105.015625 27.882812 104.636719 27.816406 104.242188 27.816406 C 103.042969 27.816406 101.992188 28.472656 101.433594 29.441406 L 93.398438 26.863281 C 93.417969 26.765625 93.417969 26.667969 93.417969 26.550781 C 93.417969 24.761719 91.953125 23.300781 90.164062 23.300781 C 88.375 23.300781 86.910156 24.761719 86.910156 26.550781 C 86.910156 27.0625 87.027344 27.539062 87.238281 27.964844 L 78.15625 35.0625 C 77.597656 34.585938 76.875 34.304688 76.085938 34.304688 C 74.296875 34.304688 72.832031 35.769531 72.832031 37.558594 C 72.832031 39.347656 74.296875 40.8125 76.085938 40.8125 C 77.875 40.8125 79.339844 39.347656 79.339844 37.558594 C 79.339844 37.050781 79.222656 36.574219 79.011719 36.144531 L 88.09375 29.050781 C 88.652344 29.527344 89.375 29.804688 90.164062 29.804688 C 91.363281 29.804688 92.414062 29.148438 92.972656 28.179688 L 101.007812 30.757812 C 100.988281 30.855469 100.988281 30.953125 100.988281 31.070312 C 100.988281 32.859375 102.453125 34.320312 104.242188 34.320312 C 106.03125 34.320312 107.496094 32.859375 107.496094 31.070312 C 107.496094 30.167969 107.117188 29.34375 106.527344 28.753906 L 117.21875 11.882812 C 117.566406 12.015625 117.941406 12.078125 118.335938 12.078125 C 120.128906 12.078125 121.589844 10.617188 121.589844 8.828125 C 121.589844 7.019531 120.128906 5.574219 118.335938 5.574219 Z M 118.335938 5.574219 " fill-opacity="1" fill-rule="nonzero"/></g></svg>