<svg xmlns="http://www.w3.org/2000/svg" xmlns:xlink="http://www.w3.org/1999/xlink" width="500" zoomAndPan="magnify" viewBox="0 0 375 374.999991" height="500" preserveAspectRatio="xMidYMid meet" version="1.0"><defs><clipPath id="43383dc699"><path d="M 39 25 L 360 25 L 360 343 L 39 343 Z M 39 25 " clip-rule="nonzero"/></clipPath><clipPath id="81f061f8ca"><path d="M 187.480469 58.203125 C 224.472656 133.179688 360.109375 152.972656 359.324219 217.140625 C 358.460938 287.613281 302.621094 355.628906 170.28125 339.972656 C 84.230469 329.816406 40.796875 296.988281 39.097656 167.398438 C 37.394531 37.808594 151.984375 -13.789062 187.480469 58.203125 Z M 187.480469 58.203125 " clip-rule="nonzero"/></clipPath><linearGradient x1="1475.597571" gradientTransform="matrix(0, 2.617948, -2.617948, 0, -1368.939903, -3863.037027)" y1="-598.99701" x2="1611.440006" gradientUnits="userSpaceOnUse" y2="-598.99701" id="b8d6acac7c"><stop stop-opacity="1" stop-color="rgb(91.799927%, 95.298767%, 99.598694%)" offset="0"/><stop stop-opacity="1" stop-color="rgb(91.799927%, 95.298767%, 99.598694%)" offset="0.0625"/><stop stop-opacity="1" stop-color="rgb(91.799927%, 95.298767%, 99.598694%)" offset="0.0703125"/><stop stop-opacity="1" stop-color="rgb(91.558838%, 95.162964%, 99.589539%)" offset="0.0742188"/><stop stop-opacity="1" stop-color="rgb(91.319275%, 95.027161%, 99.580383%)" offset="0.078125"/><stop stop-opacity="1" stop-color="rgb(91.023254%, 94.859314%, 99.568176%)" offset="0.0820312"/><stop stop-opacity="1" stop-color="rgb(90.72876%, 94.691467%, 99.555969%)" offset="0.0859375"/><stop stop-opacity="1" stop-color="rgb(90.432739%, 94.523621%, 99.543762%)" offset="0.0898438"/><stop stop-opacity="1" stop-color="rgb(90.136719%, 94.355774%, 99.531555%)" offset="0.09375"/><stop stop-opacity="1" stop-color="rgb(89.840698%, 94.187927%, 99.519348%)" offset="0.0976562"/><stop stop-opacity="1" stop-color="rgb(89.546204%, 94.021606%, 99.508667%)" offset="0.101563"/><stop stop-opacity="1" stop-color="rgb(89.250183%, 93.85376%, 99.49646%)" offset="0.105469"/><stop stop-opacity="1" stop-color="rgb(88.954163%, 93.685913%, 99.484253%)" offset="0.109375"/><stop stop-opacity="1" stop-color="rgb(88.658142%, 93.518066%, 99.472046%)" offset="0.113281"/><stop stop-opacity="1" stop-color="rgb(88.362122%, 93.35022%, 99.461365%)" offset="0.117187"/><stop stop-opacity="1" stop-color="rgb(88.066101%, 93.182373%, 99.449158%)" offset="0.121094"/><stop stop-opacity="1" stop-color="rgb(87.771606%, 93.014526%, 99.436951%)" offset="0.125"/><stop stop-opacity="1" stop-color="rgb(87.475586%, 92.84668%, 99.424744%)" offset="0.128906"/><stop stop-opacity="1" stop-color="rgb(87.179565%, 92.678833%, 99.412537%)" offset="0.132812"/><stop stop-opacity="1" stop-color="rgb(86.883545%, 92.510986%, 99.40033%)" offset="0.136719"/><stop stop-opacity="1" stop-color="rgb(86.587524%, 92.344666%, 99.389648%)" offset="0.140625"/><stop stop-opacity="1" stop-color="rgb(86.291504%, 92.176819%, 99.377441%)" offset="0.144531"/><stop stop-opacity="1" stop-color="rgb(85.997009%, 92.008972%, 99.365234%)" offset="0.148438"/><stop stop-opacity="1" stop-color="rgb(85.700989%, 91.841125%, 99.353027%)" offset="0.152344"/><stop stop-opacity="1" stop-color="rgb(85.404968%, 91.673279%, 99.342346%)" offset="0.15625"/><stop stop-opacity="1" stop-color="rgb(85.108948%, 91.505432%, 99.330139%)" offset="0.160156"/><stop stop-opacity="1" stop-color="rgb(84.814453%, 91.337585%, 99.317932%)" offset="0.164062"/><stop stop-opacity="1" stop-color="rgb(84.518433%, 91.169739%, 99.305725%)" offset="0.167969"/><stop stop-opacity="1" stop-color="rgb(84.222412%, 91.001892%, 99.293518%)" offset="0.171875"/><stop stop-opacity="1" stop-color="rgb(83.926392%, 90.834045%, 99.281311%)" offset="0.175781"/><stop stop-opacity="1" stop-color="rgb(83.630371%, 90.666199%, 99.27063%)" offset="0.179688"/><stop stop-opacity="1" stop-color="rgb(83.334351%, 90.498352%, 99.258423%)" offset="0.183594"/><stop stop-opacity="1" stop-color="rgb(83.039856%, 90.332031%, 99.246216%)" offset="0.1875"/><stop stop-opacity="1" stop-color="rgb(82.743835%, 90.164185%, 99.234009%)" offset="0.191406"/><stop stop-opacity="1" stop-color="rgb(82.447815%, 89.996338%, 99.223328%)" offset="0.195313"/><stop stop-opacity="1" stop-color="rgb(82.151794%, 89.828491%, 99.211121%)" offset="0.199219"/><stop stop-opacity="1" stop-color="rgb(81.8573%, 89.660645%, 99.198914%)" offset="0.203125"/><stop stop-opacity="1" stop-color="rgb(81.561279%, 89.492798%, 99.186707%)" offset="0.207031"/><stop stop-opacity="1" stop-color="rgb(81.265259%, 89.324951%, 99.1745%)" offset="0.210938"/><stop stop-opacity="1" stop-color="rgb(80.969238%, 89.157104%, 99.162292%)" offset="0.214844"/><stop stop-opacity="1" stop-color="rgb(80.673218%, 88.989258%, 99.151611%)" offset="0.21875"/><stop stop-opacity="1" stop-color="rgb(80.377197%, 88.821411%, 99.139404%)" offset="0.222656"/><stop stop-opacity="1" stop-color="rgb(80.082703%, 88.65509%, 99.127197%)" offset="0.226563"/><stop stop-opacity="1" stop-color="rgb(79.786682%, 88.487244%, 99.11499%)" offset="0.230469"/><stop stop-opacity="1" stop-color="rgb(79.490662%, 88.319397%, 99.104309%)" offset="0.234375"/><stop stop-opacity="1" stop-color="rgb(79.194641%, 88.15155%, 99.092102%)" offset="0.238281"/><stop stop-opacity="1" stop-color="rgb(78.900146%, 87.983704%, 99.079895%)" offset="0.242188"/><stop stop-opacity="1" stop-color="rgb(78.604126%, 87.815857%, 99.067688%)" offset="0.246094"/><stop stop-opacity="1" stop-color="rgb(78.308105%, 87.64801%, 99.055481%)" offset="0.25"/><stop stop-opacity="1" stop-color="rgb(78.012085%, 87.480164%, 99.043274%)" offset="0.253906"/><stop stop-opacity="1" stop-color="rgb(77.716064%, 87.312317%, 99.032593%)" offset="0.257812"/><stop stop-opacity="1" stop-color="rgb(77.420044%, 87.14447%, 99.020386%)" offset="0.261719"/><stop stop-opacity="1" stop-color="rgb(77.125549%, 86.976624%, 99.008179%)" offset="0.265625"/><stop stop-opacity="1" stop-color="rgb(76.829529%, 86.808777%, 98.995972%)" offset="0.269531"/><stop stop-opacity="1" stop-color="rgb(76.533508%, 86.642456%, 98.983765%)" offset="0.273438"/><stop stop-opacity="1" stop-color="rgb(76.237488%, 86.474609%, 98.971558%)" offset="0.277344"/><stop stop-opacity="1" stop-color="rgb(75.942993%, 86.306763%, 98.960876%)" offset="0.28125"/><stop stop-opacity="1" stop-color="rgb(75.646973%, 86.138916%, 98.948669%)" offset="0.285156"/><stop stop-opacity="1" stop-color="rgb(75.350952%, 85.971069%, 98.936462%)" offset="0.289063"/><stop stop-opacity="1" stop-color="rgb(75.054932%, 85.803223%, 98.924255%)" offset="0.292969"/><stop stop-opacity="1" stop-color="rgb(74.758911%, 85.635376%, 98.913574%)" offset="0.296875"/><stop stop-opacity="1" stop-color="rgb(74.462891%, 85.467529%, 98.901367%)" offset="0.300781"/><stop stop-opacity="1" stop-color="rgb(74.168396%, 85.299683%, 98.88916%)" offset="0.304688"/><stop stop-opacity="1" stop-color="rgb(73.872375%, 85.131836%, 98.876953%)" offset="0.308594"/><stop stop-opacity="1" stop-color="rgb(73.576355%, 84.965515%, 98.864746%)" offset="0.3125"/><stop stop-opacity="1" stop-color="rgb(73.280334%, 84.797668%, 98.852539%)" offset="0.316406"/><stop stop-opacity="1" stop-color="rgb(72.984314%, 84.629822%, 98.841858%)" offset="0.320313"/><stop stop-opacity="1" stop-color="rgb(72.688293%, 84.461975%, 98.829651%)" offset="0.324219"/><stop stop-opacity="1" stop-color="rgb(72.393799%, 84.294128%, 98.817444%)" offset="0.328125"/><stop stop-opacity="1" stop-color="rgb(72.097778%, 84.126282%, 98.805237%)" offset="0.332031"/><stop stop-opacity="1" stop-color="rgb(71.801758%, 83.958435%, 98.794556%)" offset="0.335938"/><stop stop-opacity="1" stop-color="rgb(71.505737%, 83.790588%, 98.782349%)" offset="0.339844"/><stop stop-opacity="1" stop-color="rgb(71.211243%, 83.622742%, 98.770142%)" offset="0.34375"/><stop stop-opacity="1" stop-color="rgb(70.915222%, 83.454895%, 98.757935%)" offset="0.347656"/><stop stop-opacity="1" stop-color="rgb(70.619202%, 83.287048%, 98.745728%)" offset="0.351562"/><stop stop-opacity="1" stop-color="rgb(70.323181%, 83.119202%, 98.733521%)" offset="0.355469"/><stop stop-opacity="1" stop-color="rgb(70.027161%, 82.952881%, 98.722839%)" offset="0.359375"/><stop stop-opacity="1" stop-color="rgb(69.73114%, 82.785034%, 98.710632%)" offset="0.363281"/><stop stop-opacity="1" stop-color="rgb(69.436646%, 82.617188%, 98.698425%)" offset="0.367188"/><stop stop-opacity="1" stop-color="rgb(69.140625%, 82.449341%, 98.686218%)" offset="0.371094"/><stop stop-opacity="1" stop-color="rgb(68.844604%, 82.281494%, 98.675537%)" offset="0.375"/><stop stop-opacity="1" stop-color="rgb(68.548584%, 82.113647%, 98.66333%)" offset="0.378906"/><stop stop-opacity="1" stop-color="rgb(68.254089%, 81.945801%, 98.651123%)" offset="0.382813"/><stop stop-opacity="1" stop-color="rgb(67.958069%, 81.777954%, 98.638916%)" offset="0.386719"/><stop stop-opacity="1" stop-color="rgb(67.662048%, 81.610107%, 98.626709%)" offset="0.390625"/><stop stop-opacity="1" stop-color="rgb(67.366028%, 81.442261%, 98.614502%)" offset="0.394531"/><stop stop-opacity="1" stop-color="rgb(67.070007%, 81.27594%, 98.603821%)" offset="0.398438"/><stop stop-opacity="1" stop-color="rgb(66.773987%, 81.108093%, 98.591614%)" offset="0.402344"/><stop stop-opacity="1" stop-color="rgb(66.479492%, 80.940247%, 98.579407%)" offset="0.40625"/><stop stop-opacity="1" stop-color="rgb(66.183472%, 80.7724%, 98.5672%)" offset="0.410156"/><stop stop-opacity="1" stop-color="rgb(65.887451%, 80.604553%, 98.556519%)" offset="0.414063"/><stop stop-opacity="1" stop-color="rgb(65.591431%, 80.436707%, 98.544312%)" offset="0.417969"/><stop stop-opacity="1" stop-color="rgb(65.296936%, 80.26886%, 98.532104%)" offset="0.421875"/><stop stop-opacity="1" stop-color="rgb(65.000916%, 80.101013%, 98.519897%)" offset="0.425781"/><stop stop-opacity="1" stop-color="rgb(64.704895%, 79.933167%, 98.50769%)" offset="0.429688"/><stop stop-opacity="1" stop-color="rgb(64.408875%, 79.76532%, 98.495483%)" offset="0.433594"/><stop stop-opacity="1" stop-color="rgb(64.112854%, 79.597473%, 98.484802%)" offset="0.4375"/><stop stop-opacity="1" stop-color="rgb(63.816833%, 79.429626%, 98.472595%)" offset="0.441406"/><stop stop-opacity="1" stop-color="rgb(63.522339%, 79.263306%, 98.460388%)" offset="0.445312"/><stop stop-opacity="1" stop-color="rgb(63.226318%, 79.095459%, 98.448181%)" offset="0.449219"/><stop stop-opacity="1" stop-color="rgb(62.930298%, 78.927612%, 98.4375%)" offset="0.453125"/><stop stop-opacity="1" stop-color="rgb(62.634277%, 78.759766%, 98.425293%)" offset="0.457031"/><stop stop-opacity="1" stop-color="rgb(62.339783%, 78.591919%, 98.413086%)" offset="0.460938"/><stop stop-opacity="1" stop-color="rgb(61.962891%, 78.373718%, 98.358154%)" offset="0.464844"/><stop stop-opacity="1" stop-color="rgb(61.587524%, 78.155518%, 98.304749%)" offset="0.46875"/><stop stop-opacity="1" stop-color="rgb(61.102295%, 77.868652%, 98.193359%)" offset="0.472656"/><stop stop-opacity="1" stop-color="rgb(60.618591%, 77.583313%, 98.083496%)" offset="0.476562"/><stop stop-opacity="1" stop-color="rgb(60.134888%, 77.296448%, 97.972107%)" offset="0.480469"/><stop stop-opacity="1" stop-color="rgb(59.651184%, 77.011108%, 97.862244%)" offset="0.484375"/><stop stop-opacity="1" stop-color="rgb(59.165955%, 76.724243%, 97.750854%)" offset="0.488281"/><stop stop-opacity="1" stop-color="rgb(58.682251%, 76.438904%, 97.639465%)" offset="0.492188"/><stop stop-opacity="1" stop-color="rgb(58.197021%, 76.152039%, 97.528076%)" offset="0.496094"/><stop stop-opacity="1" stop-color="rgb(57.713318%, 75.866699%, 97.418213%)" offset="0.5"/><stop stop-opacity="1" stop-color="rgb(57.229614%, 75.579834%, 97.306824%)" offset="0.503906"/><stop stop-opacity="1" stop-color="rgb(56.745911%, 75.294495%, 97.19696%)" offset="0.507813"/><stop stop-opacity="1" stop-color="rgb(56.260681%, 75.007629%, 97.085571%)" offset="0.511719"/><stop stop-opacity="1" stop-color="rgb(55.776978%, 74.72229%, 96.974182%)" offset="0.515625"/><stop stop-opacity="1" stop-color="rgb(55.291748%, 74.435425%, 96.862793%)" offset="0.519531"/><stop stop-opacity="1" stop-color="rgb(54.808044%, 74.150085%, 96.75293%)" offset="0.523438"/><stop stop-opacity="1" stop-color="rgb(54.324341%, 73.86322%, 96.641541%)" offset="0.527344"/><stop stop-opacity="1" stop-color="rgb(53.840637%, 73.577881%, 96.531677%)" offset="0.53125"/><stop stop-opacity="1" stop-color="rgb(53.355408%, 73.291016%, 96.420288%)" offset="0.535156"/><stop stop-opacity="1" stop-color="rgb(52.871704%, 73.005676%, 96.310425%)" offset="0.539063"/><stop stop-opacity="1" stop-color="rgb(52.386475%, 72.718811%, 96.199036%)" offset="0.542969"/><stop stop-opacity="1" stop-color="rgb(51.902771%, 72.433472%, 96.087646%)" offset="0.546875"/><stop stop-opacity="1" stop-color="rgb(51.419067%, 72.146606%, 95.976257%)" offset="0.550781"/><stop stop-opacity="1" stop-color="rgb(50.935364%, 71.861267%, 95.866394%)" offset="0.554688"/><stop stop-opacity="1" stop-color="rgb(50.450134%, 71.574402%, 95.755005%)" offset="0.558594"/><stop stop-opacity="1" stop-color="rgb(49.966431%, 71.289062%, 95.645142%)" offset="0.5625"/><stop stop-opacity="1" stop-color="rgb(49.481201%, 71.002197%, 95.533752%)" offset="0.566406"/><stop stop-opacity="1" stop-color="rgb(48.997498%, 70.716858%, 95.423889%)" offset="0.570313"/><stop stop-opacity="1" stop-color="rgb(48.513794%, 70.429993%, 95.3125%)" offset="0.574219"/><stop stop-opacity="1" stop-color="rgb(48.03009%, 70.144653%, 95.201111%)" offset="0.578125"/><stop stop-opacity="1" stop-color="rgb(47.544861%, 69.857788%, 95.089722%)" offset="0.582031"/><stop stop-opacity="1" stop-color="rgb(47.061157%, 69.572449%, 94.979858%)" offset="0.585938"/><stop stop-opacity="1" stop-color="rgb(46.575928%, 69.285583%, 94.868469%)" offset="0.589844"/><stop stop-opacity="1" stop-color="rgb(46.092224%, 69.000244%, 94.758606%)" offset="0.59375"/><stop stop-opacity="1" stop-color="rgb(45.608521%, 68.713379%, 94.647217%)" offset="0.597656"/><stop stop-opacity="1" stop-color="rgb(45.124817%, 68.42804%, 94.535828%)" offset="0.601562"/><stop stop-opacity="1" stop-color="rgb(44.639587%, 68.141174%, 94.424438%)" offset="0.605469"/><stop stop-opacity="1" stop-color="rgb(44.155884%, 67.855835%, 94.314575%)" offset="0.609375"/><stop stop-opacity="1" stop-color="rgb(43.670654%, 67.56897%, 94.203186%)" offset="0.613281"/><stop stop-opacity="1" stop-color="rgb(43.186951%, 67.28363%, 94.093323%)" offset="0.617188"/><stop stop-opacity="1" stop-color="rgb(42.703247%, 66.996765%, 93.981934%)" offset="0.621094"/><stop stop-opacity="1" stop-color="rgb(42.219543%, 66.711426%, 93.87207%)" offset="0.625"/><stop stop-opacity="1" stop-color="rgb(41.734314%, 66.424561%, 93.760681%)" offset="0.628906"/><stop stop-opacity="1" stop-color="rgb(41.25061%, 66.139221%, 93.649292%)" offset="0.632812"/><stop stop-opacity="1" stop-color="rgb(40.765381%, 65.852356%, 93.537903%)" offset="0.636719"/><stop stop-opacity="1" stop-color="rgb(40.281677%, 65.567017%, 93.42804%)" offset="0.640625"/><stop stop-opacity="1" stop-color="rgb(39.797974%, 65.280151%, 93.31665%)" offset="0.644531"/><stop stop-opacity="1" stop-color="rgb(39.31427%, 64.993286%, 93.206787%)" offset="0.648438"/><stop stop-opacity="1" stop-color="rgb(38.829041%, 64.706421%, 93.095398%)" offset="0.652344"/><stop stop-opacity="1" stop-color="rgb(38.345337%, 64.421082%, 92.985535%)" offset="0.65625"/><stop stop-opacity="1" stop-color="rgb(37.860107%, 64.134216%, 92.874146%)" offset="0.660156"/><stop stop-opacity="1" stop-color="rgb(37.376404%, 63.848877%, 92.762756%)" offset="0.664062"/><stop stop-opacity="1" stop-color="rgb(36.8927%, 63.562012%, 92.651367%)" offset="0.667969"/><stop stop-opacity="1" stop-color="rgb(36.408997%, 63.276672%, 92.541504%)" offset="0.671875"/><stop stop-opacity="1" stop-color="rgb(35.923767%, 62.989807%, 92.430115%)" offset="0.675781"/><stop stop-opacity="1" stop-color="rgb(35.440063%, 62.704468%, 92.320251%)" offset="0.679688"/><stop stop-opacity="1" stop-color="rgb(34.954834%, 62.417603%, 92.208862%)" offset="0.683594"/><stop stop-opacity="1" stop-color="rgb(34.47113%, 62.132263%, 92.097473%)" offset="0.6875"/><stop stop-opacity="1" stop-color="rgb(33.987427%, 61.845398%, 91.986084%)" offset="0.691406"/><stop stop-opacity="1" stop-color="rgb(33.503723%, 61.560059%, 91.876221%)" offset="0.695313"/><stop stop-opacity="1" stop-color="rgb(33.018494%, 61.273193%, 91.764832%)" offset="0.699219"/><stop stop-opacity="1" stop-color="rgb(32.53479%, 60.987854%, 91.654968%)" offset="0.703125"/><stop stop-opacity="1" stop-color="rgb(32.049561%, 60.700989%, 91.543579%)" offset="0.707031"/><stop stop-opacity="1" stop-color="rgb(31.565857%, 60.415649%, 91.433716%)" offset="0.710938"/><stop stop-opacity="1" stop-color="rgb(31.082153%, 60.128784%, 91.322327%)" offset="0.714844"/><stop stop-opacity="1" stop-color="rgb(30.59845%, 59.843445%, 91.210938%)" offset="0.71875"/><stop stop-opacity="1" stop-color="rgb(30.11322%, 59.55658%, 91.099548%)" offset="0.722656"/><stop stop-opacity="1" stop-color="rgb(29.629517%, 59.27124%, 90.989685%)" offset="0.726563"/><stop stop-opacity="1" stop-color="rgb(29.144287%, 58.984375%, 90.878296%)" offset="0.730469"/><stop stop-opacity="1" stop-color="rgb(28.660583%, 58.699036%, 90.768433%)" offset="0.734375"/><stop stop-opacity="1" stop-color="rgb(28.17688%, 58.41217%, 90.657043%)" offset="0.738281"/><stop stop-opacity="1" stop-color="rgb(27.693176%, 58.126831%, 90.54718%)" offset="0.742188"/><stop stop-opacity="1" stop-color="rgb(27.207947%, 57.839966%, 90.435791%)" offset="0.746094"/><stop stop-opacity="1" stop-color="rgb(26.724243%, 57.554626%, 90.324402%)" offset="0.75"/><stop stop-opacity="1" stop-color="rgb(26.239014%, 57.267761%, 90.213013%)" offset="0.753906"/><stop stop-opacity="1" stop-color="rgb(25.75531%, 56.982422%, 90.103149%)" offset="0.757813"/><stop stop-opacity="1" stop-color="rgb(25.271606%, 56.695557%, 89.99176%)" offset="0.761719"/><stop stop-opacity="1" stop-color="rgb(24.787903%, 56.410217%, 89.881897%)" offset="0.765625"/><stop stop-opacity="1" stop-color="rgb(24.302673%, 56.123352%, 89.770508%)" offset="0.769531"/><stop stop-opacity="1" stop-color="rgb(23.81897%, 55.838013%, 89.659119%)" offset="0.773438"/><stop stop-opacity="1" stop-color="rgb(23.33374%, 55.551147%, 89.547729%)" offset="0.777344"/><stop stop-opacity="1" stop-color="rgb(22.850037%, 55.265808%, 89.437866%)" offset="0.78125"/><stop stop-opacity="1" stop-color="rgb(22.366333%, 54.978943%, 89.326477%)" offset="0.785156"/><stop stop-opacity="1" stop-color="rgb(21.882629%, 54.693604%, 89.216614%)" offset="0.789062"/><stop stop-opacity="1" stop-color="rgb(21.3974%, 54.406738%, 89.105225%)" offset="0.792969"/><stop stop-opacity="1" stop-color="rgb(20.913696%, 54.121399%, 88.995361%)" offset="0.796875"/><stop stop-opacity="1" stop-color="rgb(20.428467%, 53.834534%, 88.883972%)" offset="0.800781"/><stop stop-opacity="1" stop-color="rgb(19.944763%, 53.549194%, 88.772583%)" offset="0.804688"/><stop stop-opacity="1" stop-color="rgb(19.46106%, 53.262329%, 88.661194%)" offset="0.808594"/><stop stop-opacity="1" stop-color="rgb(18.977356%, 52.97699%, 88.551331%)" offset="0.8125"/><stop stop-opacity="1" stop-color="rgb(18.492126%, 52.690125%, 88.439941%)" offset="0.816406"/><stop stop-opacity="1" stop-color="rgb(18.008423%, 52.404785%, 88.330078%)" offset="0.820312"/><stop stop-opacity="1" stop-color="rgb(17.523193%, 52.11792%, 88.218689%)" offset="0.824219"/><stop stop-opacity="1" stop-color="rgb(17.03949%, 51.832581%, 88.108826%)" offset="0.828125"/><stop stop-opacity="1" stop-color="rgb(16.555786%, 51.545715%, 87.997437%)" offset="0.832031"/><stop stop-opacity="1" stop-color="rgb(16.072083%, 51.260376%, 87.886047%)" offset="0.835938"/><stop stop-opacity="1" stop-color="rgb(15.586853%, 50.973511%, 87.774658%)" offset="0.839844"/><stop stop-opacity="1" stop-color="rgb(15.103149%, 50.688171%, 87.664795%)" offset="0.84375"/><stop stop-opacity="1" stop-color="rgb(14.61792%, 50.401306%, 87.553406%)" offset="0.847656"/><stop stop-opacity="1" stop-color="rgb(14.134216%, 50.115967%, 87.443542%)" offset="0.851563"/><stop stop-opacity="1" stop-color="rgb(13.650513%, 49.829102%, 87.332153%)" offset="0.855469"/><stop stop-opacity="1" stop-color="rgb(13.166809%, 49.543762%, 87.220764%)" offset="0.859375"/><stop stop-opacity="1" stop-color="rgb(12.68158%, 49.256897%, 87.109375%)" offset="0.863281"/><stop stop-opacity="1" stop-color="rgb(12.197876%, 48.971558%, 86.999512%)" offset="0.867188"/><stop stop-opacity="1" stop-color="rgb(11.712646%, 48.684692%, 86.888123%)" offset="0.871094"/><stop stop-opacity="1" stop-color="rgb(11.228943%, 48.399353%, 86.778259%)" offset="0.875"/><stop stop-opacity="1" stop-color="rgb(10.745239%, 48.112488%, 86.66687%)" offset="0.878906"/><stop stop-opacity="1" stop-color="rgb(10.261536%, 47.827148%, 86.557007%)" offset="0.882813"/><stop stop-opacity="1" stop-color="rgb(9.776306%, 47.540283%, 86.445618%)" offset="0.886719"/><stop stop-opacity="1" stop-color="rgb(9.292603%, 47.254944%, 86.334229%)" offset="0.890625"/><stop stop-opacity="1" stop-color="rgb(8.807373%, 46.968079%, 86.222839%)" offset="0.894531"/><stop stop-opacity="1" stop-color="rgb(8.323669%, 46.682739%, 86.112976%)" offset="0.898438"/><stop stop-opacity="1" stop-color="rgb(7.839966%, 46.395874%, 86.001587%)" offset="0.902344"/><stop stop-opacity="1" stop-color="rgb(7.356262%, 46.110535%, 85.891724%)" offset="0.90625"/><stop stop-opacity="1" stop-color="rgb(6.871033%, 45.823669%, 85.780334%)" offset="0.910156"/><stop stop-opacity="1" stop-color="rgb(6.387329%, 45.536804%, 85.670471%)" offset="0.914062"/><stop stop-opacity="1" stop-color="rgb(5.9021%, 45.249939%, 85.559082%)" offset="0.917969"/><stop stop-opacity="1" stop-color="rgb(5.418396%, 44.9646%, 85.447693%)" offset="0.921875"/><stop stop-opacity="1" stop-color="rgb(4.934692%, 44.677734%, 85.336304%)" offset="0.925781"/><stop stop-opacity="1" stop-color="rgb(4.450989%, 44.392395%, 85.22644%)" offset="0.929688"/><stop stop-opacity="1" stop-color="rgb(3.965759%, 44.10553%, 85.115051%)" offset="0.933594"/><stop stop-opacity="1" stop-color="rgb(3.482056%, 43.82019%, 85.005188%)" offset="0.9375"/><stop stop-opacity="1" stop-color="rgb(2.996826%, 43.533325%, 84.893799%)" offset="0.941406"/><stop stop-opacity="1" stop-color="rgb(2.513123%, 43.247986%, 84.78241%)" offset="0.945313"/><stop stop-opacity="1" stop-color="rgb(2.029419%, 42.961121%, 84.671021%)" offset="0.949219"/><stop stop-opacity="1" stop-color="rgb(1.545715%, 42.675781%, 84.561157%)" offset="0.953125"/><stop stop-opacity="1" stop-color="rgb(1.060486%, 42.388916%, 84.449768%)" offset="0.957031"/><stop stop-opacity="1" stop-color="rgb(0.576782%, 42.103577%, 84.339905%)" offset="0.960938"/><stop stop-opacity="1" stop-color="rgb(0.488281%, 42.051697%, 84.318542%)" offset="0.96875"/><stop stop-opacity="1" stop-color="rgb(0.39978%, 41.999817%, 84.298706%)" offset="1"/></linearGradient><clipPath id="c88ae23011"><path d="M 78.160156 66.980469 L 273.910156 66.980469 L 273.910156 337.730469 L 78.160156 337.730469 Z M 78.160156 66.980469 " clip-rule="nonzero"/></clipPath><clipPath id="c15d21dca1"><path d="M 133.367188 103.335938 L 293.117188 103.335938 L 293.117188 238.335938 L 133.367188 238.335938 Z M 133.367188 103.335938 " clip-rule="nonzero"/></clipPath><clipPath id="e1edf84671"><path d="M 142 108 L 293.117188 108 L 293.117188 234 L 142 234 Z M 142 108 " clip-rule="nonzero"/></clipPath><clipPath id="05679b5e63"><path d="M 142.359375 108.808594 L 293.117188 108.808594 L 293.117188 122 L 142.359375 122 Z M 142.359375 108.808594 " clip-rule="nonzero"/></clipPath><clipPath id="55525bac8a"><path d="M 299.082031 115.03125 C 299.082031 111.605469 296.300781 108.824219 292.875 108.824219 L 148.601562 108.824219 C 145.175781 108.824219 142.394531 111.605469 142.394531 115.03125 L 142.394531 226.835938 C 142.394531 230.261719 145.175781 233.042969 148.601562 233.042969 L 292.875 233.042969 C 296.300781 233.042969 299.082031 230.261719 299.082031 226.835938 Z M 299.082031 115.03125 " clip-rule="evenodd"/></clipPath><clipPath id="d67934b516"><path d="M 142.359375 133 L 293.117188 133 L 293.117188 136 L 142.359375 136 Z M 142.359375 133 " clip-rule="nonzero"/></clipPath><clipPath id="206f1befae"><path d="M 299.082031 115.03125 C 299.082031 111.605469 296.300781 108.824219 292.875 108.824219 L 148.601562 108.824219 C 145.175781 108.824219 142.394531 111.605469 142.394531 115.03125 L 142.394531 226.835938 C 142.394531 230.261719 145.175781 233.042969 148.601562 233.042969 L 292.875 233.042969 C 296.300781 233.042969 299.082031 230.261719 299.082031 226.835938 Z M 299.082031 115.03125 " clip-rule="evenodd"/></clipPath><clipPath id="d732f9ee56"><path d="M 142.359375 145 L 293.117188 145 L 293.117188 148 L 142.359375 148 Z M 142.359375 145 " clip-rule="nonzero"/></clipPath><clipPath id="844cf2c801"><path d="M 299.082031 115.03125 C 299.082031 111.605469 296.300781 108.824219 292.875 108.824219 L 148.601562 108.824219 C 145.175781 108.824219 142.394531 111.605469 142.394531 115.03125 L 142.394531 226.835938 C 142.394531 230.261719 145.175781 233.042969 148.601562 233.042969 L 292.875 233.042969 C 296.300781 233.042969 299.082031 230.261719 299.082031 226.835938 Z M 299.082031 115.03125 " clip-rule="evenodd"/></clipPath><clipPath id="3f3b9f032e"><path d="M 142.359375 158 L 293.117188 158 L 293.117188 160 L 142.359375 160 Z M 142.359375 158 " clip-rule="nonzero"/></clipPath><clipPath id="38c8da697c"><path d="M 299.082031 115.03125 C 299.082031 111.605469 296.300781 108.824219 292.875 108.824219 L 148.601562 108.824219 C 145.175781 108.824219 142.394531 111.605469 142.394531 115.03125 L 142.394531 226.835938 C 142.394531 230.261719 145.175781 233.042969 148.601562 233.042969 L 292.875 233.042969 C 296.300781 233.042969 299.082031 230.261719 299.082031 226.835938 Z M 299.082031 115.03125 " clip-rule="evenodd"/></clipPath><clipPath id="cb5f9ece55"><path d="M 142.359375 170 L 293.117188 170 L 293.117188 172 L 142.359375 172 Z M 142.359375 170 " clip-rule="nonzero"/></clipPath><clipPath id="176de1a6fa"><path d="M 299.082031 115.03125 C 299.082031 111.605469 296.300781 108.824219 292.875 108.824219 L 148.601562 108.824219 C 145.175781 108.824219 142.394531 111.605469 142.394531 115.03125 L 142.394531 226.835938 C 142.394531 230.261719 145.175781 233.042969 148.601562 233.042969 L 292.875 233.042969 C 296.300781 233.042969 299.082031 230.261719 299.082031 226.835938 Z M 299.082031 115.03125 " clip-rule="evenodd"/></clipPath><clipPath id="8a206a585d"><path d="M 142.359375 182 L 293.117188 182 L 293.117188 185 L 142.359375 185 Z M 142.359375 182 " clip-rule="nonzero"/></clipPath><clipPath id="48e72cb088"><path d="M 299.082031 115.03125 C 299.082031 111.605469 296.300781 108.824219 292.875 108.824219 L 148.601562 108.824219 C 145.175781 108.824219 142.394531 111.605469 142.394531 115.03125 L 142.394531 226.835938 C 142.394531 230.261719 145.175781 233.042969 148.601562 233.042969 L 292.875 233.042969 C 296.300781 233.042969 299.082031 230.261719 299.082031 226.835938 Z M 299.082031 115.03125 " clip-rule="evenodd"/></clipPath><clipPath id="3579cf16f7"><path d="M 142.359375 194 L 293.117188 194 L 293.117188 197 L 142.359375 197 Z M 142.359375 194 " clip-rule="nonzero"/></clipPath><clipPath id="a9316d5904"><path d="M 299.082031 115.03125 C 299.082031 111.605469 296.300781 108.824219 292.875 108.824219 L 148.601562 108.824219 C 145.175781 108.824219 142.394531 111.605469 142.394531 115.03125 L 142.394531 226.835938 C 142.394531 230.261719 145.175781 233.042969 148.601562 233.042969 L 292.875 233.042969 C 296.300781 233.042969 299.082031 230.261719 299.082031 226.835938 Z M 299.082031 115.03125 " clip-rule="evenodd"/></clipPath><clipPath id="74232ce691"><path d="M 142.359375 207 L 293.117188 207 L 293.117188 209 L 142.359375 209 Z M 142.359375 207 " clip-rule="nonzero"/></clipPath><clipPath id="aef85e0c04"><path d="M 299.082031 115.03125 C 299.082031 111.605469 296.300781 108.824219 292.875 108.824219 L 148.601562 108.824219 C 145.175781 108.824219 142.394531 111.605469 142.394531 115.03125 L 142.394531 226.835938 C 142.394531 230.261719 145.175781 233.042969 148.601562 233.042969 L 292.875 233.042969 C 296.300781 233.042969 299.082031 230.261719 299.082031 226.835938 Z M 299.082031 115.03125 " clip-rule="evenodd"/></clipPath><clipPath id="ca44c62fe6"><path d="M 142.359375 219 L 293.117188 219 L 293.117188 221 L 142.359375 221 Z M 142.359375 219 " clip-rule="nonzero"/></clipPath><clipPath id="8b378c3453"><path d="M 299.082031 115.03125 C 299.082031 111.605469 296.300781 108.824219 292.875 108.824219 L 148.601562 108.824219 C 145.175781 108.824219 142.394531 111.605469 142.394531 115.03125 L 142.394531 226.835938 C 142.394531 230.261719 145.175781 233.042969 148.601562 233.042969 L 292.875 233.042969 C 296.300781 233.042969 299.082031 230.261719 299.082031 226.835938 Z M 299.082031 115.03125 " clip-rule="evenodd"/></clipPath></defs><g clip-path="url(#43383dc699)"><g clip-path="url(#81f061f8ca)"><path fill="url(#b8d6acac7c)" d="M 360 0 L 37.5 0 L 37.5 355.628906 L 360 355.628906 Z M 360 0 " fill-rule="nonzero"/></g></g><g clip-path="url(#c88ae23011)"><path fill="#eaf3fe" d="M 94.480469 67.636719 C 92.214844 70.1875 91.132812 73.066406 91.695312 75.046875 C 91.984375 76.078125 92.304688 75.988281 93.121094 74.636719 C 93.257812 74.410156 94.84375 74.789062 96.324219 75.40625 C 97.6875 75.96875 97.699219 75.980469 97.953125 77.109375 C 98.070312 77.628906 98.300781 78.417969 98.460938 78.863281 C 98.816406 79.851562 99.03125 79.683594 96.910156 80.066406 C 96.480469 80.144531 96.335938 80.234375 95.9375 80.664062 C 95.144531 81.523438 94.683594 81.804688 94.070312 81.804688 C 93.132812 81.804688 92.71875 82.457031 92.496094 84.296875 C 92.304688 85.863281 91.882812 86.199219 88.832031 87.214844 C 86.488281 87.992188 85.554688 88.75 85.136719 90.210938 C 84.957031 90.835938 84.828125 90.992188 84.285156 91.269531 C 83.726562 91.554688 83.773438 91.921875 84.503906 92.988281 C 84.957031 93.652344 84.859375 94.082031 84.105469 94.722656 C 83.027344 95.636719 82.976562 95.71875 82.789062 96.824219 C 82.574219 98.066406 82.425781 98.378906 81.722656 99.050781 C 81.074219 99.667969 81.035156 99.902344 81.46875 100.539062 C 81.898438 101.171875 82.050781 101.789062 82.054688 102.914062 C 82.054688 104.375 82.460938 105.753906 83.082031 106.425781 C 83.398438 106.769531 83.578125 106.738281 84.292969 106.238281 C 85.425781 105.441406 86.785156 105.277344 88.097656 105.785156 C 88.601562 105.980469 88.851562 106.175781 91.054688 108.058594 C 91.3125 108.28125 91.664062 108.65625 91.835938 108.894531 C 92.148438 109.332031 94.003906 110.941406 94.640625 111.332031 C 95.175781 111.660156 95.339844 112.175781 95.5625 114.222656 C 95.652344 115.039062 95.734375 115.167969 96.496094 115.644531 C 97.402344 116.210938 97.867188 116.734375 98.824219 118.246094 C 99.421875 119.199219 99.910156 119.394531 101.945312 119.503906 C 103.375 119.578125 103.527344 119.628906 104.558594 120.367188 C 106.066406 121.449219 106.148438 121.453125 107.578125 120.488281 C 107.890625 120.28125 108.308594 120.101562 108.648438 120.035156 C 108.960938 119.976562 109.363281 119.894531 109.550781 119.859375 C 109.8125 119.804688 109.929688 119.710938 110.046875 119.464844 L 110.199219 119.140625 L 110.554688 119.53125 C 111.304688 120.363281 111.609375 121.429688 111.53125 122.96875 L 111.476562 123.992188 L 111.875 124.71875 C 112.097656 125.121094 112.324219 125.679688 112.386719 125.964844 C 112.542969 126.703125 113.007812 127.15625 113.894531 127.445312 C 114.269531 127.566406 114.953125 127.835938 115.410156 128.042969 C 116.257812 128.417969 117.0625 128.640625 118.039062 128.765625 C 118.644531 128.839844 118.816406 128.941406 118.816406 129.226562 C 118.816406 129.507812 118.09375 130.796875 117.558594 131.472656 C 116.609375 132.675781 116.476562 132.871094 116.335938 133.296875 C 116.253906 133.539062 116.160156 134 116.125 134.320312 C 116.015625 135.363281 115.453125 135.457031 114.320312 134.613281 C 112.378906 133.167969 111.898438 133.160156 110.71875 134.550781 C 109.640625 135.824219 108.777344 135.890625 107.441406 134.800781 C 107.128906 134.546875 106.542969 134.179688 106.140625 133.988281 L 105.410156 133.636719 L 104.09375 133.648438 C 103.109375 133.65625 102.558594 133.714844 101.917969 133.867188 C 100.796875 134.140625 100.804688 134.140625 99.402344 133.675781 C 96.53125 132.722656 95.511719 133.53125 95.460938 136.808594 C 95.433594 138.667969 95.375 138.894531 94.667969 139.878906 C 93.648438 141.304688 92.863281 142.976562 92.425781 144.640625 C 92.023438 146.183594 91.605469 146.839844 90.769531 147.246094 C 89.84375 147.695312 88.191406 146.90625 87.589844 145.730469 C 86.773438 144.128906 86.277344 143.964844 84.238281 144.617188 C 82.289062 145.238281 81.816406 145.824219 82.46875 146.796875 C 82.640625 147.058594 82.867188 147.398438 82.964844 147.554688 C 83.695312 148.683594 83.039062 150.132812 81.472656 150.855469 C 80.730469 151.195312 80.484375 151.523438 80.339844 152.359375 C 80.242188 152.90625 80.058594 153.238281 79.703125 153.488281 C 79.339844 153.75 79.167969 154.121094 79.078125 154.863281 C 79.027344 155.261719 78.917969 155.542969 78.679688 155.878906 C 78.175781 156.585938 78.214844 156.914062 78.898438 157.742188 C 79.753906 158.777344 79.929688 159.265625 80.390625 161.8125 C 80.925781 164.746094 80.9375 164.769531 82.304688 164.992188 C 84.457031 165.34375 85.875 165.960938 88.34375 167.621094 C 88.878906 167.984375 89.714844 168.492188 90.195312 168.75 C 91.117188 169.246094 92.238281 169.984375 93.21875 170.742188 C 95.3125 172.359375 96.683594 173.007812 98.828125 173.378906 C 100.589844 173.6875 101.066406 173.820312 102.019531 174.277344 C 103.089844 174.789062 103.515625 174.8125 104.035156 174.398438 C 104.234375 174.238281 104.507812 174.019531 104.640625 173.914062 C 105.71875 173.050781 107.421875 176.8125 106.96875 179.054688 C 106.828125 179.761719 106.851562 179.742188 106.292969 179.671875 C 105.6875 179.597656 105.652344 179.625 105.324219 180.503906 C 104.566406 182.527344 105.242188 185.558594 106.714844 186.742188 L 107.105469 187.054688 L 106.8125 187.414062 C 106.558594 187.734375 106.140625 188.636719 106.140625 188.875 C 106.140625 188.921875 106.292969 189.144531 106.480469 189.371094 C 106.667969 189.59375 106.824219 189.824219 106.824219 189.882812 C 106.824219 190.085938 105.808594 191.6875 105.59375 191.820312 C 105.476562 191.894531 104.953125 192.320312 104.429688 192.769531 L 103.484375 193.582031 L 102.765625 193.515625 C 101.421875 193.390625 100.980469 193.785156 100.972656 195.125 C 100.964844 195.90625 100.753906 196.402344 100.105469 197.152344 C 99.484375 197.863281 99.441406 198.066406 99.660156 199.179688 L 99.839844 200.089844 L 99.519531 200.996094 C 98.765625 203.128906 98.765625 203.875 99.519531 204.640625 L 99.925781 205.058594 L 99.859375 205.699219 C 99.746094 206.84375 100.03125 207.1875 101.226562 207.320312 C 102.414062 207.453125 102.957031 207.832031 103.109375 208.636719 C 103.203125 209.148438 103.261719 209.210938 104.191406 209.820312 C 105.074219 210.402344 105.933594 211.222656 106.398438 211.921875 C 106.878906 212.644531 107.011719 212.699219 107.335938 212.328125 C 108.53125 210.953125 108.890625 212.152344 107.890625 214.1875 C 107.359375 215.277344 107.234375 215.902344 107.394531 216.660156 C 107.53125 217.292969 107.429688 217.535156 106.878906 217.882812 C 105.867188 218.523438 105.457031 219.207031 105.457031 220.253906 C 105.457031 222.332031 106.976562 223.3125 110.382812 223.4375 C 112.054688 223.496094 112.417969 223.59375 114.398438 224.511719 C 115.054688 224.8125 115.617188 225.0625 115.652344 225.0625 C 115.6875 225.0625 115.960938 225.132812 116.257812 225.21875 C 116.878906 225.398438 116.851562 225.441406 115.863281 225.746094 C 114.851562 226.058594 114.675781 226.261719 114.421875 227.402344 C 114.1875 228.480469 113.625 229.28125 112.789062 229.722656 C 111.605469 230.355469 111.492188 230.644531 111.492188 233.039062 C 111.488281 236.207031 111.679688 236.882812 112.710938 237.34375 C 113.5 237.695312 113.726562 237.984375 114.234375 239.265625 C 114.710938 240.464844 114.90625 240.734375 115.371094 240.820312 C 115.847656 240.910156 115.839844 240.652344 115.453125 243.628906 C 115.398438 244.0625 115.199219 244.414062 114.929688 244.558594 C 114.441406 244.820312 114.441406 246.074219 114.925781 247.453125 C 115.15625 248.113281 115.140625 248.496094 114.816406 249.976562 C 114.605469 250.957031 114.601562 251.238281 114.785156 252.9375 L 114.839844 253.457031 L 114.105469 254.15625 C 112.941406 255.269531 113 255.722656 114.347656 256.171875 C 115.378906 256.511719 115.535156 256.644531 115.984375 257.558594 C 116.632812 258.875 116.726562 260.015625 116.285156 261.28125 C 115.796875 262.695312 116.066406 263.589844 119.035156 270.40625 C 120.550781 273.890625 120.59375 274.144531 119.839844 274.992188 C 119.476562 275.402344 119.402344 275.550781 119.402344 275.875 C 119.402344 276.453125 119.765625 277.964844 120.027344 278.484375 C 120.792969 279.992188 120.730469 281.710938 119.867188 282.964844 C 119.234375 283.882812 119.371094 284.988281 120.503906 288.085938 C 121.273438 290.191406 123.117188 291.070312 124.171875 289.835938 C 124.679688 289.242188 124.660156 289.210938 125.363281 291.484375 C 126.054688 293.699219 126.09375 294.460938 125.578125 295.511719 C 125.140625 296.398438 125.671875 296.816406 126.886719 296.546875 C 127.878906 296.324219 128.523438 295.4375 128.632812 294.15625 C 128.679688 293.589844 128.753906 293.332031 128.925781 293.097656 C 129.585938 292.203125 129.714844 291 129.332031 289.339844 C 129.199219 288.761719 129.339844 288.511719 129.746094 288.617188 C 130.269531 288.753906 130.445312 288.410156 130.378906 287.390625 C 130.300781 286.253906 130.386719 286.066406 131.257812 285.472656 C 132.023438 284.953125 132.097656 284.738281 132.019531 283.257812 C 131.953125 281.949219 132.027344 281.835938 132.398438 282.671875 C 133.15625 284.371094 133.257812 285.417969 132.78125 286.644531 C 132.144531 288.292969 132.128906 289.191406 132.703125 291.519531 C 133.09375 293.105469 133.183594 293.226562 133.972656 293.226562 C 135.023438 293.226562 135.703125 292.480469 135.835938 291.179688 C 135.925781 290.328125 136.074219 290.082031 136.710938 289.71875 C 137.097656 289.496094 137.265625 289.335938 137.304688 289.148438 C 137.335938 289.003906 137.375 288.84375 137.390625 288.789062 C 137.402344 288.738281 137.289062 288.347656 137.132812 287.921875 C 136.8125 287.046875 136.824219 286.976562 137.363281 286.296875 C 137.8125 285.726562 138.261719 285.5 138.929688 285.5 C 139.445312 285.496094 139.425781 285.535156 139.40625 284.644531 C 139.367188 282.917969 139.160156 281.613281 138.675781 280.109375 L 138.332031 279.039062 L 138.597656 279.378906 C 139.289062 280.28125 139.539062 280.347656 140.175781 279.816406 C 140.398438 279.628906 140.621094 279.476562 140.671875 279.476562 C 140.71875 279.476562 140.792969 279.464844 140.832031 279.453125 C 140.871094 279.4375 140.910156 280 140.917969 280.695312 C 140.9375 282.308594 141.023438 283.25 141.199219 283.839844 C 141.453125 284.671875 141.417969 284.78125 140.40625 286.304688 C 138.992188 288.4375 138.847656 289.539062 139.785156 291.015625 C 140.058594 291.453125 140.082031 291.546875 140.066406 292.308594 C 140.050781 293.261719 140.164062 293.507812 140.757812 293.8125 C 141.871094 294.378906 142.652344 293.628906 142.476562 292.15625 C 142.445312 291.914062 142.394531 291.492188 142.363281 291.21875 L 142.300781 290.71875 L 142.703125 290.558594 C 143.300781 290.320312 143.699219 290.363281 144.535156 290.753906 C 146.988281 291.902344 148.675781 290.199219 146.300781 288.976562 C 144.476562 288.039062 143.5 285.753906 144.277344 284.242188 L 144.496094 283.816406 L 144.621094 284.109375 C 144.851562 284.640625 144.886719 285.066406 144.761719 285.835938 C 144.601562 286.820312 144.734375 287.015625 146.085938 287.765625 C 148.058594 288.863281 148.851562 288.839844 148.851562 287.691406 C 148.851562 287.308594 149.058594 287.285156 149.359375 287.628906 C 149.769531 288.09375 150.265625 288.226562 150.871094 288.027344 C 151.128906 287.945312 151.636719 287.828125 151.996094 287.769531 C 152.992188 287.613281 153.058594 287.539062 153.164062 286.546875 C 153.191406 286.285156 153.238281 286.246094 153.632812 286.175781 C 153.875 286.128906 154.171875 286.074219 154.292969 286.050781 C 155.035156 285.902344 155.058594 284.992188 154.347656 283.804688 C 153.722656 282.757812 153.515625 281.996094 153.332031 280.074219 C 153.195312 278.632812 153.179688 278.597656 152.191406 277.601562 C 151.730469 277.136719 151.382812 276.722656 151.417969 276.683594 C 151.515625 276.589844 152.378906 276.589844 153.117188 276.6875 C 153.886719 276.785156 153.996094 276.617188 153.832031 275.5625 C 153.773438 275.203125 153.726562 274.144531 153.726562 273.21875 C 153.726562 272.070312 153.675781 271.308594 153.578125 270.847656 C 152.734375 266.996094 152.769531 266.535156 153.960938 265.167969 C 154.859375 264.144531 155.101562 263.160156 154.785156 261.828125 C 154.46875 260.476562 154.597656 260.226562 155.242188 260.972656 C 156.503906 262.441406 156.609375 263.296875 155.757812 265.09375 C 155.035156 266.613281 154.945312 267.148438 154.949219 269.921875 C 154.949219 271.054688 154.976562 271.230469 155.332031 272.40625 L 155.710938 273.675781 L 155.730469 275.820312 C 155.765625 279.007812 155.988281 279.757812 156.964844 279.996094 C 157.320312 280.085938 157.691406 279.757812 158.167969 278.945312 C 158.636719 278.140625 158.796875 278.136719 158.800781 278.925781 C 158.804688 280.191406 159.472656 281.179688 160.296875 281.152344 C 161.566406 281.101562 162.324219 280.648438 162.457031 279.859375 C 162.542969 279.355469 162.796875 279.554688 162.796875 280.125 C 162.796875 281.230469 162.445312 281.761719 161.507812 282.066406 C 160.433594 282.414062 160.222656 282.816406 160.308594 284.34375 C 160.378906 285.625 160.285156 286.269531 159.914062 287.058594 C 159.207031 288.550781 161.011719 288.847656 162.003906 287.402344 C 162.96875 285.996094 163.457031 285.820312 163.3125 286.9375 C 163.082031 288.710938 163.28125 289.332031 164.195312 289.695312 C 165.761719 290.320312 166.632812 290.21875 168.699219 289.171875 C 170.640625 288.1875 170.683594 288.132812 171.039062 286.113281 C 171.214844 285.097656 171.335938 284.914062 172.066406 284.546875 L 172.648438 284.253906 L 172.648438 283.207031 C 172.648438 282.320312 172.824219 280.824219 172.996094 280.242188 C 173.023438 280.15625 173.128906 280.0625 173.234375 280.035156 C 173.335938 280.007812 173.546875 279.78125 173.695312 279.53125 C 174.09375 278.859375 175.390625 277.046875 175.773438 276.617188 C 176.335938 275.992188 176.390625 275.988281 176.996094 276.542969 C 178.207031 277.648438 179.179688 277.238281 179.917969 275.316406 C 180.675781 273.335938 181.023438 272.773438 182.304688 271.433594 C 184.929688 268.6875 186.1875 265.117188 186.203125 260.355469 C 186.207031 259.011719 185.101562 256.726562 183.605469 254.980469 C 182.800781 254.039062 182.730469 253.914062 181.867188 251.78125 C 181.257812 250.277344 181.082031 249.902344 180.414062 248.742188 C 180.257812 248.476562 180.09375 247.964844 180.011719 247.492188 C 179.792969 246.261719 179.542969 245.816406 178.425781 244.699219 C 176.90625 243.167969 176.582031 242.367188 177.03125 241.214844 L 177.136719 240.933594 L 177.496094 241.300781 C 178.007812 241.828125 178.71875 242.121094 179.738281 242.226562 C 182.808594 242.539062 182.835938 242.539062 184.191406 242.179688 C 185.945312 241.710938 187.648438 240.578125 188.761719 239.128906 C 189.273438 238.464844 191.269531 238.941406 192.410156 239.992188 C 193.308594 240.828125 193.542969 240.925781 194.417969 240.816406 C 196.457031 240.566406 198.34375 240.828125 199.375 241.5 C 200.554688 242.273438 202.996094 243.304688 203.957031 243.4375 C 204.195312 243.46875 206.210938 243.515625 208.4375 243.535156 C 211.238281 243.5625 212.582031 243.613281 212.808594 243.691406 C 213.367188 243.894531 213.960938 243.761719 214.390625 243.339844 C 214.835938 242.90625 214.914062 242.921875 215.734375 243.628906 C 216.515625 244.300781 216.824219 244.175781 216.824219 243.179688 L 216.824219 242.78125 L 217.03125 242.964844 C 217.144531 243.066406 217.476562 243.449219 217.765625 243.808594 C 218.390625 244.585938 218.613281 244.71875 219.457031 244.800781 C 220.855469 244.941406 221.535156 245.40625 224.457031 248.21875 C 225.878906 249.585938 227.105469 250.847656 227.191406 251.023438 C 227.273438 251.199219 227.429688 251.566406 227.535156 251.839844 C 227.78125 252.460938 228.117188 252.960938 228.707031 253.585938 C 231.734375 256.773438 234.011719 261.707031 234.285156 265.679688 C 234.550781 269.46875 235.355469 270.289062 237.300781 268.75 C 237.949219 268.238281 237.945312 268.300781 237.136719 271.207031 C 236.910156 272.027344 237.273438 273.890625 237.988281 275.582031 C 238.683594 277.222656 238.835938 277.6875 239.117188 279.039062 C 239.578125 281.230469 239.648438 281.769531 239.789062 284.207031 C 239.867188 285.546875 239.980469 287.085938 240.039062 287.625 C 240.21875 289.273438 240.007812 290.03125 238.738281 292.261719 C 237.519531 294.402344 237.527344 295.023438 238.792969 296.316406 C 239.613281 297.15625 239.636719 297.472656 239.015625 299.222656 C 238.4375 300.859375 238.382812 301.3125 238.660156 302.171875 C 239.003906 303.238281 239.457031 304.078125 239.796875 304.269531 C 240.132812 304.460938 241.007812 304.578125 241.007812 304.4375 C 241.007812 304.289062 241.417969 304.335938 241.855469 304.535156 C 243.636719 305.34375 245.476562 309.027344 245.878906 312.585938 C 246.347656 316.710938 246.828125 318.792969 247.492188 319.582031 C 247.730469 319.863281 248.230469 320.511719 248.601562 321.019531 C 248.976562 321.53125 249.507812 322.210938 249.78125 322.53125 C 250.058594 322.855469 250.597656 323.621094 250.980469 324.238281 C 251.363281 324.855469 251.769531 325.492188 251.890625 325.652344 C 252.210938 326.089844 252.5625 326.828125 253.007812 328.007812 C 253.929688 330.457031 254.523438 331.507812 255.738281 332.867188 C 256.335938 333.535156 256.554688 333.894531 257.25 335.324219 C 258.167969 337.222656 258.449219 337.484375 259.160156 337.101562 C 259.996094 336.65625 259.894531 335.285156 258.878906 333.257812 C 258.609375 332.722656 258.207031 331.855469 257.988281 331.332031 C 257.765625 330.808594 257.390625 330.007812 257.15625 329.550781 C 256.816406 328.890625 256.707031 328.550781 256.617188 327.871094 C 256.550781 327.402344 256.480469 326.882812 256.457031 326.71875 C 256.433594 326.550781 256.238281 326.054688 256.023438 325.609375 C 255.585938 324.703125 255.585938 324.695312 255.6875 323.585938 C 255.765625 322.746094 255.628906 322.277344 255.148438 321.75 C 255.050781 321.644531 254.863281 321.359375 254.734375 321.117188 C 254.605469 320.875 254.359375 320.460938 254.191406 320.191406 C 253.542969 319.152344 253.355469 317.472656 253.636719 315.226562 C 253.820312 313.765625 253.792969 312.796875 253.539062 311.855469 C 253.222656 310.667969 253.390625 310.3125 255.1875 308.351562 C 255.808594 307.675781 255.953125 307.453125 256.144531 306.863281 L 256.367188 306.171875 L 257.285156 306.234375 C 258.765625 306.339844 259.070312 306.183594 260.136719 304.765625 C 261.121094 303.457031 261.925781 303.992188 262.753906 306.5 C 263.472656 308.683594 264.125 309.074219 266.464844 308.71875 C 267.980469 308.488281 269.007812 309.609375 269.480469 312 C 269.773438 313.496094 270.125 314 270.875 314 C 271.765625 314 273.136719 312.898438 273.4375 311.941406 L 273.605469 311.398438 L 273.1875 310.089844 C 272.957031 309.371094 272.640625 308.476562 272.488281 308.101562 C 270.246094 302.664062 269.53125 292.128906 271.097656 287.582031 C 271.628906 286.039062 271.695312 285.472656 271.496094 284.253906 C 271.355469 283.394531 271.160156 282.59375 269.890625 277.664062 C 269.039062 274.359375 269.03125 273.527344 269.855469 273.394531 C 270.542969 273.285156 270.867188 272.238281 270.367188 271.738281 C 270.308594 271.683594 270.265625 271.558594 270.265625 271.464844 C 270.265625 271.371094 270.179688 271.125 270.078125 270.921875 C 269.976562 270.71875 269.820312 270.035156 269.730469 269.382812 C 269.324219 266.421875 268.71875 262.898438 268.269531 260.851562 C 267.164062 255.824219 266.554688 252.148438 265.988281 247.128906 C 265.859375 245.996094 265.664062 245.570312 265.019531 245.027344 C 263.652344 243.871094 262.976562 241.878906 263.476562 240.46875 C 263.75 239.6875 263.695312 239.4375 263.179688 239.078125 C 261.824219 238.140625 260.132812 236.339844 259.933594 235.621094 C 259.878906 235.417969 259.832031 234.414062 259.832031 233.390625 C 259.828125 231.230469 259.71875 230.648438 259.035156 229.152344 L 258.613281 228.230469 L 258.578125 226.8125 C 258.554688 225.8125 258.589844 225.136719 258.699219 224.519531 C 258.984375 222.917969 259.320312 221.21875 259.539062 220.285156 C 260.019531 218.214844 259.65625 216.277344 258.375 214.042969 C 257.175781 211.957031 256.316406 209.53125 255.632812 206.289062 C 255.40625 205.214844 255.140625 203.964844 255.039062 203.511719 C 254.902344 202.886719 254.859375 202.351562 254.875 201.359375 C 254.90625 199.089844 254.226562 199.21875 253.46875 201.625 C 252.925781 203.34375 252.78125 203.386719 252.082031 202.03125 C 250.914062 199.78125 250.070312 199.835938 247.445312 202.316406 C 246.546875 203.164062 246.265625 203.316406 245.59375 203.3125 C 244.34375 203.308594 243.46875 202.695312 241.75 200.632812 L 241.507812 200.339844 L 241.292969 200.550781 C 241.082031 200.761719 241.082031 200.773438 241.050781 205.53125 C 241.007812 211.832031 241.039062 211.703125 239.132812 212.984375 C 237.023438 214.402344 236.261719 215.785156 235.886719 218.871094 C 235.808594 219.511719 235.628906 220.808594 235.488281 221.746094 C 235.136719 224.078125 235.136719 225.628906 235.484375 227.808594 C 235.789062 229.742188 235.792969 229.757812 235.566406 230.035156 C 235.351562 230.300781 234.550781 230.324219 233.726562 230.082031 C 232.765625 229.804688 232.707031 229.921875 232.855469 231.8125 C 232.96875 233.246094 232.964844 233.253906 231.945312 233.253906 C 230.710938 233.253906 229.683594 233.644531 228.632812 234.519531 C 227.5 235.464844 226.796875 235.390625 226.035156 234.238281 C 225.804688 233.882812 225.355469 233.367188 225.035156 233.089844 C 224.699219 232.792969 224.285156 232.292969 224.03125 231.871094 L 223.601562 231.15625 L 223.601562 226.863281 L 223.113281 225.988281 C 222.84375 225.503906 222.53125 224.910156 222.414062 224.664062 C 221.882812 223.527344 219.640625 221.625 218.832031 221.625 C 217.8125 221.625 217.648438 222.613281 217.882812 227.355469 C 218.050781 230.660156 217.617188 232.007812 216.707031 231.035156 C 215.625 229.878906 215.164062 227.238281 215.453125 223.84375 C 215.648438 221.574219 215.589844 218.75 215.34375 218.351562 C 215.199219 218.117188 215.136719 217.878906 215.152344 217.597656 C 215.179688 217.042969 214.902344 216.726562 213.914062 216.195312 C 212.863281 215.632812 212.679688 215.414062 212.246094 214.222656 C 212.042969 213.65625 211.523438 212.582031 211.070312 211.796875 C 210.625 211.019531 210.15625 210.207031 210.03125 209.984375 C 209.523438 209.097656 209.386719 208.511719 209.367188 207.167969 C 209.351562 206.074219 209.3125 205.789062 209.082031 205.101562 C 208.710938 203.984375 208.75 203.542969 209.21875 203.597656 C 210.109375 203.699219 210.144531 203.6875 210.117188 203.320312 C 210.078125 202.84375 209.757812 202.382812 209.285156 202.121094 C 208.195312 201.519531 208.296875 200.460938 209.484375 200.105469 C 210.753906 199.722656 211.082031 199.253906 211.214844 197.609375 C 211.253906 197.128906 211.410156 196.316406 211.558594 195.808594 C 211.964844 194.433594 212.125 193.726562 212.289062 192.585938 C 212.578125 190.566406 212.644531 190.46875 213.996094 190.105469 C 216.484375 189.441406 217.523438 188.472656 218.089844 186.300781 C 218.871094 183.300781 219.304688 183.03125 222.558594 183.535156 C 225.65625 184.011719 227.390625 182.976562 229.171875 179.578125 C 229.636719 178.691406 229.503906 178.609375 230.308594 180.25 C 231.046875 181.757812 231.144531 181.804688 232.308594 181.222656 C 233.550781 180.601562 233.859375 180.011719 233.753906 178.476562 C 233.683594 177.441406 233.785156 177.277344 234.53125 177.277344 C 235.40625 177.277344 236.03125 178.015625 236.5625 179.667969 C 237.066406 181.234375 237.683594 181.851562 238.746094 181.859375 C 240.121094 181.867188 240.625 180.972656 240.664062 178.449219 C 240.675781 177.5625 240.742188 176.535156 240.8125 176.160156 C 240.898438 175.691406 240.914062 175.183594 240.863281 174.503906 C 240.710938 172.5 240.722656 172.355469 241.054688 172.320312 C 241.738281 172.242188 242.425781 172.707031 242.882812 173.554688 C 243.421875 174.558594 244.082031 173.253906 243.640625 172.058594 C 243.28125 171.085938 243.28125 170.980469 243.648438 170.855469 C 244.042969 170.714844 244.824219 170.710938 245.503906 170.847656 C 248.425781 171.425781 250.410156 169.21875 249.699219 166.1875 C 249.261719 164.332031 249.441406 163.671875 250.761719 162.292969 C 251.976562 161.023438 252.039062 160.855469 252.125 158.839844 L 252.191406 157.226562 L 252.636719 156.257812 C 254.214844 152.800781 254.511719 151.628906 254.242188 149.960938 C 253.871094 147.695312 254.476562 147.082031 256.1875 147.984375 C 259.023438 149.488281 258.683594 149.417969 261.292969 149.046875 C 261.425781 149.027344 261.84375 148.984375 262.21875 148.949219 C 265.082031 148.679688 265.425781 148.351562 265.066406 146.242188 C 264.722656 144.226562 263.613281 143.125 261.90625 143.105469 L 261.199219 143.097656 L 260.296875 142.160156 C 259.320312 141.152344 258.929688 140.863281 256.90625 139.660156 C 254.847656 138.441406 253.832031 137.976562 251.265625 137.09375 C 249.945312 136.636719 249.558594 136.425781 248.761719 135.726562 C 247.613281 134.71875 247.121094 134.503906 244.890625 134.023438 C 242.933594 133.601562 236.519531 134.046875 233.441406 134.820312 C 233.207031 134.878906 232.914062 134.636719 232.914062 134.382812 C 232.914062 133.570312 232.222656 133.597656 231.320312 134.453125 C 230.746094 134.996094 230.496094 135.160156 229.96875 135.335938 C 229.582031 135.464844 229.0625 135.746094 228.683594 136.035156 C 227.574219 136.871094 227.304688 136.851562 226.382812 135.867188 C 225.808594 135.253906 225.777344 135.199219 225.84375 134.867188 C 225.878906 134.671875 225.933594 134.394531 225.960938 134.246094 C 226.082031 133.625 225.347656 133.859375 224.132812 134.832031 C 222.34375 136.269531 221.554688 136.316406 218.140625 135.195312 C 217.605469 135.019531 216.574219 134.78125 215.847656 134.667969 C 214.378906 134.4375 213.902344 134.25 212.875 133.492188 C 211.890625 132.765625 211.4375 132.703125 210.652344 133.183594 C 209.683594 133.777344 208.121094 134.054688 205.355469 134.125 C 204.226562 134.152344 202.847656 134.21875 202.296875 134.277344 C 201.746094 134.332031 201.167969 134.351562 201.011719 134.316406 C 200.835938 134.277344 200.492188 134.335938 200.078125 134.472656 C 199.65625 134.613281 199.191406 134.691406 198.75 134.691406 C 198.175781 134.691406 198.066406 134.714844 198.027344 134.871094 C 197.996094 134.988281 197.890625 135.050781 197.722656 135.054688 C 196.9375 135.058594 195.710938 135.179688 195.027344 135.3125 C 193.507812 135.609375 193.085938 135.535156 192.179688 134.796875 C 191.464844 134.210938 191.21875 134.222656 190.242188 134.882812 C 189.105469 135.648438 187.53125 135.609375 187.148438 134.804688 C 186.847656 134.171875 186.453125 134.160156 185.1875 134.734375 C 184.320312 135.128906 183.667969 135.175781 181.472656 135.011719 C 180.449219 134.933594 180.351562 134.941406 179.277344 135.230469 C 176.5 135.980469 176.007812 135.957031 173.625 134.980469 C 171.613281 134.15625 170.539062 133.789062 169.574219 133.585938 C 169.09375 133.488281 168.214844 133.289062 167.625 133.148438 C 167.035156 133.007812 166.027344 132.789062 165.382812 132.664062 C 161.585938 131.917969 160.039062 131.320312 157.582031 129.636719 C 155.648438 128.316406 155.46875 128.253906 154.59375 128.664062 C 153.707031 129.074219 153.769531 129.117188 152.246094 127.066406 C 151.609375 126.210938 151.667969 125.378906 152.480469 123.542969 C 153.167969 121.988281 153.328125 121.496094 153.492188 120.375 C 153.574219 119.839844 153.78125 118.917969 153.953125 118.328125 C 154.542969 116.300781 154.359375 114.621094 153.238281 111.777344 C 152.304688 109.410156 152.140625 108.40625 152.472656 107.0625 C 152.628906 106.4375 152.683594 105.898438 152.691406 104.863281 L 152.703125 103.492188 L 153.207031 102.667969 C 153.910156 101.507812 154.539062 100.070312 154.464844 99.78125 C 154.421875 99.613281 154.21875 99.457031 153.75 99.226562 C 152.9375 98.832031 152.933594 98.730469 153.703125 97.722656 L 154.261719 96.996094 L 154.03125 96.8125 C 153.886719 96.695312 153.652344 96.628906 153.382812 96.628906 C 152.691406 96.628906 152.515625 96.511719 152.265625 95.882812 C 152.140625 95.570312 151.84375 94.933594 151.605469 94.46875 C 151.238281 93.761719 151.160156 93.515625 151.121094 92.910156 C 151.066406 92.148438 150.992188 91.941406 150.429688 91.035156 C 149.613281 89.726562 148.960938 89.25 147.734375 89.066406 C 146.9375 88.945312 146.804688 88.734375 146.804688 87.570312 C 146.804688 86.40625 146.730469 86.175781 146.285156 85.964844 C 145.394531 85.542969 144.800781 86.007812 144.617188 87.285156 C 144.535156 87.851562 144.25 88.289062 143.683594 88.699219 C 142.753906 89.371094 142.695312 89.585938 143.242188 90.351562 C 144.378906 91.957031 144.320312 91.839844 144.320312 92.421875 C 144.320312 93.097656 143.976562 93.671875 142.917969 94.773438 C 142.183594 95.542969 141.988281 95.917969 141.675781 97.167969 C 141.585938 97.515625 141.476562 97.800781 141.425781 97.800781 C 141.214844 97.800781 140.570312 97.386719 139.996094 96.890625 C 139.300781 96.285156 138.890625 96.15625 138.234375 96.335938 C 137.644531 96.492188 137.191406 96.375 136.363281 95.839844 C 135.300781 95.148438 134.96875 95.183594 134.148438 96.054688 C 133.804688 96.414062 133.769531 96.429688 133.445312 96.339844 C 132.835938 96.167969 131.449219 94.949219 131.351562 94.5 C 131.175781 93.691406 130.695312 93.324219 129.679688 93.207031 C 128.816406 93.113281 128.734375 93.054688 128.226562 92.1875 C 127.601562 91.113281 126.777344 90.503906 125.660156 90.285156 C 124.769531 90.109375 124.757812 90.082031 124.660156 87.824219 C 124.574219 85.730469 124.554688 85.589844 124.207031 84.488281 C 123.863281 83.398438 123.847656 82.40625 124.167969 82.0625 C 124.699219 81.496094 124.257812 80.867188 122.980469 80.378906 C 122.601562 80.234375 122.132812 79.972656 121.945312 79.796875 L 121.597656 79.480469 L 121.835938 79.039062 C 122.296875 78.1875 121.820312 77.835938 120.015625 77.714844 C 118.789062 77.628906 118.886719 77.675781 117.816406 76.652344 C 116.925781 75.800781 116.769531 75.78125 115.558594 76.378906 C 114.027344 77.136719 114.007812 77.574219 115.449219 78.902344 C 116.277344 79.667969 116.492188 80.015625 116.730469 80.988281 C 117.042969 82.285156 117.363281 82.527344 118.691406 82.472656 L 119.546875 82.441406 L 119.71875 82.78125 C 119.8125 82.96875 119.890625 83.308594 119.890625 83.535156 C 119.890625 83.890625 119.929688 83.964844 120.175781 84.09375 L 120.460938 84.242188 L 120.25 84.828125 C 120 85.519531 120.046875 85.511719 118.710938 85.113281 C 117.25 84.679688 117.234375 84.671875 116.675781 84.09375 C 115.429688 82.800781 113.335938 83.4375 113.097656 85.175781 C 113.023438 85.710938 112.929688 85.765625 112.441406 85.558594 C 111.933594 85.347656 111.300781 84.738281 110.8125 83.992188 C 110.128906 82.941406 109.628906 82.839844 108.105469 83.449219 C 105.417969 84.527344 104.15625 84.144531 106.554688 82.976562 C 107.714844 82.414062 108.480469 81.789062 108.480469 81.410156 C 108.480469 80.875 108.304688 80.710938 106.511719 79.574219 C 105.800781 79.121094 105.75 79.046875 105.75 78.480469 C 105.75 77.695312 105.382812 77.230469 104.382812 76.734375 C 103.527344 76.3125 102.765625 75.71875 102.074219 74.929688 C 101.308594 74.058594 100.820312 73.753906 99.703125 73.460938 C 98.683594 73.191406 98.09375 72.792969 97.558594 72.003906 C 96.992188 71.171875 96.878906 71.070312 96.175781 70.792969 C 95.53125 70.539062 95.496094 70.476562 95.570312 69.734375 C 95.617188 69.238281 95.410156 67.601562 95.265625 67.371094 C 95.238281 67.328125 95.257812 67.261719 95.3125 67.226562 C 95.472656 67.128906 95.425781 66.984375 95.234375 66.984375 C 95.136719 66.984375 94.796875 67.277344 94.480469 67.636719 M 196.390625 242.703125 C 196.121094 242.796875 195.328125 243.171875 194.632812 243.527344 C 193.9375 243.882812 193.296875 244.175781 193.207031 244.175781 C 192.695312 244.175781 193.234375 245.609375 194.34375 247.199219 C 195.246094 248.496094 195.308594 248.664062 195.238281 249.714844 C 195.136719 251.25 195.679688 251.847656 198.136719 252.914062 C 199.164062 253.359375 199.621094 253.71875 200.015625 254.382812 C 200.707031 255.554688 201.601562 255.453125 203.835938 253.941406 C 205.183594 253.035156 205.515625 252.980469 206.59375 253.511719 C 208.515625 254.460938 209.769531 253.269531 208.808594 251.402344 C 208.410156 250.625 208.136719 250.417969 207.402344 250.332031 C 206.5625 250.230469 206.585938 250.269531 206.585938 248.96875 C 206.585938 247.585938 206.496094 247.394531 205.871094 247.394531 C 205.386719 247.394531 204.898438 247.671875 204.441406 248.203125 C 203.863281 248.867188 203.832031 248.863281 203.019531 248.042969 L 202.292969 247.3125 L 202.488281 246.890625 C 203.429688 244.808594 198.996094 241.761719 196.390625 242.703125 M 187.300781 243.199219 C 186.371094 243.621094 185.035156 244.910156 184.125 246.273438 C 183.800781 246.753906 183.351562 247.367188 183.125 247.636719 C 181.894531 249.101562 181.804688 250.855469 182.992188 250.21875 C 183.140625 250.140625 183.179688 250.148438 183.179688 250.265625 C 183.179688 250.34375 183.328125 250.558594 183.507812 250.738281 C 184.121094 251.351562 184.175781 251.5 184.257812 252.796875 C 184.363281 254.378906 184.460938 254.597656 185.238281 255.015625 C 187.148438 256.03125 187.824219 257.921875 187.910156 262.507812 C 187.980469 266.285156 187.773438 267.332031 186.59375 269.238281 C 186.308594 269.695312 185.921875 270.328125 185.730469 270.652344 C 184.953125 271.964844 185.34375 273.394531 186.566406 273.714844 C 186.769531 273.765625 187.140625 273.859375 187.394531 273.925781 C 188.300781 274.152344 188.425781 274.691406 188.210938 277.539062 C 188.09375 279.101562 188.445312 279.5625 188.96875 278.527344 C 189.253906 277.964844 189.46875 277.765625 189.878906 277.675781 C 190.371094 277.574219 190.941406 276.972656 191.546875 275.921875 L 192.101562 274.949219 L 192.730469 274.824219 C 194.386719 274.488281 195.132812 273.128906 194.824219 270.988281 C 194.503906 268.769531 194.648438 267.167969 195.378906 264.894531 C 197.015625 259.777344 197.171875 258.820312 196.632812 257.113281 C 196.449219 256.535156 196.328125 256.308594 195.214844 254.492188 C 194.941406 254.046875 194.371094 253.070312 193.953125 252.316406 C 193.53125 251.566406 193.089844 250.773438 192.964844 250.558594 C 192.398438 249.558594 191.398438 246.683594 191.136719 245.308594 C 190.949219 244.34375 190.789062 244.078125 190.371094 244.074219 C 190.023438 244.074219 189.558594 243.863281 188.742188 243.34375 C 188.136719 242.957031 187.882812 242.933594 187.300781 243.199219 M 216.675781 249.539062 C 216.5 249.828125 216.550781 250.132812 216.871094 250.667969 C 217.855469 252.300781 218.207031 253.691406 218.183594 255.875 C 218.15625 258.023438 218.167969 258.0625 219.144531 259.679688 C 220.160156 261.371094 220.5625 261.855469 221.324219 262.332031 C 221.828125 262.640625 221.992188 262.964844 221.992188 263.628906 C 221.992188 266.328125 225.140625 263.3125 225.402344 260.363281 C 225.453125 259.800781 225.566406 259.128906 225.65625 258.871094 C 225.886719 258.199219 225.765625 257.984375 224.371094 256.558594 C 223 255.160156 222.75 254.742188 222.53125 253.480469 C 222.199219 251.574219 221.972656 251.238281 220.433594 250.367188 C 219.265625 249.707031 219.0625 249.65625 218.332031 249.84375 C 217.9375 249.941406 217.847656 249.929688 217.375 249.695312 C 216.785156 249.410156 216.761719 249.402344 216.675781 249.539062 M 204.429688 256.785156 C 203.574219 257.105469 203.074219 257.714844 203.074219 258.425781 C 203.078125 258.898438 203.363281 259.613281 203.601562 259.746094 C 203.742188 259.828125 203.734375 259.886719 203.542969 260.339844 L 203.328125 260.847656 L 203.632812 261.75 C 204.050781 263.011719 204.085938 263.464844 203.851562 264.871094 C 203.632812 266.226562 203.496094 267.347656 203.417969 268.554688 C 203.386719 269.011719 203.339844 269.515625 203.320312 269.675781 C 203.273438 269.988281 203.203125 271.46875 203.117188 273.855469 C 203.054688 275.699219 203.097656 275.800781 203.929688 275.714844 C 205.726562 275.535156 206.121094 275.160156 206.488281 273.304688 C 206.613281 272.664062 206.828125 272.414062 208.074219 271.464844 C 209.019531 270.738281 209.089844 270.628906 209.28125 269.566406 C 209.71875 267.117188 209.226562 264.550781 207.777344 261.679688 C 207.359375 260.855469 207.332031 260.410156 207.628906 259.113281 C 207.949219 257.714844 207.804688 257.3125 206.824219 256.929688 C 206.203125 256.6875 204.898438 256.609375 204.429688 256.785156 " fill-opacity="1" fill-rule="evenodd"/></g><g clip-path="url(#c15d21dca1)"><path fill="#eaf3fe" d="M 105.898438 172.546875 C 105.898438 111.433594 157.355469 61.820312 220.738281 61.820312 C 284.117188 61.820312 335.574219 111.433594 335.574219 172.546875 C 335.574219 205.5 320.351562 236.742188 294.046875 257.78125 L 301.125 291.496094 L 271.996094 271.636719 C 256.074219 279.292969 238.527344 283.277344 220.738281 283.277344 C 157.355469 283.277344 105.898438 233.660156 105.898438 172.546875 Z M 105.898438 172.546875 " fill-opacity="1" fill-rule="evenodd"/></g><g clip-path="url(#e1edf84671)"><path fill="#ebebeb" d="M 299.082031 115.03125 C 299.082031 111.605469 296.300781 108.824219 292.875 108.824219 L 148.601562 108.824219 C 145.175781 108.824219 142.394531 111.605469 142.394531 115.03125 L 142.394531 226.835938 C 142.394531 230.261719 145.175781 233.042969 148.601562 233.042969 L 292.875 233.042969 C 296.300781 233.042969 299.082031 230.261719 299.082031 226.835938 Z M 299.082031 115.03125 " fill-opacity="1" fill-rule="evenodd"/></g><g clip-path="url(#05679b5e63)"><g clip-path="url(#55525bac8a)"><path fill="#016bd7" d="M 121.933594 96.171875 L 319.539062 96.171875 L 319.539062 121.480469 L 121.933594 121.480469 Z M 121.933594 96.171875 " fill-opacity="1" fill-rule="evenodd"/></g></g><g clip-path="url(#d67934b516)"><g clip-path="url(#206f1befae)"><path fill="#eaf3fe" d="M 124.035156 133.695312 L 317.4375 133.695312 L 317.4375 135.109375 L 124.035156 135.109375 Z M 124.035156 133.695312 " fill-opacity="1" fill-rule="evenodd"/></g></g><g clip-path="url(#d732f9ee56)"><g clip-path="url(#844cf2c801)"><path fill="#eaf3fe" d="M 124.035156 145.933594 L 317.4375 145.933594 L 317.4375 147.347656 L 124.035156 147.347656 Z M 124.035156 145.933594 " fill-opacity="1" fill-rule="evenodd"/></g></g><g clip-path="url(#3f3b9f032e)"><g clip-path="url(#38c8da697c)"><path fill="#eaf3fe" d="M 124.035156 158.175781 L 317.4375 158.175781 L 317.4375 159.585938 L 124.035156 159.585938 Z M 124.035156 158.175781 " fill-opacity="1" fill-rule="evenodd"/></g></g><g clip-path="url(#cb5f9ece55)"><g clip-path="url(#176de1a6fa)"><path fill="#eaf3fe" d="M 124.035156 170.414062 L 317.4375 170.414062 L 317.4375 171.824219 L 124.035156 171.824219 Z M 124.035156 170.414062 " fill-opacity="1" fill-rule="evenodd"/></g></g><g clip-path="url(#8a206a585d)"><g clip-path="url(#48e72cb088)"><path fill="#eaf3fe" d="M 124.035156 182.652344 L 317.4375 182.652344 L 317.4375 184.0625 L 124.035156 184.0625 Z M 124.035156 182.652344 " fill-opacity="1" fill-rule="evenodd"/></g></g><g clip-path="url(#3579cf16f7)"><g clip-path="url(#a9316d5904)"><path fill="#eaf3fe" d="M 124.035156 194.890625 L 317.4375 194.890625 L 317.4375 196.300781 L 124.035156 196.300781 Z M 124.035156 194.890625 " fill-opacity="1" fill-rule="evenodd"/></g></g><g clip-path="url(#74232ce691)"><g clip-path="url(#aef85e0c04)"><path fill="#eaf3fe" d="M 124.035156 207.128906 L 317.4375 207.128906 L 317.4375 208.539062 L 124.035156 208.539062 Z M 124.035156 207.128906 " fill-opacity="1" fill-rule="evenodd"/></g></g><g clip-path="url(#ca44c62fe6)"><g clip-path="url(#8b378c3453)"><path fill="#eaf3fe" d="M 124.035156 219.367188 L 317.4375 219.367188 L 317.4375 220.78125 L 124.035156 220.78125 Z M 124.035156 219.367188 " fill-opacity="1" fill-rule="evenodd"/></g></g><path fill="#9f9f9f" d="M 167.007812 127.828125 C 167.007812 127.078125 166.398438 126.472656 165.648438 126.472656 L 151.875 126.472656 C 151.125 126.472656 150.519531 127.078125 150.519531 127.828125 C 150.519531 128.578125 151.125 129.1875 151.875 129.1875 L 165.648438 129.1875 C 166.398438 129.1875 167.007812 128.578125 167.007812 127.828125 Z M 167.007812 127.828125 " fill-opacity="1" fill-rule="evenodd"/><path fill="#9f9f9f" d="M 167.007812 140.035156 C 167.007812 139.285156 166.398438 138.679688 165.648438 138.679688 L 151.875 138.679688 C 151.125 138.679688 150.519531 139.285156 150.519531 140.035156 C 150.519531 140.785156 151.125 141.394531 151.875 141.394531 L 165.648438 141.394531 C 166.398438 141.394531 167.007812 140.785156 167.007812 140.035156 Z M 167.007812 140.035156 " fill-opacity="1" fill-rule="evenodd"/><path fill="#9f9f9f" d="M 167.007812 152.242188 C 167.007812 151.492188 166.398438 150.886719 165.648438 150.886719 L 151.875 150.886719 C 151.125 150.886719 150.519531 151.492188 150.519531 152.242188 C 150.519531 152.992188 151.125 153.601562 151.875 153.601562 L 165.648438 153.601562 C 166.398438 153.601562 167.007812 152.992188 167.007812 152.242188 Z M 167.007812 152.242188 " fill-opacity="1" fill-rule="evenodd"/><path fill="#9f9f9f" d="M 167.007812 164.449219 C 167.007812 163.699219 166.398438 163.09375 165.648438 163.09375 L 151.875 163.09375 C 151.125 163.09375 150.519531 163.699219 150.519531 164.449219 C 150.519531 165.199219 151.125 165.808594 151.875 165.808594 L 165.648438 165.808594 C 166.398438 165.808594 167.007812 165.199219 167.007812 164.449219 Z M 167.007812 164.449219 " fill-opacity="1" fill-rule="evenodd"/><path fill="#9f9f9f" d="M 167.007812 176.65625 C 167.007812 175.90625 166.398438 175.300781 165.648438 175.300781 L 151.875 175.300781 C 151.125 175.300781 150.519531 175.90625 150.519531 176.65625 C 150.519531 177.40625 151.125 178.015625 151.875 178.015625 L 165.648438 178.015625 C 166.398438 178.015625 167.007812 177.40625 167.007812 176.65625 Z M 167.007812 176.65625 " fill-opacity="1" fill-rule="evenodd"/><path fill="#9f9f9f" d="M 167.007812 188.863281 C 167.007812 188.117188 166.398438 187.507812 165.648438 187.507812 L 151.875 187.507812 C 151.125 187.507812 150.519531 188.117188 150.519531 188.863281 C 150.519531 189.613281 151.125 190.222656 151.875 190.222656 L 165.648438 190.222656 C 166.398438 190.222656 167.007812 189.613281 167.007812 188.863281 Z M 167.007812 188.863281 " fill-opacity="1" fill-rule="evenodd"/><path fill="#9f9f9f" d="M 167.007812 201.070312 C 167.007812 200.324219 166.398438 199.714844 165.648438 199.714844 L 151.875 199.714844 C 151.125 199.714844 150.519531 200.324219 150.519531 201.070312 C 150.519531 201.820312 151.125 202.429688 151.875 202.429688 L 165.648438 202.429688 C 166.398438 202.429688 167.007812 201.820312 167.007812 201.070312 Z M 167.007812 201.070312 " fill-opacity="1" fill-rule="evenodd"/><path fill="#9f9f9f" d="M 167.007812 213.277344 C 167.007812 212.53125 166.398438 211.921875 165.648438 211.921875 L 151.875 211.921875 C 151.125 211.921875 150.519531 212.53125 150.519531 213.277344 C 150.519531 214.027344 151.125 214.636719 151.875 214.636719 L 165.648438 214.636719 C 166.398438 214.636719 167.007812 214.027344 167.007812 213.277344 Z M 167.007812 213.277344 " fill-opacity="1" fill-rule="evenodd"/><path fill="#9f9f9f" d="M 167.007812 225.488281 C 167.007812 224.738281 166.398438 224.128906 165.648438 224.128906 L 151.875 224.128906 C 151.125 224.128906 150.519531 224.738281 150.519531 225.488281 C 150.519531 226.234375 151.125 226.84375 151.875 226.84375 L 165.648438 226.84375 C 166.398438 226.84375 167.007812 226.234375 167.007812 225.488281 Z M 167.007812 225.488281 " fill-opacity="1" fill-rule="evenodd"/><path fill="#9f9f9f" d="M 197.992188 127.828125 C 197.992188 127.078125 197.386719 126.472656 196.636719 126.472656 L 182.863281 126.472656 C 182.113281 126.472656 181.503906 127.078125 181.503906 127.828125 C 181.503906 128.578125 182.113281 129.1875 182.863281 129.1875 L 196.636719 129.1875 C 197.386719 129.1875 197.992188 128.578125 197.992188 127.828125 Z M 197.992188 127.828125 " fill-opacity="1" fill-rule="evenodd"/><path fill="#9f9f9f" d="M 197.992188 140.035156 C 197.992188 139.285156 197.386719 138.679688 196.636719 138.679688 L 182.863281 138.679688 C 182.113281 138.679688 181.503906 139.285156 181.503906 140.035156 C 181.503906 140.785156 182.113281 141.394531 182.863281 141.394531 L 196.636719 141.394531 C 197.386719 141.394531 197.992188 140.785156 197.992188 140.035156 Z M 197.992188 140.035156 " fill-opacity="1" fill-rule="evenodd"/><path fill="#9f9f9f" d="M 197.992188 152.242188 C 197.992188 151.492188 197.386719 150.886719 196.636719 150.886719 L 182.863281 150.886719 C 182.113281 150.886719 181.503906 151.492188 181.503906 152.242188 C 181.503906 152.992188 182.113281 153.601562 182.863281 153.601562 L 196.636719 153.601562 C 197.386719 153.601562 197.992188 152.992188 197.992188 152.242188 Z M 197.992188 152.242188 " fill-opacity="1" fill-rule="evenodd"/><path fill="#9f9f9f" d="M 197.992188 164.449219 C 197.992188 163.699219 197.386719 163.09375 196.636719 163.09375 L 182.863281 163.09375 C 182.113281 163.09375 181.503906 163.699219 181.503906 164.449219 C 181.503906 165.199219 182.113281 165.808594 182.863281 165.808594 L 196.636719 165.808594 C 197.386719 165.808594 197.992188 165.199219 197.992188 164.449219 Z M 197.992188 164.449219 " fill-opacity="1" fill-rule="evenodd"/><path fill="#9f9f9f" d="M 197.992188 176.65625 C 197.992188 175.90625 197.386719 175.300781 196.636719 175.300781 L 182.863281 175.300781 C 182.113281 175.300781 181.503906 175.90625 181.503906 176.65625 C 181.503906 177.40625 182.113281 178.015625 182.863281 178.015625 L 196.636719 178.015625 C 197.386719 178.015625 197.992188 177.40625 197.992188 176.65625 Z M 197.992188 176.65625 " fill-opacity="1" fill-rule="evenodd"/><path fill="#9f9f9f" d="M 197.992188 188.863281 C 197.992188 188.117188 197.386719 187.507812 196.636719 187.507812 L 182.863281 187.507812 C 182.113281 187.507812 181.503906 188.117188 181.503906 188.863281 C 181.503906 189.613281 182.113281 190.222656 182.863281 190.222656 L 196.636719 190.222656 C 197.386719 190.222656 197.992188 189.613281 197.992188 188.863281 Z M 197.992188 188.863281 " fill-opacity="1" fill-rule="evenodd"/><path fill="#9f9f9f" d="M 197.992188 201.070312 C 197.992188 200.324219 197.386719 199.714844 196.636719 199.714844 L 182.863281 199.714844 C 182.113281 199.714844 181.503906 200.324219 181.503906 201.070312 C 181.503906 201.820312 182.113281 202.429688 182.863281 202.429688 L 196.636719 202.429688 C 197.386719 202.429688 197.992188 201.820312 197.992188 201.070312 Z M 197.992188 201.070312 " fill-opacity="1" fill-rule="evenodd"/><path fill="#9f9f9f" d="M 197.992188 213.277344 C 197.992188 212.53125 197.386719 211.921875 196.636719 211.921875 L 182.863281 211.921875 C 182.113281 211.921875 181.503906 212.53125 181.503906 213.277344 C 181.503906 214.027344 182.113281 214.636719 182.863281 214.636719 L 196.636719 214.636719 C 197.386719 214.636719 197.992188 214.027344 197.992188 213.277344 Z M 197.992188 213.277344 " fill-opacity="1" fill-rule="evenodd"/><path fill="#9f9f9f" d="M 197.992188 225.488281 C 197.992188 224.738281 197.386719 224.128906 196.636719 224.128906 L 182.863281 224.128906 C 182.113281 224.128906 181.503906 224.738281 181.503906 225.488281 C 181.503906 226.234375 182.113281 226.84375 182.863281 226.84375 L 196.636719 226.84375 C 197.386719 226.84375 197.992188 226.234375 197.992188 225.488281 Z M 197.992188 225.488281 " fill-opacity="1" fill-rule="evenodd"/><path fill="#9f9f9f" d="M 228.980469 127.828125 C 228.980469 127.078125 228.371094 126.472656 227.625 126.472656 L 213.851562 126.472656 C 213.101562 126.472656 212.492188 127.078125 212.492188 127.828125 C 212.492188 128.578125 213.101562 129.1875 213.851562 129.1875 L 227.625 129.1875 C 228.371094 129.1875 228.980469 128.578125 228.980469 127.828125 Z M 228.980469 127.828125 " fill-opacity="1" fill-rule="evenodd"/><path fill="#9f9f9f" d="M 228.980469 140.035156 C 228.980469 139.285156 228.371094 138.679688 227.625 138.679688 L 213.851562 138.679688 C 213.101562 138.679688 212.492188 139.285156 212.492188 140.035156 C 212.492188 140.785156 213.101562 141.394531 213.851562 141.394531 L 227.625 141.394531 C 228.371094 141.394531 228.980469 140.785156 228.980469 140.035156 Z M 228.980469 140.035156 " fill-opacity="1" fill-rule="evenodd"/><path fill="#9f9f9f" d="M 228.980469 152.242188 C 228.980469 151.492188 228.371094 150.886719 227.625 150.886719 L 213.851562 150.886719 C 213.101562 150.886719 212.492188 151.492188 212.492188 152.242188 C 212.492188 152.992188 213.101562 153.601562 213.851562 153.601562 L 227.625 153.601562 C 228.371094 153.601562 228.980469 152.992188 228.980469 152.242188 Z M 228.980469 152.242188 " fill-opacity="1" fill-rule="evenodd"/><path fill="#9f9f9f" d="M 228.980469 164.449219 C 228.980469 163.699219 228.371094 163.09375 227.625 163.09375 L 213.851562 163.09375 C 213.101562 163.09375 212.492188 163.699219 212.492188 164.449219 C 212.492188 165.199219 213.101562 165.808594 213.851562 165.808594 L 227.625 165.808594 C 228.371094 165.808594 228.980469 165.199219 228.980469 164.449219 Z M 228.980469 164.449219 " fill-opacity="1" fill-rule="evenodd"/><path fill="#9f9f9f" d="M 228.980469 176.65625 C 228.980469 175.90625 228.371094 175.300781 227.625 175.300781 L 213.851562 175.300781 C 213.101562 175.300781 212.492188 175.90625 212.492188 176.65625 C 212.492188 177.40625 213.101562 178.015625 213.851562 178.015625 L 227.625 178.015625 C 228.371094 178.015625 228.980469 177.40625 228.980469 176.65625 Z M 228.980469 176.65625 " fill-opacity="1" fill-rule="evenodd"/><path fill="#9f9f9f" d="M 228.980469 188.863281 C 228.980469 188.117188 228.371094 187.507812 227.625 187.507812 L 213.851562 187.507812 C 213.101562 187.507812 212.492188 188.117188 212.492188 188.863281 C 212.492188 189.613281 213.101562 190.222656 213.851562 190.222656 L 227.625 190.222656 C 228.371094 190.222656 228.980469 189.613281 228.980469 188.863281 Z M 228.980469 188.863281 " fill-opacity="1" fill-rule="evenodd"/><path fill="#9f9f9f" d="M 228.980469 201.070312 C 228.980469 200.324219 228.371094 199.714844 227.625 199.714844 L 213.851562 199.714844 C 213.101562 199.714844 212.492188 200.324219 212.492188 201.070312 C 212.492188 201.820312 213.101562 202.429688 213.851562 202.429688 L 227.625 202.429688 C 228.371094 202.429688 228.980469 201.820312 228.980469 201.070312 Z M 228.980469 201.070312 " fill-opacity="1" fill-rule="evenodd"/><path fill="#9f9f9f" d="M 228.980469 213.277344 C 228.980469 212.53125 228.371094 211.921875 227.625 211.921875 L 213.851562 211.921875 C 213.101562 211.921875 212.492188 212.53125 212.492188 213.277344 C 212.492188 214.027344 213.101562 214.636719 213.851562 214.636719 L 227.625 214.636719 C 228.371094 214.636719 228.980469 214.027344 228.980469 213.277344 Z M 228.980469 213.277344 " fill-opacity="1" fill-rule="evenodd"/><path fill="#9f9f9f" d="M 228.980469 225.488281 C 228.980469 224.738281 228.371094 224.128906 227.625 224.128906 L 213.851562 224.128906 C 213.101562 224.128906 212.492188 224.738281 212.492188 225.488281 C 212.492188 226.234375 213.101562 226.84375 213.851562 226.84375 L 227.625 226.84375 C 228.371094 226.84375 228.980469 226.234375 228.980469 225.488281 Z M 228.980469 225.488281 " fill-opacity="1" fill-rule="evenodd"/><path fill="#9f9f9f" d="M 259.96875 127.828125 C 259.96875 127.078125 259.359375 126.472656 258.609375 126.472656 L 244.839844 126.472656 C 244.089844 126.472656 243.480469 127.078125 243.480469 127.828125 C 243.480469 128.578125 244.089844 129.1875 244.839844 129.1875 L 258.609375 129.1875 C 259.359375 129.1875 259.96875 128.578125 259.96875 127.828125 Z M 259.96875 127.828125 " fill-opacity="1" fill-rule="evenodd"/><path fill="#9f9f9f" d="M 259.96875 140.035156 C 259.96875 139.285156 259.359375 138.679688 258.609375 138.679688 L 244.839844 138.679688 C 244.089844 138.679688 243.480469 139.285156 243.480469 140.035156 C 243.480469 140.785156 244.089844 141.394531 244.839844 141.394531 L 258.609375 141.394531 C 259.359375 141.394531 259.96875 140.785156 259.96875 140.035156 Z M 259.96875 140.035156 " fill-opacity="1" fill-rule="evenodd"/><path fill="#9f9f9f" d="M 259.96875 152.242188 C 259.96875 151.492188 259.359375 150.886719 258.609375 150.886719 L 244.839844 150.886719 C 244.089844 150.886719 243.480469 151.492188 243.480469 152.242188 C 243.480469 152.992188 244.089844 153.601562 244.839844 153.601562 L 258.609375 153.601562 C 259.359375 153.601562 259.96875 152.992188 259.96875 152.242188 Z M 259.96875 152.242188 " fill-opacity="1" fill-rule="evenodd"/><path fill="#9f9f9f" d="M 259.96875 164.449219 C 259.96875 163.699219 259.359375 163.09375 258.609375 163.09375 L 244.839844 163.09375 C 244.089844 163.09375 243.480469 163.699219 243.480469 164.449219 C 243.480469 165.199219 244.089844 165.808594 244.839844 165.808594 L 258.609375 165.808594 C 259.359375 165.808594 259.96875 165.199219 259.96875 164.449219 Z M 259.96875 164.449219 " fill-opacity="1" fill-rule="evenodd"/><path fill="#9f9f9f" d="M 259.96875 176.65625 C 259.96875 175.90625 259.359375 175.300781 258.609375 175.300781 L 244.839844 175.300781 C 244.089844 175.300781 243.480469 175.90625 243.480469 176.65625 C 243.480469 177.40625 244.089844 178.015625 244.839844 178.015625 L 258.609375 178.015625 C 259.359375 178.015625 259.96875 177.40625 259.96875 176.65625 Z M 259.96875 176.65625 " fill-opacity="1" fill-rule="evenodd"/><path fill="#9f9f9f" d="M 259.96875 188.863281 C 259.96875 188.117188 259.359375 187.507812 258.609375 187.507812 L 244.839844 187.507812 C 244.089844 187.507812 243.480469 188.117188 243.480469 188.863281 C 243.480469 189.613281 244.089844 190.222656 244.839844 190.222656 L 258.609375 190.222656 C 259.359375 190.222656 259.96875 189.613281 259.96875 188.863281 Z M 259.96875 188.863281 " fill-opacity="1" fill-rule="evenodd"/><path fill="#9f9f9f" d="M 259.96875 201.070312 C 259.96875 200.324219 259.359375 199.714844 258.609375 199.714844 L 244.839844 199.714844 C 244.089844 199.714844 243.480469 200.324219 243.480469 201.070312 C 243.480469 201.820312 244.089844 202.429688 244.839844 202.429688 L 258.609375 202.429688 C 259.359375 202.429688 259.96875 201.820312 259.96875 201.070312 Z M 259.96875 201.070312 " fill-opacity="1" fill-rule="evenodd"/><path fill="#9f9f9f" d="M 259.96875 213.277344 C 259.96875 212.53125 259.359375 211.921875 258.609375 211.921875 L 244.839844 211.921875 C 244.089844 211.921875 243.480469 212.53125 243.480469 213.277344 C 243.480469 214.027344 244.089844 214.636719 244.839844 214.636719 L 258.609375 214.636719 C 259.359375 214.636719 259.96875 214.027344 259.96875 213.277344 Z M 259.96875 213.277344 " fill-opacity="1" fill-rule="evenodd"/><path fill="#9f9f9f" d="M 259.96875 225.488281 C 259.96875 224.738281 259.359375 224.128906 258.609375 224.128906 L 244.839844 224.128906 C 244.089844 224.128906 243.480469 224.738281 243.480469 225.488281 C 243.480469 226.234375 244.089844 226.84375 244.839844 226.84375 L 258.609375 226.84375 C 259.359375 226.84375 259.96875 226.234375 259.96875 225.488281 Z M 259.96875 225.488281 " fill-opacity="1" fill-rule="evenodd"/><path fill="#9f9f9f" d="M 290.957031 127.828125 C 290.957031 127.078125 290.347656 126.472656 289.597656 126.472656 L 275.824219 126.472656 C 275.074219 126.472656 274.46875 127.078125 274.46875 127.828125 C 274.46875 128.578125 275.074219 129.1875 275.824219 129.1875 L 289.597656 129.1875 C 290.347656 129.1875 290.957031 128.578125 290.957031 127.828125 Z M 290.957031 127.828125 " fill-opacity="1" fill-rule="evenodd"/><path fill="#9f9f9f" d="M 290.957031 140.035156 C 290.957031 139.285156 290.347656 138.679688 289.597656 138.679688 L 275.824219 138.679688 C 275.074219 138.679688 274.46875 139.285156 274.46875 140.035156 C 274.46875 140.785156 275.074219 141.394531 275.824219 141.394531 L 289.597656 141.394531 C 290.347656 141.394531 290.957031 140.785156 290.957031 140.035156 Z M 290.957031 140.035156 " fill-opacity="1" fill-rule="evenodd"/><path fill="#9f9f9f" d="M 290.957031 152.242188 C 290.957031 151.492188 290.347656 150.886719 289.597656 150.886719 L 275.824219 150.886719 C 275.074219 150.886719 274.46875 151.492188 274.46875 152.242188 C 274.46875 152.992188 275.074219 153.601562 275.824219 153.601562 L 289.597656 153.601562 C 290.347656 153.601562 290.957031 152.992188 290.957031 152.242188 Z M 290.957031 152.242188 " fill-opacity="1" fill-rule="evenodd"/><path fill="#9f9f9f" d="M 290.957031 164.449219 C 290.957031 163.699219 290.347656 163.09375 289.597656 163.09375 L 275.824219 163.09375 C 275.074219 163.09375 274.46875 163.699219 274.46875 164.449219 C 274.46875 165.199219 275.074219 165.808594 275.824219 165.808594 L 289.597656 165.808594 C 290.347656 165.808594 290.957031 165.199219 290.957031 164.449219 Z M 290.957031 164.449219 " fill-opacity="1" fill-rule="evenodd"/><path fill="#9f9f9f" d="M 290.957031 176.65625 C 290.957031 175.90625 290.347656 175.300781 289.597656 175.300781 L 275.824219 175.300781 C 275.074219 175.300781 274.46875 175.90625 274.46875 176.65625 C 274.46875 177.40625 275.074219 178.015625 275.824219 178.015625 L 289.597656 178.015625 C 290.347656 178.015625 290.957031 177.40625 290.957031 176.65625 Z M 290.957031 176.65625 " fill-opacity="1" fill-rule="evenodd"/><path fill="#9f9f9f" d="M 290.957031 188.863281 C 290.957031 188.117188 290.347656 187.507812 289.597656 187.507812 L 275.824219 187.507812 C 275.074219 187.507812 274.46875 188.117188 274.46875 188.863281 C 274.46875 189.613281 275.074219 190.222656 275.824219 190.222656 L 289.597656 190.222656 C 290.347656 190.222656 290.957031 189.613281 290.957031 188.863281 Z M 290.957031 188.863281 " fill-opacity="1" fill-rule="evenodd"/><path fill="#9f9f9f" d="M 290.957031 201.070312 C 290.957031 200.324219 290.347656 199.714844 289.597656 199.714844 L 275.824219 199.714844 C 275.074219 199.714844 274.46875 200.324219 274.46875 201.070312 C 274.46875 201.820312 275.074219 202.429688 275.824219 202.429688 L 289.597656 202.429688 C 290.347656 202.429688 290.957031 201.820312 290.957031 201.070312 Z M 290.957031 201.070312 " fill-opacity="1" fill-rule="evenodd"/><path fill="#9f9f9f" d="M 290.957031 213.277344 C 290.957031 212.53125 290.347656 211.921875 289.597656 211.921875 L 275.824219 211.921875 C 275.074219 211.921875 274.46875 212.53125 274.46875 213.277344 C 274.46875 214.027344 275.074219 214.636719 275.824219 214.636719 L 289.597656 214.636719 C 290.347656 214.636719 290.957031 214.027344 290.957031 213.277344 Z M 290.957031 213.277344 " fill-opacity="1" fill-rule="evenodd"/><path fill="#9f9f9f" d="M 290.957031 225.488281 C 290.957031 224.738281 290.347656 224.128906 289.597656 224.128906 L 275.824219 224.128906 C 275.074219 224.128906 274.46875 224.738281 274.46875 225.488281 C 274.46875 226.234375 275.074219 226.84375 275.824219 226.84375 L 289.597656 226.84375 C 290.347656 226.84375 290.957031 226.234375 290.957031 225.488281 Z M 290.957031 225.488281 " fill-opacity="1" fill-rule="evenodd"/><path fill="#eaf3fe" d="M 176.941406 114.9375 C 176.941406 114.125 176.277344 113.460938 175.464844 113.460938 L 151.992188 113.460938 C 151.179688 113.460938 150.519531 114.125 150.519531 114.9375 C 150.519531 115.753906 151.179688 116.414062 151.992188 116.414062 L 175.464844 116.414062 C 176.277344 116.414062 176.941406 115.753906 176.941406 114.9375 Z M 176.941406 114.9375 " fill-opacity="1" fill-rule="evenodd"/><path fill="#eaf3fe" d="M 207.925781 114.9375 C 207.925781 114.125 207.265625 113.460938 206.453125 113.460938 L 182.980469 113.460938 C 182.167969 113.460938 181.503906 114.125 181.503906 114.9375 C 181.503906 115.753906 182.167969 116.414062 182.980469 116.414062 L 206.453125 116.414062 C 207.265625 116.414062 207.925781 115.753906 207.925781 114.9375 Z M 207.925781 114.9375 " fill-opacity="1" fill-rule="evenodd"/></svg>