<svg xmlns="http://www.w3.org/2000/svg" role="img" viewBox="52.01 2.14 174.85 47.85"><defs><clipPath id="a"><path d="M211.88281 34.99219h11.83985v11.83984H211.8828zm0 0"/></clipPath><clipPath id="b"><path d="M217 34.99219h6.72266V45H217zm0 0"/></clipPath><clipPath id="c"><path d="M72.83203 5.55078h48.85156V41H72.83203zm0 0"/></clipPath></defs><path d="M75.02312 36.903h18.82813v9.5H55.445v-4.09375L73.82 16.29362H56.83562v-9.5h36.5625v4.07813zm0 0" fill="#00694e"/><path d="M122.12138 6.79362c2.45703 0 4.64453.57032 6.5625 1.70313 1.91406 1.125 3.41015 2.67969 4.48437 4.65625 1.08203 1.98047 1.625 4.19922 1.625 6.65625v.73438c0 2.46093-.54297 4.6875-1.625 6.6875-1.07422 2-2.57031 3.5703-4.48438 4.70312-1.91796 1.125-4.10546 1.6875-6.5625 1.6875h-9.5V46.403H99.90264V6.79362zm-9.5 17.5625h5.23437c1.34375 0 2.34766-.34375 3.01563-1.03125.67578-.6953 1.01562-1.64062 1.01562-2.82812V20.028c0-1.22656-.33984-2.17578-1.01563-2.84375-.66796-.67578-1.67187-1.01563-3.01562-1.01563h-5.23438zm0 0" fill="#00694e"/><path d="M158.62588 6.79362c13.85156 0 20.78125 6.60157 20.78125 19.79688 0 13.21094-6.9297 19.8125-20.78125 19.8125h-17.15625V6.79362zm-4.4375 30.10938h4.20312c5.33203 0 8-2.85938 8-8.57813v-3.45312c0-5.71875-2.66797-8.57813-8-8.57813h-4.20313zm0 0" fill="#00694e"/><path d="M208.47837 6.79362c2.45704 0 4.64454.57032 6.5625 1.70313 1.91407 1.125 3.41016 2.67969 4.48438 4.65625 1.08203 1.98047 1.625 4.19922 1.625 6.65625v.73438c0 2.46093-.54297 4.6875-1.625 6.6875-1.07422 2-2.57031 3.5703-4.48438 4.70312-1.91796 1.125-4.10546 1.6875-6.5625 1.6875h-9.5V46.403h-12.71875V6.79362zm-9.5 17.5625h5.23438c1.34375 0 2.34766-.34375 3.01563-1.03125.67578-.6953 1.01562-1.64062 1.01562-2.82812V20.028c0-1.22656-.33984-2.17578-1.01563-2.84375-.66796-.67578-1.67187-1.01563-3.01562-1.01563h-5.23438zm0 0" fill="#00694e"/><g clip-path="url(#a)"><path fill="#00694e" d="M223.57422 40.83594c0 .38281-.03906.76562-.11328 1.14062-.07422.375-.1875.74219-.33203 1.09766-.14844.35547-.32813.6914-.54297 1.01172-.21094.3164-.45313.61328-.72656.88281-.26954.27344-.56641.51563-.88282.72656-.32031.21485-.65625.39453-1.01172.54297-.35547.14453-.72265.25781-1.09765.33203-.375.07422-.75781.11328-1.14063.11328-.38281 0-.76562-.03906-1.14062-.11328-.375-.07422-.74219-.1875-1.09766-.33203-.35156-.14844-.6914-.32812-1.00781-.54297-.32031-.21093-.61719-.45312-.88672-.72656-.27344-.26953-.51563-.5664-.72656-.88281-.21485-.32032-.39453-.65625-.54297-1.01172-.14453-.35547-.25781-.72266-.33203-1.09766-.07422-.375-.10938-.75781-.10938-1.14062 0-.38282.03516-.76172.10938-1.14063.07422-.375.1875-.74218.33203-1.09765.14844-.35157.32812-.69141.54297-1.00782.21094-.3203.45312-.61718.72656-.88672.26953-.27343.5664-.51562.88672-.72656.3164-.21484.65625-.39453 1.00781-.53906.35547-.14844.72266-.25781 1.09766-.33594.375-.07422.75781-.10937 1.14062-.10937s.76563.03515 1.14063.10937c.375.07813.74219.1875 1.09765.33594.35547.14453.69141.32422 1.01172.53906.3164.21094.61328.45313.88281.72657.27344.26953.51563.5664.72657.88671.21484.31641.39453.65625.54297 1.00782.14453.35547.2578.72265.33203 1.09765.07422.3789.11328.75782.11328 1.14063zm0 0"/></g><g clip-path="url(#b)"><path fill="#ff3131" d="M223.57422 40.83594c0-.38282-.03906-.76172-.11328-1.14063-.07813-.375-.1875-.74218-.33594-1.09375-.14453-.35547-.32813-.6914-.53906-1.01172-.21485-.3203-.45703-.61328-.72656-.88672-.27344-.26953-.56641-.51171-.88672-.72656-.32032-.21093-.65625-.39062-1.00782-.53906-.35547-.14844-.72265-.25781-1.09765-.33203-.375-.07813-.75781-.11328-1.14063-.11328v5.84375l4.1289 4.13281c.55079-.54688.97267-1.17969 1.27345-1.89453.29687-.71875.4453-1.46094.4453-2.23828zm0 0"/></g><g clip-path="url(#c)"><path fill="#ff3131" d="M118.33594 5.57422c-1.78906 0-3.25 1.46094-3.25 3.2539 0 .90235.375 1.72266.96875 2.31641l-10.69531 16.8711c-.34376-.13282-.72266-.19922-1.1172-.19922-1.19921 0-2.25.65625-2.80859 1.625l-8.03515-2.57813c.01953-.09765.01953-.19531.01953-.3125 0-1.78906-1.46484-3.25-3.2539-3.25-1.78907 0-3.25391 1.46094-3.25391 3.25 0 .51172.11718.98828.32812 1.41406l-9.08203 7.09766c-.5586-.47656-1.28125-.75781-2.07031-.75781-1.78906 0-3.2539 1.46484-3.2539 3.2539 0 1.78907 1.46483 3.25391 3.2539 3.25391 1.78906 0 3.2539-1.46484 3.2539-3.2539 0-.50782-.11718-.98438-.32812-1.41407l9.08203-7.09375c.5586.47656 1.28125.7539 2.07031.7539 1.19922 0 2.25-.65624 2.8086-1.625l8.03515 2.57813c-.01953.09766-.01953.19532-.01953.3125 0 1.78907 1.46484 3.25 3.2539 3.25 1.78907 0 3.25391-1.46093 3.25391-3.25 0-.90234-.3789-1.72656-.96875-2.3164l10.69141-16.8711c.34766.13282.72266.19532 1.11719.19532 1.79297 0 3.2539-1.46094 3.2539-3.25 0-1.8086-1.46093-3.25391-3.2539-3.25391zm0 0"/></g></svg>